%TF.GenerationSoftware,KiCad,Pcbnew,10.0.5*%
%TF.CreationDate,2026-08-05T09:19:51-05:00*%
%TF.ProjectId,shop-output-board,73686f70-2d6f-4757-9470-75742d626f61,rev?*%
%TF.SameCoordinates,Original*%
%TF.FileFunction,Paste,Top*%
%TF.FilePolarity,Positive*%
%FSLAX46Y46*%
G04 Gerber Fmt 4.6, Leading zero omitted, Abs format (unit mm)*
G04 Created by KiCad (PCBNEW 10.0.5) date 2026-08-05 09:19:51*
%MOMM*%
%LPD*%
G01*
G04 APERTURE LIST*
G04 Aperture macros list*
%AMRoundRect*
0 Rectangle with rounded corners*
0 $1 Rounding radius*
0 $2 $3 $4 $5 $6 $7 $8 $9 X,Y pos of 4 corners*
0 Add a 4 corners polygon primitive as box body*
4,1,4,$2,$3,$4,$5,$6,$7,$8,$9,$2,$3,0*
0 Add four circle primitives for the rounded corners*
1,1,$1+$1,$2,$3*
1,1,$1+$1,$4,$5*
1,1,$1+$1,$6,$7*
1,1,$1+$1,$8,$9*
0 Add four rect primitives between the rounded corners*
20,1,$1+$1,$2,$3,$4,$5,0*
20,1,$1+$1,$4,$5,$6,$7,0*
20,1,$1+$1,$6,$7,$8,$9,0*
20,1,$1+$1,$8,$9,$2,$3,0*%
G04 Aperture macros list end*
%ADD10RoundRect,0.150000X-0.587500X-0.150000X0.587500X-0.150000X0.587500X0.150000X-0.587500X0.150000X0*%
%ADD11RoundRect,0.250000X-0.262500X-0.450000X0.262500X-0.450000X0.262500X0.450000X-0.262500X0.450000X0*%
%ADD12RoundRect,0.162500X-0.162500X0.750000X-0.162500X-0.750000X0.162500X-0.750000X0.162500X0.750000X0*%
%ADD13RoundRect,0.225000X-0.225000X-0.375000X0.225000X-0.375000X0.225000X0.375000X-0.225000X0.375000X0*%
%ADD14RoundRect,0.250000X-0.312500X-1.450000X0.312500X-1.450000X0.312500X1.450000X-0.312500X1.450000X0*%
%ADD15RoundRect,0.150000X-0.150000X0.587500X-0.150000X-0.587500X0.150000X-0.587500X0.150000X0.587500X0*%
%ADD16RoundRect,0.250000X0.262500X0.450000X-0.262500X0.450000X-0.262500X-0.450000X0.262500X-0.450000X0*%
%ADD17RoundRect,0.243750X0.243750X0.456250X-0.243750X0.456250X-0.243750X-0.456250X0.243750X-0.456250X0*%
%ADD18RoundRect,0.250000X-1.000000X-0.650000X1.000000X-0.650000X1.000000X0.650000X-1.000000X0.650000X0*%
%ADD19RoundRect,0.250000X-1.950000X-1.000000X1.950000X-1.000000X1.950000X1.000000X-1.950000X1.000000X0*%
%ADD20RoundRect,0.250000X-0.250000X-0.475000X0.250000X-0.475000X0.250000X0.475000X-0.250000X0.475000X0*%
%ADD21RoundRect,0.225000X0.225000X0.375000X-0.225000X0.375000X-0.225000X-0.375000X0.225000X-0.375000X0*%
G04 APERTURE END LIST*
D10*
%TO.C,Q9*%
X37062500Y-91050000D03*
X37062500Y-92950000D03*
X38937500Y-92000000D03*
%TD*%
D11*
%TO.C,R505*%
X78087500Y-32000000D03*
X79912500Y-32000000D03*
%TD*%
%TO.C,R701*%
X110087500Y-68000000D03*
X111912500Y-68000000D03*
%TD*%
D12*
%TO.C,U3*%
X48270000Y-35812500D03*
X45730000Y-35812500D03*
X45730000Y-45187500D03*
X48270000Y-45187500D03*
%TD*%
D11*
%TO.C,R304*%
X46087500Y-76000000D03*
X47912500Y-76000000D03*
%TD*%
D13*
%TO.C,D7*%
X109350000Y-56000000D03*
X112650000Y-56000000D03*
%TD*%
D14*
%TO.C,F1*%
X25862500Y-92000000D03*
X30137500Y-92000000D03*
%TD*%
D15*
%TO.C,Q1*%
X15950000Y-61062500D03*
X14050000Y-61062500D03*
X15000000Y-62937500D03*
%TD*%
D12*
%TO.C,U7*%
X112270000Y-35812500D03*
X109730000Y-35812500D03*
X109730000Y-45187500D03*
X112270000Y-45187500D03*
%TD*%
D16*
%TO.C,R102*%
X15912500Y-50000000D03*
X14087500Y-50000000D03*
%TD*%
D11*
%TO.C,R203*%
X30087500Y-72000000D03*
X31912500Y-72000000D03*
%TD*%
D16*
%TO.C,R802*%
X127912500Y-50000000D03*
X126087500Y-50000000D03*
%TD*%
D11*
%TO.C,R201*%
X30087500Y-68000000D03*
X31912500Y-68000000D03*
%TD*%
D17*
%TO.C,LED1*%
X15937500Y-80000000D03*
X14062500Y-80000000D03*
%TD*%
D11*
%TO.C,R503*%
X78087500Y-72000000D03*
X79912500Y-72000000D03*
%TD*%
D15*
%TO.C,Q5*%
X79950000Y-61062500D03*
X78050000Y-61062500D03*
X79000000Y-62937500D03*
%TD*%
D11*
%TO.C,R805*%
X126087500Y-32000000D03*
X127912500Y-32000000D03*
%TD*%
%TO.C,R403*%
X62087500Y-72000000D03*
X63912500Y-72000000D03*
%TD*%
D15*
%TO.C,Q6*%
X95950000Y-61062500D03*
X94050000Y-61062500D03*
X95000000Y-62937500D03*
%TD*%
D11*
%TO.C,R405*%
X62087500Y-32000000D03*
X63912500Y-32000000D03*
%TD*%
D12*
%TO.C,U8*%
X128270000Y-35812500D03*
X125730000Y-35812500D03*
X125730000Y-45187500D03*
X128270000Y-45187500D03*
%TD*%
D16*
%TO.C,R602*%
X95912500Y-50000000D03*
X94087500Y-50000000D03*
%TD*%
D15*
%TO.C,Q8*%
X127950000Y-61062500D03*
X126050000Y-61062500D03*
X127000000Y-62937500D03*
%TD*%
D17*
%TO.C,LED8*%
X127937500Y-80000000D03*
X126062500Y-80000000D03*
%TD*%
D11*
%TO.C,R303*%
X46087500Y-72000000D03*
X47912500Y-72000000D03*
%TD*%
%TO.C,R504*%
X78087500Y-76000000D03*
X79912500Y-76000000D03*
%TD*%
D12*
%TO.C,U5*%
X80270000Y-35812500D03*
X77730000Y-35812500D03*
X77730000Y-45187500D03*
X80270000Y-45187500D03*
%TD*%
D11*
%TO.C,R401*%
X62087500Y-68000000D03*
X63912500Y-68000000D03*
%TD*%
D12*
%TO.C,U2*%
X32270000Y-35812500D03*
X29730000Y-35812500D03*
X29730000Y-45187500D03*
X32270000Y-45187500D03*
%TD*%
D13*
%TO.C,D2*%
X29350000Y-56000000D03*
X32650000Y-56000000D03*
%TD*%
D11*
%TO.C,R6*%
X33087500Y-86000000D03*
X34912500Y-86000000D03*
%TD*%
D15*
%TO.C,Q3*%
X47950000Y-61062500D03*
X46050000Y-61062500D03*
X47000000Y-62937500D03*
%TD*%
D17*
%TO.C,LED7*%
X111937500Y-80000000D03*
X110062500Y-80000000D03*
%TD*%
%TO.C,LED2*%
X31937500Y-80000000D03*
X30062500Y-80000000D03*
%TD*%
D11*
%TO.C,R605*%
X94087500Y-32000000D03*
X95912500Y-32000000D03*
%TD*%
D12*
%TO.C,U1*%
X16270000Y-35812500D03*
X13730000Y-35812500D03*
X13730000Y-45187500D03*
X16270000Y-45187500D03*
%TD*%
D11*
%TO.C,R704*%
X110087500Y-76000000D03*
X111912500Y-76000000D03*
%TD*%
%TO.C,R204*%
X30087500Y-76000000D03*
X31912500Y-76000000D03*
%TD*%
%TO.C,R603*%
X94087500Y-72000000D03*
X95912500Y-72000000D03*
%TD*%
D16*
%TO.C,R702*%
X111912500Y-50000000D03*
X110087500Y-50000000D03*
%TD*%
D13*
%TO.C,D1*%
X13350000Y-56000000D03*
X16650000Y-56000000D03*
%TD*%
D11*
%TO.C,R703*%
X110087500Y-72000000D03*
X111912500Y-72000000D03*
%TD*%
%TO.C,R501*%
X78087500Y-68000000D03*
X79912500Y-68000000D03*
%TD*%
D12*
%TO.C,U4*%
X64270000Y-35812500D03*
X61730000Y-35812500D03*
X61730000Y-45187500D03*
X64270000Y-45187500D03*
%TD*%
D15*
%TO.C,Q4*%
X63950000Y-61062500D03*
X62050000Y-61062500D03*
X63000000Y-62937500D03*
%TD*%
D11*
%TO.C,R705*%
X110087500Y-32000000D03*
X111912500Y-32000000D03*
%TD*%
D18*
%TO.C,TVS1*%
X48000000Y-92000000D03*
X52000000Y-92000000D03*
%TD*%
D12*
%TO.C,U6*%
X96270000Y-35812500D03*
X93730000Y-35812500D03*
X93730000Y-45187500D03*
X96270000Y-45187500D03*
%TD*%
D13*
%TO.C,D3*%
X45350000Y-56000000D03*
X48650000Y-56000000D03*
%TD*%
D17*
%TO.C,LED4*%
X63937500Y-80000000D03*
X62062500Y-80000000D03*
%TD*%
D13*
%TO.C,D5*%
X77350000Y-56000000D03*
X80650000Y-56000000D03*
%TD*%
D19*
%TO.C,C1*%
X58300000Y-92000000D03*
X65700000Y-92000000D03*
%TD*%
D16*
%TO.C,R302*%
X47912500Y-50000000D03*
X46087500Y-50000000D03*
%TD*%
D11*
%TO.C,R105*%
X14087500Y-32000000D03*
X15912500Y-32000000D03*
%TD*%
%TO.C,R205*%
X30087500Y-32000000D03*
X31912500Y-32000000D03*
%TD*%
D15*
%TO.C,Q2*%
X31950000Y-61062500D03*
X30050000Y-61062500D03*
X31000000Y-62937500D03*
%TD*%
D11*
%TO.C,R301*%
X46087500Y-68000000D03*
X47912500Y-68000000D03*
%TD*%
D16*
%TO.C,R202*%
X31912500Y-50000000D03*
X30087500Y-50000000D03*
%TD*%
D20*
%TO.C,C2*%
X71050000Y-92000000D03*
X72950000Y-92000000D03*
%TD*%
D21*
%TO.C,D9*%
X47650000Y-86000000D03*
X44350000Y-86000000D03*
%TD*%
D13*
%TO.C,D6*%
X93350000Y-56000000D03*
X96650000Y-56000000D03*
%TD*%
D15*
%TO.C,Q7*%
X111950000Y-61062500D03*
X110050000Y-61062500D03*
X111000000Y-62937500D03*
%TD*%
D11*
%TO.C,R803*%
X126087500Y-72000000D03*
X127912500Y-72000000D03*
%TD*%
D13*
%TO.C,D4*%
X61350000Y-56000000D03*
X64650000Y-56000000D03*
%TD*%
D11*
%TO.C,R601*%
X94087500Y-68000000D03*
X95912500Y-68000000D03*
%TD*%
D17*
%TO.C,LED3*%
X47937500Y-80000000D03*
X46062500Y-80000000D03*
%TD*%
D16*
%TO.C,R402*%
X63912500Y-50000000D03*
X62087500Y-50000000D03*
%TD*%
D11*
%TO.C,R104*%
X14087500Y-76000000D03*
X15912500Y-76000000D03*
%TD*%
D17*
%TO.C,LED6*%
X95937500Y-80000000D03*
X94062500Y-80000000D03*
%TD*%
D11*
%TO.C,R305*%
X46087500Y-32000000D03*
X47912500Y-32000000D03*
%TD*%
%TO.C,R404*%
X62087500Y-76000000D03*
X63912500Y-76000000D03*
%TD*%
%TO.C,R103*%
X14087500Y-72000000D03*
X15912500Y-72000000D03*
%TD*%
D16*
%TO.C,R502*%
X79912500Y-50000000D03*
X78087500Y-50000000D03*
%TD*%
D11*
%TO.C,R804*%
X126087500Y-76000000D03*
X127912500Y-76000000D03*
%TD*%
D13*
%TO.C,D8*%
X125350000Y-56000000D03*
X128650000Y-56000000D03*
%TD*%
D11*
%TO.C,R604*%
X94087500Y-76000000D03*
X95912500Y-76000000D03*
%TD*%
%TO.C,R801*%
X126087500Y-68000000D03*
X127912500Y-68000000D03*
%TD*%
%TO.C,R101*%
X14087500Y-68000000D03*
X15912500Y-68000000D03*
%TD*%
D17*
%TO.C,LED5*%
X79937500Y-80000000D03*
X78062500Y-80000000D03*
%TD*%
M02*
