M48
; DRILL file KiCad 10.0.5 date 2026-08-04T20:32:33
; FORMAT={-:-/ absolute / metric / decimal}
; #@! TF.CreationDate,2026-08-04T20:32:33-05:00
; #@! TF.GenerationSoftware,Kicad,Pcbnew,10.0.5
; #@! TF.FileFunction,Plated,1,2,PTH
FMAT,2
METRIC
; #@! TA.AperFunction,Plated,PTH,ViaDrill
T1C0.300
; #@! TA.AperFunction,Plated,PTH,ComponentDrill
T2C1.000
; #@! TA.AperFunction,Plated,PTH,ComponentDrill
T3C1.100
; #@! TA.AperFunction,Plated,PTH,ComponentDrill
T4C1.300
%
G90
G05
T1
X12.65Y-48.0
X19.1Y-80.6
X28.15Y-48.0
X32.8Y-103.05
X34.9Y-80.6
X38.35Y-85.55
X40.35Y-35.95
X44.05Y-48.25
X51.15Y-79.9
X53.8Y-72.35
X60.6Y-47.6
X66.8Y-86.1
X67.95Y-79.9
X76.25Y-47.9
X83.35Y-79.75
X89.25Y-35.35
X91.65Y-48.5
X99.8Y-81.95
X101.7Y-73.05
X108.4Y-47.8
X110.6Y-110.1
X115.9Y-80.1
X124.0Y-48.1
X131.95Y-80.15
X141.15Y-95.0
T2
X50.87Y-7.0
X50.87Y-24.78
X53.41Y-7.0
X53.41Y-24.78
X55.95Y-7.0
X55.95Y-24.78
X58.49Y-7.0
X58.49Y-24.78
X61.03Y-7.0
X61.03Y-24.78
X63.57Y-7.0
X63.57Y-24.78
X66.11Y-7.0
X66.11Y-24.78
X68.65Y-7.0
X68.65Y-24.78
X71.19Y-7.0
X71.19Y-24.78
X73.73Y-7.0
X73.73Y-24.78
X76.27Y-7.0
X76.27Y-24.78
X78.81Y-7.0
X78.81Y-24.78
X81.35Y-7.0
X81.35Y-24.78
X83.89Y-7.0
X83.89Y-24.78
X86.43Y-7.0
X86.43Y-24.78
X88.97Y-7.0
X88.97Y-24.78
X91.51Y-7.0
X91.51Y-24.78
X94.05Y-7.0
X94.05Y-24.78
X96.59Y-7.0
X96.59Y-24.78
X99.13Y-7.0
X99.13Y-24.78
T3
X95.0Y-103.0
X98.81Y-103.0
X102.62Y-103.0
X106.43Y-103.0
X110.24Y-103.0
X114.05Y-103.0
X125.0Y-103.0
X128.81Y-103.0
X132.62Y-103.0
X136.43Y-103.0
X140.24Y-103.0
X144.05Y-103.0
T4
X16.0Y-103.0
X21.08Y-103.0
M30
