%TF.GenerationSoftware,KiCad,Pcbnew,10.0.5*%
%TF.CreationDate,2026-08-05T09:19:51-05:00*%
%TF.ProjectId,shop-output-board,73686f70-2d6f-4757-9470-75742d626f61,rev?*%
%TF.SameCoordinates,Original*%
%TF.FileFunction,Soldermask,Bot*%
%TF.FilePolarity,Negative*%
%FSLAX46Y46*%
G04 Gerber Fmt 4.6, Leading zero omitted, Abs format (unit mm)*
G04 Created by KiCad (PCBNEW 10.0.5) date 2026-08-05 09:19:51*
%MOMM*%
%LPD*%
G01*
G04 APERTURE LIST*
G04 Aperture macros list*
%AMRoundRect*
0 Rectangle with rounded corners*
0 $1 Rounding radius*
0 $2 $3 $4 $5 $6 $7 $8 $9 X,Y pos of 4 corners*
0 Add a 4 corners polygon primitive as box body*
4,1,4,$2,$3,$4,$5,$6,$7,$8,$9,$2,$3,0*
0 Add four circle primitives for the rounded corners*
1,1,$1+$1,$2,$3*
1,1,$1+$1,$4,$5*
1,1,$1+$1,$6,$7*
1,1,$1+$1,$8,$9*
0 Add four rect primitives between the rounded corners*
20,1,$1+$1,$2,$3,$4,$5,0*
20,1,$1+$1,$4,$5,$6,$7,0*
20,1,$1+$1,$6,$7,$8,$9,0*
20,1,$1+$1,$8,$9,$2,$3,0*%
G04 Aperture macros list end*
%ADD10R,1.700000X1.700000*%
%ADD11C,1.700000*%
%ADD12RoundRect,0.250000X-0.750000X-0.750000X0.750000X-0.750000X0.750000X0.750000X-0.750000X0.750000X0*%
%ADD13C,2.000000*%
%ADD14RoundRect,0.250000X-1.050000X-1.050000X1.050000X-1.050000X1.050000X1.050000X-1.050000X1.050000X0*%
%ADD15C,2.600000*%
G04 APERTURE END LIST*
D10*
%TO.C,J5*%
X50870000Y-7000000D03*
D11*
X53410000Y-7000000D03*
X55950000Y-7000000D03*
X58490000Y-7000000D03*
X61030000Y-7000000D03*
X63570000Y-7000000D03*
X66110000Y-7000000D03*
X68650000Y-7000000D03*
X71190000Y-7000000D03*
X73730000Y-7000000D03*
X76270000Y-7000000D03*
X78810000Y-7000000D03*
X81350000Y-7000000D03*
X83890000Y-7000000D03*
X86430000Y-7000000D03*
X88970000Y-7000000D03*
X91510000Y-7000000D03*
X94050000Y-7000000D03*
X96590000Y-7000000D03*
X99130000Y-7000000D03*
%TD*%
D10*
%TO.C,J4*%
X50870000Y-24780000D03*
D11*
X53410000Y-24780000D03*
X55950000Y-24780000D03*
X58490000Y-24780000D03*
X61030000Y-24780000D03*
X63570000Y-24780000D03*
X66110000Y-24780000D03*
X68650000Y-24780000D03*
X71190000Y-24780000D03*
X73730000Y-24780000D03*
X76270000Y-24780000D03*
X78810000Y-24780000D03*
X81350000Y-24780000D03*
X83890000Y-24780000D03*
X86430000Y-24780000D03*
X88970000Y-24780000D03*
X91510000Y-24780000D03*
X94050000Y-24780000D03*
X96590000Y-24780000D03*
X99130000Y-24780000D03*
%TD*%
D12*
%TO.C,J2*%
X95000000Y-103000000D03*
D13*
X98810000Y-103000000D03*
X102620000Y-103000000D03*
X106430000Y-103000000D03*
X110240000Y-103000000D03*
X114050000Y-103000000D03*
%TD*%
D14*
%TO.C,J1*%
X16000000Y-103000000D03*
D15*
X21080000Y-103000000D03*
%TD*%
D12*
%TO.C,J3*%
X125000000Y-103000000D03*
D13*
X128810000Y-103000000D03*
X132620000Y-103000000D03*
X136430000Y-103000000D03*
X140240000Y-103000000D03*
X144050000Y-103000000D03*
%TD*%
M02*
