%TF.GenerationSoftware,KiCad,Pcbnew,10.0.5*%
%TF.CreationDate,2026-08-05T12:17:23-05:00*%
%TF.ProjectId,shop-output-board-v2,73686f70-2d6f-4757-9470-75742d626f61,rev?*%
%TF.SameCoordinates,Original*%
%TF.FileFunction,Soldermask,Top*%
%TF.FilePolarity,Negative*%
%FSLAX46Y46*%
G04 Gerber Fmt 4.6, Leading zero omitted, Abs format (unit mm)*
G04 Created by KiCad (PCBNEW 10.0.5) date 2026-08-05 12:17:23*
%MOMM*%
%LPD*%
G01*
G04 APERTURE LIST*
G04 Aperture macros list*
%AMRoundRect*
0 Rectangle with rounded corners*
0 $1 Rounding radius*
0 $2 $3 $4 $5 $6 $7 $8 $9 X,Y pos of 4 corners*
0 Add a 4 corners polygon primitive as box body*
4,1,4,$2,$3,$4,$5,$6,$7,$8,$9,$2,$3,0*
0 Add four circle primitives for the rounded corners*
1,1,$1+$1,$2,$3*
1,1,$1+$1,$4,$5*
1,1,$1+$1,$6,$7*
1,1,$1+$1,$8,$9*
0 Add four rect primitives between the rounded corners*
20,1,$1+$1,$2,$3,$4,$5,0*
20,1,$1+$1,$4,$5,$6,$7,0*
20,1,$1+$1,$6,$7,$8,$9,0*
20,1,$1+$1,$8,$9,$2,$3,0*%
G04 Aperture macros list end*
%ADD10RoundRect,0.250000X-0.262500X-0.450000X0.262500X-0.450000X0.262500X0.450000X-0.262500X0.450000X0*%
%ADD11RoundRect,0.250000X0.262500X0.450000X-0.262500X0.450000X-0.262500X-0.450000X0.262500X-0.450000X0*%
%ADD12RoundRect,0.250000X0.450000X-0.262500X0.450000X0.262500X-0.450000X0.262500X-0.450000X-0.262500X0*%
%ADD13RoundRect,0.250000X-0.450000X0.262500X-0.450000X-0.262500X0.450000X-0.262500X0.450000X0.262500X0*%
%ADD14RoundRect,0.250000X-1.050000X-1.050000X1.050000X-1.050000X1.050000X1.050000X-1.050000X1.050000X0*%
%ADD15C,2.600000*%
%ADD16RoundRect,0.162500X-0.162500X0.750000X-0.162500X-0.750000X0.162500X-0.750000X0.162500X0.750000X0*%
%ADD17RoundRect,0.243750X0.456250X-0.243750X0.456250X0.243750X-0.456250X0.243750X-0.456250X-0.243750X0*%
%ADD18RoundRect,0.225000X-0.225000X-0.375000X0.225000X-0.375000X0.225000X0.375000X-0.225000X0.375000X0*%
%ADD19RoundRect,0.250000X-0.312500X-1.450000X0.312500X-1.450000X0.312500X1.450000X-0.312500X1.450000X0*%
%ADD20RoundRect,0.250000X-1.500000X-0.550000X1.500000X-0.550000X1.500000X0.550000X-1.500000X0.550000X0*%
%ADD21RoundRect,0.225000X0.225000X0.375000X-0.225000X0.375000X-0.225000X-0.375000X0.225000X-0.375000X0*%
%ADD22R,1.700000X1.700000*%
%ADD23C,1.700000*%
%ADD24RoundRect,0.150000X0.587500X0.150000X-0.587500X0.150000X-0.587500X-0.150000X0.587500X-0.150000X0*%
%ADD25RoundRect,0.250000X-0.750000X-0.750000X0.750000X-0.750000X0.750000X0.750000X-0.750000X0.750000X0*%
%ADD26C,2.000000*%
%ADD27RoundRect,0.250000X-0.250000X-0.475000X0.250000X-0.475000X0.250000X0.475000X-0.250000X0.475000X0*%
%ADD28RoundRect,0.150000X-0.587500X-0.150000X0.587500X-0.150000X0.587500X0.150000X-0.587500X0.150000X0*%
%ADD29RoundRect,0.250000X-1.000000X-0.650000X1.000000X-0.650000X1.000000X0.650000X-1.000000X0.650000X0*%
G04 APERTURE END LIST*
D10*
%TO.C,R105*%
X12087500Y-27000000D03*
X13912500Y-27000000D03*
%TD*%
%TO.C,R305*%
X42087500Y-27000000D03*
X43912500Y-27000000D03*
%TD*%
D11*
%TO.C,R401*%
X62912500Y-55000000D03*
X61087500Y-55000000D03*
%TD*%
D12*
%TO.C,R102*%
X17000000Y-47912500D03*
X17000000Y-46087500D03*
%TD*%
D13*
%TO.C,R404*%
X54000000Y-54087500D03*
X54000000Y-55912500D03*
%TD*%
D14*
%TO.C,J1*%
X10000000Y-84000000D03*
D15*
X15080000Y-84000000D03*
%TD*%
D12*
%TO.C,R302*%
X47000000Y-47912500D03*
X47000000Y-46087500D03*
%TD*%
D13*
%TO.C,R103*%
X9000000Y-50087500D03*
X9000000Y-51912500D03*
%TD*%
D11*
%TO.C,R101*%
X17912500Y-55000000D03*
X16087500Y-55000000D03*
%TD*%
D16*
%TO.C,U2*%
X29270000Y-31812500D03*
X26730000Y-31812500D03*
X26730000Y-41187500D03*
X29270000Y-41187500D03*
%TD*%
D17*
%TO.C,LED3*%
X39000000Y-59937500D03*
X39000000Y-58062500D03*
%TD*%
D16*
%TO.C,U1*%
X14270000Y-31812500D03*
X11730000Y-31812500D03*
X11730000Y-41187500D03*
X14270000Y-41187500D03*
%TD*%
D17*
%TO.C,LED1*%
X9000000Y-59937500D03*
X9000000Y-58062500D03*
%TD*%
D10*
%TO.C,R405*%
X57087500Y-27000000D03*
X58912500Y-27000000D03*
%TD*%
D13*
%TO.C,R303*%
X39000000Y-50087500D03*
X39000000Y-51912500D03*
%TD*%
D18*
%TO.C,D9*%
X28350000Y-66000000D03*
X31650000Y-66000000D03*
%TD*%
D19*
%TO.C,F1*%
X11862500Y-72000000D03*
X16137500Y-72000000D03*
%TD*%
D13*
%TO.C,R104*%
X9000000Y-54087500D03*
X9000000Y-55912500D03*
%TD*%
D20*
%TO.C,C1*%
X43300000Y-72000000D03*
X48700000Y-72000000D03*
%TD*%
D13*
%TO.C,R204*%
X24000000Y-54087500D03*
X24000000Y-55912500D03*
%TD*%
D21*
%TO.C,D4*%
X63650000Y-51000000D03*
X60350000Y-51000000D03*
%TD*%
D22*
%TO.C,J5*%
X10870000Y-5000000D03*
D23*
X13410000Y-5000000D03*
X15950000Y-5000000D03*
X18490000Y-5000000D03*
X21030000Y-5000000D03*
X23570000Y-5000000D03*
X26110000Y-5000000D03*
X28650000Y-5000000D03*
X31190000Y-5000000D03*
X33730000Y-5000000D03*
X36270000Y-5000000D03*
X38810000Y-5000000D03*
X41350000Y-5000000D03*
X43890000Y-5000000D03*
X46430000Y-5000000D03*
X48970000Y-5000000D03*
X51510000Y-5000000D03*
X54050000Y-5000000D03*
X56590000Y-5000000D03*
X59130000Y-5000000D03*
%TD*%
D24*
%TO.C,Q1*%
X9937500Y-47950000D03*
X9937500Y-46050000D03*
X8062500Y-47000000D03*
%TD*%
D17*
%TO.C,LED2*%
X24000000Y-59937500D03*
X24000000Y-58062500D03*
%TD*%
D21*
%TO.C,D1*%
X18650000Y-51000000D03*
X15350000Y-51000000D03*
%TD*%
D16*
%TO.C,U4*%
X59270000Y-31812500D03*
X56730000Y-31812500D03*
X56730000Y-41187500D03*
X59270000Y-41187500D03*
%TD*%
D11*
%TO.C,R301*%
X47912500Y-55000000D03*
X46087500Y-55000000D03*
%TD*%
D12*
%TO.C,R402*%
X62000000Y-47912500D03*
X62000000Y-46087500D03*
%TD*%
D10*
%TO.C,R6*%
X19087500Y-66000000D03*
X20912500Y-66000000D03*
%TD*%
D22*
%TO.C,J4*%
X10870000Y-22780000D03*
D23*
X13410000Y-22780000D03*
X15950000Y-22780000D03*
X18490000Y-22780000D03*
X21030000Y-22780000D03*
X23570000Y-22780000D03*
X26110000Y-22780000D03*
X28650000Y-22780000D03*
X31190000Y-22780000D03*
X33730000Y-22780000D03*
X36270000Y-22780000D03*
X38810000Y-22780000D03*
X41350000Y-22780000D03*
X43890000Y-22780000D03*
X46430000Y-22780000D03*
X48970000Y-22780000D03*
X51510000Y-22780000D03*
X54050000Y-22780000D03*
X56590000Y-22780000D03*
X59130000Y-22780000D03*
%TD*%
D25*
%TO.C,J2*%
X45000000Y-84000000D03*
D26*
X48810000Y-84000000D03*
X52620000Y-84000000D03*
X56430000Y-84000000D03*
X60240000Y-84000000D03*
X64050000Y-84000000D03*
%TD*%
D27*
%TO.C,C2*%
X55050000Y-72000000D03*
X56950000Y-72000000D03*
%TD*%
D16*
%TO.C,U3*%
X44270000Y-31812500D03*
X41730000Y-31812500D03*
X41730000Y-41187500D03*
X44270000Y-41187500D03*
%TD*%
D21*
%TO.C,D3*%
X48650000Y-51000000D03*
X45350000Y-51000000D03*
%TD*%
D13*
%TO.C,R203*%
X24000000Y-50087500D03*
X24000000Y-51912500D03*
%TD*%
%TO.C,R304*%
X39000000Y-54087500D03*
X39000000Y-55912500D03*
%TD*%
D21*
%TO.C,D2*%
X33650000Y-51000000D03*
X30350000Y-51000000D03*
%TD*%
D13*
%TO.C,R403*%
X54000000Y-50087500D03*
X54000000Y-51912500D03*
%TD*%
D10*
%TO.C,R205*%
X27087500Y-27000000D03*
X28912500Y-27000000D03*
%TD*%
D12*
%TO.C,R202*%
X32000000Y-47912500D03*
X32000000Y-46087500D03*
%TD*%
D28*
%TO.C,Q9*%
X23062500Y-71050000D03*
X23062500Y-72950000D03*
X24937500Y-72000000D03*
%TD*%
D11*
%TO.C,R201*%
X32912500Y-55000000D03*
X31087500Y-55000000D03*
%TD*%
D17*
%TO.C,LED4*%
X54000000Y-59937500D03*
X54000000Y-58062500D03*
%TD*%
D24*
%TO.C,Q3*%
X39937500Y-47950000D03*
X39937500Y-46050000D03*
X38062500Y-47000000D03*
%TD*%
%TO.C,Q4*%
X54937500Y-47950000D03*
X54937500Y-46050000D03*
X53062500Y-47000000D03*
%TD*%
D29*
%TO.C,TVS1*%
X32000000Y-72000000D03*
X36000000Y-72000000D03*
%TD*%
D24*
%TO.C,Q2*%
X24937500Y-47950000D03*
X24937500Y-46050000D03*
X23062500Y-47000000D03*
%TD*%
M02*
