%TF.GenerationSoftware,KiCad,Pcbnew,10.0.5*%
%TF.CreationDate,2026-08-05T12:17:23-05:00*%
%TF.ProjectId,shop-output-board-v2,73686f70-2d6f-4757-9470-75742d626f61,rev?*%
%TF.SameCoordinates,Original*%
%TF.FileFunction,Soldermask,Bot*%
%TF.FilePolarity,Negative*%
%FSLAX46Y46*%
G04 Gerber Fmt 4.6, Leading zero omitted, Abs format (unit mm)*
G04 Created by KiCad (PCBNEW 10.0.5) date 2026-08-05 12:17:23*
%MOMM*%
%LPD*%
G01*
G04 APERTURE LIST*
G04 Aperture macros list*
%AMRoundRect*
0 Rectangle with rounded corners*
0 $1 Rounding radius*
0 $2 $3 $4 $5 $6 $7 $8 $9 X,Y pos of 4 corners*
0 Add a 4 corners polygon primitive as box body*
4,1,4,$2,$3,$4,$5,$6,$7,$8,$9,$2,$3,0*
0 Add four circle primitives for the rounded corners*
1,1,$1+$1,$2,$3*
1,1,$1+$1,$4,$5*
1,1,$1+$1,$6,$7*
1,1,$1+$1,$8,$9*
0 Add four rect primitives between the rounded corners*
20,1,$1+$1,$2,$3,$4,$5,0*
20,1,$1+$1,$4,$5,$6,$7,0*
20,1,$1+$1,$6,$7,$8,$9,0*
20,1,$1+$1,$8,$9,$2,$3,0*%
G04 Aperture macros list end*
%ADD10RoundRect,0.250000X-1.050000X-1.050000X1.050000X-1.050000X1.050000X1.050000X-1.050000X1.050000X0*%
%ADD11C,2.600000*%
%ADD12R,1.700000X1.700000*%
%ADD13C,1.700000*%
%ADD14RoundRect,0.250000X-0.750000X-0.750000X0.750000X-0.750000X0.750000X0.750000X-0.750000X0.750000X0*%
%ADD15C,2.000000*%
G04 APERTURE END LIST*
D10*
%TO.C,J1*%
X10000000Y-84000000D03*
D11*
X15080000Y-84000000D03*
%TD*%
D12*
%TO.C,J5*%
X10870000Y-5000000D03*
D13*
X13410000Y-5000000D03*
X15950000Y-5000000D03*
X18490000Y-5000000D03*
X21030000Y-5000000D03*
X23570000Y-5000000D03*
X26110000Y-5000000D03*
X28650000Y-5000000D03*
X31190000Y-5000000D03*
X33730000Y-5000000D03*
X36270000Y-5000000D03*
X38810000Y-5000000D03*
X41350000Y-5000000D03*
X43890000Y-5000000D03*
X46430000Y-5000000D03*
X48970000Y-5000000D03*
X51510000Y-5000000D03*
X54050000Y-5000000D03*
X56590000Y-5000000D03*
X59130000Y-5000000D03*
%TD*%
D12*
%TO.C,J4*%
X10870000Y-22780000D03*
D13*
X13410000Y-22780000D03*
X15950000Y-22780000D03*
X18490000Y-22780000D03*
X21030000Y-22780000D03*
X23570000Y-22780000D03*
X26110000Y-22780000D03*
X28650000Y-22780000D03*
X31190000Y-22780000D03*
X33730000Y-22780000D03*
X36270000Y-22780000D03*
X38810000Y-22780000D03*
X41350000Y-22780000D03*
X43890000Y-22780000D03*
X46430000Y-22780000D03*
X48970000Y-22780000D03*
X51510000Y-22780000D03*
X54050000Y-22780000D03*
X56590000Y-22780000D03*
X59130000Y-22780000D03*
%TD*%
D14*
%TO.C,J2*%
X45000000Y-84000000D03*
D15*
X48810000Y-84000000D03*
X52620000Y-84000000D03*
X56430000Y-84000000D03*
X60240000Y-84000000D03*
X64050000Y-84000000D03*
%TD*%
M02*
