%TF.GenerationSoftware,KiCad,Pcbnew,10.0.5*%
%TF.CreationDate,2026-08-05T12:17:23-05:00*%
%TF.ProjectId,shop-output-board-v2,73686f70-2d6f-4757-9470-75742d626f61,rev?*%
%TF.SameCoordinates,Original*%
%TF.FileFunction,Copper,L2,Bot*%
%TF.FilePolarity,Positive*%
%FSLAX46Y46*%
G04 Gerber Fmt 4.6, Leading zero omitted, Abs format (unit mm)*
G04 Created by KiCad (PCBNEW 10.0.5) date 2026-08-05 12:17:23*
%MOMM*%
%LPD*%
G01*
G04 APERTURE LIST*
G04 Aperture macros list*
%AMRoundRect*
0 Rectangle with rounded corners*
0 $1 Rounding radius*
0 $2 $3 $4 $5 $6 $7 $8 $9 X,Y pos of 4 corners*
0 Add a 4 corners polygon primitive as box body*
4,1,4,$2,$3,$4,$5,$6,$7,$8,$9,$2,$3,0*
0 Add four circle primitives for the rounded corners*
1,1,$1+$1,$2,$3*
1,1,$1+$1,$4,$5*
1,1,$1+$1,$6,$7*
1,1,$1+$1,$8,$9*
0 Add four rect primitives between the rounded corners*
20,1,$1+$1,$2,$3,$4,$5,0*
20,1,$1+$1,$4,$5,$6,$7,0*
20,1,$1+$1,$6,$7,$8,$9,0*
20,1,$1+$1,$8,$9,$2,$3,0*%
G04 Aperture macros list end*
%TA.AperFunction,ComponentPad*%
%ADD10RoundRect,0.250000X-1.050000X-1.050000X1.050000X-1.050000X1.050000X1.050000X-1.050000X1.050000X0*%
%TD*%
%TA.AperFunction,ComponentPad*%
%ADD11C,2.600000*%
%TD*%
%TA.AperFunction,ComponentPad*%
%ADD12R,1.700000X1.700000*%
%TD*%
%TA.AperFunction,ComponentPad*%
%ADD13C,1.700000*%
%TD*%
%TA.AperFunction,ComponentPad*%
%ADD14RoundRect,0.250000X-0.750000X-0.750000X0.750000X-0.750000X0.750000X0.750000X-0.750000X0.750000X0*%
%TD*%
%TA.AperFunction,ComponentPad*%
%ADD15C,2.000000*%
%TD*%
%TA.AperFunction,ViaPad*%
%ADD16C,0.600000*%
%TD*%
G04 APERTURE END LIST*
D10*
%TO.P,J1,1*%
%TO.N,VIN_RAW*%
X10000000Y-84000000D03*
D11*
%TO.P,J1,2*%
%TO.N,ISO_GND*%
X15080000Y-84000000D03*
%TD*%
D12*
%TO.P,J5,1*%
%TO.N,unconnected-(J5-Pin_1-Pad1)*%
X10870000Y-5000000D03*
D13*
%TO.P,J5,2*%
%TO.N,unconnected-(J5-Pin_2-Pad2)*%
X13410000Y-5000000D03*
%TO.P,J5,3*%
%TO.N,PICO_GND*%
X15950000Y-5000000D03*
%TO.P,J5,4*%
%TO.N,unconnected-(J5-Pin_4-Pad4)*%
X18490000Y-5000000D03*
%TO.P,J5,5*%
%TO.N,unconnected-(J5-Pin_5-Pad5)*%
X21030000Y-5000000D03*
%TO.P,J5,6*%
%TO.N,unconnected-(J5-Pin_6-Pad6)*%
X23570000Y-5000000D03*
%TO.P,J5,7*%
%TO.N,unconnected-(J5-Pin_7-Pad7)*%
X26110000Y-5000000D03*
%TO.P,J5,8*%
%TO.N,PICO_GND*%
X28650000Y-5000000D03*
%TO.P,J5,9*%
%TO.N,unconnected-(J5-Pin_9-Pad9)*%
X31190000Y-5000000D03*
%TO.P,J5,10*%
%TO.N,unconnected-(J5-Pin_10-Pad10)*%
X33730000Y-5000000D03*
%TO.P,J5,11*%
%TO.N,unconnected-(J5-Pin_11-Pad11)*%
X36270000Y-5000000D03*
%TO.P,J5,12*%
%TO.N,unconnected-(J5-Pin_12-Pad12)*%
X38810000Y-5000000D03*
%TO.P,J5,13*%
%TO.N,PICO_GND*%
X41350000Y-5000000D03*
%TO.P,J5,14*%
%TO.N,unconnected-(J5-Pin_14-Pad14)*%
X43890000Y-5000000D03*
%TO.P,J5,15*%
%TO.N,unconnected-(J5-Pin_15-Pad15)*%
X46430000Y-5000000D03*
%TO.P,J5,16*%
%TO.N,unconnected-(J5-Pin_16-Pad16)*%
X48970000Y-5000000D03*
%TO.P,J5,17*%
%TO.N,unconnected-(J5-Pin_17-Pad17)*%
X51510000Y-5000000D03*
%TO.P,J5,18*%
%TO.N,PICO_GND*%
X54050000Y-5000000D03*
%TO.P,J5,19*%
%TO.N,unconnected-(J5-Pin_19-Pad19)*%
X56590000Y-5000000D03*
%TO.P,J5,20*%
%TO.N,unconnected-(J5-Pin_20-Pad20)*%
X59130000Y-5000000D03*
%TD*%
D12*
%TO.P,J4,1*%
%TO.N,unconnected-(J4-Pin_1-Pad1)*%
X10870000Y-22780000D03*
D13*
%TO.P,J4,2*%
%TO.N,unconnected-(J4-Pin_2-Pad2)*%
X13410000Y-22780000D03*
%TO.P,J4,3*%
%TO.N,PICO_GND*%
X15950000Y-22780000D03*
%TO.P,J4,4*%
%TO.N,GP2*%
X18490000Y-22780000D03*
%TO.P,J4,5*%
%TO.N,GP3*%
X21030000Y-22780000D03*
%TO.P,J4,6*%
%TO.N,GP4*%
X23570000Y-22780000D03*
%TO.P,J4,7*%
%TO.N,GP5*%
X26110000Y-22780000D03*
%TO.P,J4,8*%
%TO.N,PICO_GND*%
X28650000Y-22780000D03*
%TO.P,J4,9*%
%TO.N,unconnected-(J4-Pin_9-Pad9)*%
X31190000Y-22780000D03*
%TO.P,J4,10*%
%TO.N,unconnected-(J4-Pin_10-Pad10)*%
X33730000Y-22780000D03*
%TO.P,J4,11*%
%TO.N,unconnected-(J4-Pin_11-Pad11)*%
X36270000Y-22780000D03*
%TO.P,J4,12*%
%TO.N,unconnected-(J4-Pin_12-Pad12)*%
X38810000Y-22780000D03*
%TO.P,J4,13*%
%TO.N,PICO_GND*%
X41350000Y-22780000D03*
%TO.P,J4,14*%
%TO.N,unconnected-(J4-Pin_14-Pad14)*%
X43890000Y-22780000D03*
%TO.P,J4,15*%
%TO.N,unconnected-(J4-Pin_15-Pad15)*%
X46430000Y-22780000D03*
%TO.P,J4,16*%
%TO.N,unconnected-(J4-Pin_16-Pad16)*%
X48970000Y-22780000D03*
%TO.P,J4,17*%
%TO.N,unconnected-(J4-Pin_17-Pad17)*%
X51510000Y-22780000D03*
%TO.P,J4,18*%
%TO.N,PICO_GND*%
X54050000Y-22780000D03*
%TO.P,J4,19*%
%TO.N,unconnected-(J4-Pin_19-Pad19)*%
X56590000Y-22780000D03*
%TO.P,J4,20*%
%TO.N,unconnected-(J4-Pin_20-Pad20)*%
X59130000Y-22780000D03*
%TD*%
D14*
%TO.P,J2,1*%
%TO.N,OUT1*%
X45000000Y-84000000D03*
D15*
%TO.P,J2,2*%
%TO.N,OUT2*%
X48810000Y-84000000D03*
%TO.P,J2,3*%
%TO.N,OUT3*%
X52620000Y-84000000D03*
%TO.P,J2,4*%
%TO.N,OUT4*%
X56430000Y-84000000D03*
%TO.P,J2,5*%
%TO.N,ISO_GND*%
X60240000Y-84000000D03*
%TO.P,J2,6*%
X64050000Y-84000000D03*
%TD*%
D16*
%TO.N,ISO_GND*%
X27837500Y-59937500D03*
X25000000Y-65900000D03*
X11750000Y-43700000D03*
X41700000Y-44100000D03*
X12887500Y-59937500D03*
X42050000Y-51900000D03*
X52500000Y-69500000D03*
X56950000Y-74700000D03*
X26700000Y-44300000D03*
X51050000Y-60000000D03*
X43150000Y-59900000D03*
X56800000Y-44150000D03*
%TD*%
%TA.AperFunction,Conductor*%
%TO.N,ISO_GND*%
G36*
X68943039Y-39019685D02*
G01*
X68988794Y-39072489D01*
X69000000Y-39124000D01*
X69000000Y-90876000D01*
X68980315Y-90943039D01*
X68927511Y-90988794D01*
X68876000Y-91000000D01*
X6659543Y-91000000D01*
X6592504Y-90980315D01*
X6546749Y-90927511D01*
X6536805Y-90858353D01*
X6565830Y-90794797D01*
X6577788Y-90782769D01*
X6603886Y-90759883D01*
X6687000Y-90687000D01*
X7014700Y-90313300D01*
X7290900Y-89900000D01*
X7510700Y-89454200D01*
X7670500Y-88983500D01*
X7767500Y-88496000D01*
X7800000Y-88000000D01*
X7767500Y-87504000D01*
X7670500Y-87016500D01*
X7510700Y-86545800D01*
X7290900Y-86100000D01*
X7090415Y-85799999D01*
X7014700Y-85686700D01*
X7014693Y-85686691D01*
X6687000Y-85313000D01*
X6686999Y-85312999D01*
X6313308Y-84985306D01*
X6313299Y-84985299D01*
X5900004Y-84709102D01*
X5729470Y-84625021D01*
X5454200Y-84489300D01*
X5309308Y-84440110D01*
X4983504Y-84329501D01*
X4983500Y-84329500D01*
X4496003Y-84232500D01*
X4496007Y-84232500D01*
X4000000Y-84200000D01*
X3503994Y-84232500D01*
X3016499Y-84329500D01*
X3016495Y-84329501D01*
X2545802Y-84489299D01*
X2099995Y-84709102D01*
X1686700Y-84985299D01*
X1686691Y-84985306D01*
X1313000Y-85312999D01*
X1312999Y-85313000D01*
X1217231Y-85422212D01*
X1158231Y-85459639D01*
X1088362Y-85459226D01*
X1029809Y-85421104D01*
X1001160Y-85357378D01*
X1000000Y-85340457D01*
X1000000Y-82899983D01*
X8199500Y-82899983D01*
X8199500Y-85100001D01*
X8199501Y-85100018D01*
X8210000Y-85202796D01*
X8210001Y-85202799D01*
X8261224Y-85357378D01*
X8265186Y-85369334D01*
X8357288Y-85518656D01*
X8481344Y-85642712D01*
X8630666Y-85734814D01*
X8797203Y-85789999D01*
X8899991Y-85800500D01*
X11100008Y-85800499D01*
X11202797Y-85789999D01*
X11369334Y-85734814D01*
X11518656Y-85642712D01*
X11642712Y-85518656D01*
X11734814Y-85369334D01*
X11789999Y-85202797D01*
X11800500Y-85100009D01*
X11800499Y-83882014D01*
X13280000Y-83882014D01*
X13280000Y-84117985D01*
X13310799Y-84351914D01*
X13371870Y-84579837D01*
X13462160Y-84797819D01*
X13462168Y-84797835D01*
X13568194Y-84981475D01*
X14439233Y-84110436D01*
X14454979Y-84189598D01*
X14503978Y-84307890D01*
X14575112Y-84414351D01*
X14665649Y-84504888D01*
X14772110Y-84576022D01*
X14890402Y-84625021D01*
X14969562Y-84640766D01*
X14098523Y-85511804D01*
X14098523Y-85511805D01*
X14282164Y-85617831D01*
X14282180Y-85617839D01*
X14500163Y-85708129D01*
X14500161Y-85708129D01*
X14728085Y-85769200D01*
X14962014Y-85799999D01*
X14962029Y-85800000D01*
X15197971Y-85800000D01*
X15197985Y-85799999D01*
X15431914Y-85769200D01*
X15659837Y-85708129D01*
X15877819Y-85617839D01*
X15877828Y-85617834D01*
X16061475Y-85511804D01*
X15190437Y-84640766D01*
X15269598Y-84625021D01*
X15387890Y-84576022D01*
X15494351Y-84504888D01*
X15584888Y-84414351D01*
X15656022Y-84307890D01*
X15705021Y-84189598D01*
X15720766Y-84110437D01*
X16591804Y-84981475D01*
X16697834Y-84797828D01*
X16697839Y-84797819D01*
X16788129Y-84579837D01*
X16849200Y-84351914D01*
X16879999Y-84117985D01*
X16880000Y-84117971D01*
X16880000Y-83882028D01*
X16879999Y-83882014D01*
X16849200Y-83648085D01*
X16788129Y-83420162D01*
X16709082Y-83229323D01*
X16697836Y-83202175D01*
X16697831Y-83202164D01*
X16687516Y-83184298D01*
X43599500Y-83184298D01*
X43599500Y-84815701D01*
X43602401Y-84852567D01*
X43602402Y-84852573D01*
X43648254Y-85010393D01*
X43648255Y-85010396D01*
X43731917Y-85151862D01*
X43731923Y-85151870D01*
X43848129Y-85268076D01*
X43848133Y-85268079D01*
X43848135Y-85268081D01*
X43989602Y-85351744D01*
X44008994Y-85357378D01*
X44147426Y-85397597D01*
X44147429Y-85397597D01*
X44147431Y-85397598D01*
X44184306Y-85400500D01*
X44184314Y-85400500D01*
X45815686Y-85400500D01*
X45815694Y-85400500D01*
X45852569Y-85397598D01*
X45852571Y-85397597D01*
X45852573Y-85397597D01*
X45894191Y-85385505D01*
X46010398Y-85351744D01*
X46151865Y-85268081D01*
X46268081Y-85151865D01*
X46351744Y-85010398D01*
X46397598Y-84852569D01*
X46400500Y-84815694D01*
X46400500Y-83889778D01*
X47409500Y-83889778D01*
X47409500Y-84110222D01*
X47425666Y-84212292D01*
X47443985Y-84327952D01*
X47512103Y-84537603D01*
X47512104Y-84537606D01*
X47569373Y-84650000D01*
X47599487Y-84709102D01*
X47612187Y-84734025D01*
X47741752Y-84912358D01*
X47741756Y-84912363D01*
X47897636Y-85068243D01*
X47897641Y-85068247D01*
X47941368Y-85100016D01*
X48075978Y-85197815D01*
X48204375Y-85263237D01*
X48272393Y-85297895D01*
X48272396Y-85297896D01*
X48318883Y-85313000D01*
X48482049Y-85366015D01*
X48699778Y-85400500D01*
X48699779Y-85400500D01*
X48920221Y-85400500D01*
X48920222Y-85400500D01*
X49137951Y-85366015D01*
X49347606Y-85297895D01*
X49544022Y-85197815D01*
X49722365Y-85068242D01*
X49878242Y-84912365D01*
X50007815Y-84734022D01*
X50107895Y-84537606D01*
X50176015Y-84327951D01*
X50210500Y-84110222D01*
X50210500Y-83889778D01*
X51219500Y-83889778D01*
X51219500Y-84110222D01*
X51235666Y-84212292D01*
X51253985Y-84327952D01*
X51322103Y-84537603D01*
X51322104Y-84537606D01*
X51379373Y-84650000D01*
X51409487Y-84709102D01*
X51422187Y-84734025D01*
X51551752Y-84912358D01*
X51551756Y-84912363D01*
X51707636Y-85068243D01*
X51707641Y-85068247D01*
X51751368Y-85100016D01*
X51885978Y-85197815D01*
X52014375Y-85263237D01*
X52082393Y-85297895D01*
X52082396Y-85297896D01*
X52128883Y-85313000D01*
X52292049Y-85366015D01*
X52509778Y-85400500D01*
X52509779Y-85400500D01*
X52730221Y-85400500D01*
X52730222Y-85400500D01*
X52947951Y-85366015D01*
X53157606Y-85297895D01*
X53354022Y-85197815D01*
X53532365Y-85068242D01*
X53688242Y-84912365D01*
X53817815Y-84734022D01*
X53917895Y-84537606D01*
X53986015Y-84327951D01*
X54020500Y-84110222D01*
X54020500Y-83889778D01*
X55029500Y-83889778D01*
X55029500Y-84110222D01*
X55045666Y-84212292D01*
X55063985Y-84327952D01*
X55132103Y-84537603D01*
X55132104Y-84537606D01*
X55189373Y-84650000D01*
X55219487Y-84709102D01*
X55232187Y-84734025D01*
X55361752Y-84912358D01*
X55361756Y-84912363D01*
X55517636Y-85068243D01*
X55517641Y-85068247D01*
X55561368Y-85100016D01*
X55695978Y-85197815D01*
X55824375Y-85263237D01*
X55892393Y-85297895D01*
X55892396Y-85297896D01*
X55938883Y-85313000D01*
X56102049Y-85366015D01*
X56319778Y-85400500D01*
X56319779Y-85400500D01*
X56540221Y-85400500D01*
X56540222Y-85400500D01*
X56757951Y-85366015D01*
X56967606Y-85297895D01*
X57164022Y-85197815D01*
X57195372Y-85175037D01*
X57228558Y-85150928D01*
X57342358Y-85068247D01*
X57342356Y-85068247D01*
X57342365Y-85068242D01*
X57498242Y-84912365D01*
X57627815Y-84734022D01*
X57727895Y-84537606D01*
X57796015Y-84327951D01*
X57830500Y-84110222D01*
X57830500Y-83889778D01*
X57829260Y-83881947D01*
X58740000Y-83881947D01*
X58740000Y-84118052D01*
X58776934Y-84351247D01*
X58849897Y-84575802D01*
X58945748Y-84763920D01*
X59690000Y-84019669D01*
X59690000Y-84072409D01*
X59727482Y-84212292D01*
X59799890Y-84337708D01*
X59902292Y-84440110D01*
X60027708Y-84512518D01*
X60167591Y-84550000D01*
X60220330Y-84550000D01*
X59476078Y-85294250D01*
X59664197Y-85390102D01*
X59888752Y-85463065D01*
X59888751Y-85463065D01*
X60121948Y-85500000D01*
X60358052Y-85500000D01*
X60591247Y-85463065D01*
X60815802Y-85390102D01*
X61003920Y-85294250D01*
X60259670Y-84550000D01*
X60312409Y-84550000D01*
X60452292Y-84512518D01*
X60577708Y-84440110D01*
X60680110Y-84337708D01*
X60752518Y-84212292D01*
X60790000Y-84072409D01*
X60790000Y-84019670D01*
X61534250Y-84763920D01*
X61630102Y-84575802D01*
X61703065Y-84351247D01*
X61740000Y-84118052D01*
X61740000Y-83881947D01*
X62550000Y-83881947D01*
X62550000Y-84118052D01*
X62586934Y-84351247D01*
X62659897Y-84575802D01*
X62755748Y-84763920D01*
X63500000Y-84019669D01*
X63500000Y-84072409D01*
X63537482Y-84212292D01*
X63609890Y-84337708D01*
X63712292Y-84440110D01*
X63837708Y-84512518D01*
X63977591Y-84550000D01*
X64030330Y-84550000D01*
X63286078Y-85294250D01*
X63474197Y-85390102D01*
X63698752Y-85463065D01*
X63698751Y-85463065D01*
X63931948Y-85500000D01*
X64168052Y-85500000D01*
X64401247Y-85463065D01*
X64625802Y-85390102D01*
X64813920Y-85294250D01*
X64069670Y-84550000D01*
X64122409Y-84550000D01*
X64262292Y-84512518D01*
X64387708Y-84440110D01*
X64490110Y-84337708D01*
X64562518Y-84212292D01*
X64600000Y-84072409D01*
X64600000Y-84019670D01*
X65344250Y-84763920D01*
X65440102Y-84575802D01*
X65513065Y-84351247D01*
X65550000Y-84118052D01*
X65550000Y-83881947D01*
X65513065Y-83648752D01*
X65440102Y-83424197D01*
X65344250Y-83236078D01*
X64600000Y-83980328D01*
X64600000Y-83927591D01*
X64562518Y-83787708D01*
X64490110Y-83662292D01*
X64387708Y-83559890D01*
X64262292Y-83487482D01*
X64122409Y-83450000D01*
X64069671Y-83450000D01*
X64813920Y-82705748D01*
X64625802Y-82609897D01*
X64401247Y-82536934D01*
X64401248Y-82536934D01*
X64168052Y-82500000D01*
X63931948Y-82500000D01*
X63698752Y-82536934D01*
X63474194Y-82609898D01*
X63286078Y-82705747D01*
X63286077Y-82705747D01*
X64030330Y-83450000D01*
X63977591Y-83450000D01*
X63837708Y-83487482D01*
X63712292Y-83559890D01*
X63609890Y-83662292D01*
X63537482Y-83787708D01*
X63500000Y-83927591D01*
X63500000Y-83980330D01*
X62755747Y-83236077D01*
X62755747Y-83236078D01*
X62659898Y-83424194D01*
X62586934Y-83648752D01*
X62550000Y-83881947D01*
X61740000Y-83881947D01*
X61703065Y-83648752D01*
X61630102Y-83424197D01*
X61534250Y-83236078D01*
X60790000Y-83980328D01*
X60790000Y-83927591D01*
X60752518Y-83787708D01*
X60680110Y-83662292D01*
X60577708Y-83559890D01*
X60452292Y-83487482D01*
X60312409Y-83450000D01*
X60259671Y-83450000D01*
X61003920Y-82705748D01*
X60815802Y-82609897D01*
X60591247Y-82536934D01*
X60591248Y-82536934D01*
X60358052Y-82500000D01*
X60121948Y-82500000D01*
X59888752Y-82536934D01*
X59664194Y-82609898D01*
X59476078Y-82705747D01*
X59476077Y-82705747D01*
X60220330Y-83450000D01*
X60167591Y-83450000D01*
X60027708Y-83487482D01*
X59902292Y-83559890D01*
X59799890Y-83662292D01*
X59727482Y-83787708D01*
X59690000Y-83927591D01*
X59690000Y-83980330D01*
X58945747Y-83236077D01*
X58945747Y-83236078D01*
X58849898Y-83424194D01*
X58776934Y-83648752D01*
X58740000Y-83881947D01*
X57829260Y-83881947D01*
X57796015Y-83672049D01*
X57738526Y-83495112D01*
X57727896Y-83462396D01*
X57727895Y-83462393D01*
X57683354Y-83374979D01*
X57627815Y-83265978D01*
X57601184Y-83229323D01*
X57498247Y-83087641D01*
X57498243Y-83087636D01*
X57342363Y-82931756D01*
X57342358Y-82931752D01*
X57228580Y-82849087D01*
X57228557Y-82849072D01*
X57164021Y-82802184D01*
X56967606Y-82702104D01*
X56967603Y-82702103D01*
X56757952Y-82633985D01*
X56605872Y-82609898D01*
X56540222Y-82599500D01*
X56319778Y-82599500D01*
X56301456Y-82602402D01*
X56102047Y-82633985D01*
X55892396Y-82702103D01*
X55892393Y-82702104D01*
X55695974Y-82802187D01*
X55517641Y-82931752D01*
X55517636Y-82931756D01*
X55361756Y-83087636D01*
X55361752Y-83087641D01*
X55232187Y-83265974D01*
X55132104Y-83462393D01*
X55132103Y-83462396D01*
X55063985Y-83672047D01*
X55045666Y-83787708D01*
X55029500Y-83889778D01*
X54020500Y-83889778D01*
X53986015Y-83672049D01*
X53928526Y-83495112D01*
X53917896Y-83462396D01*
X53917895Y-83462393D01*
X53873354Y-83374979D01*
X53817815Y-83265978D01*
X53791184Y-83229323D01*
X53688247Y-83087641D01*
X53688243Y-83087636D01*
X53532363Y-82931756D01*
X53532358Y-82931752D01*
X53354025Y-82802187D01*
X53354024Y-82802186D01*
X53354022Y-82802185D01*
X53291096Y-82770122D01*
X53157606Y-82702104D01*
X53157603Y-82702103D01*
X52947952Y-82633985D01*
X52795872Y-82609898D01*
X52730222Y-82599500D01*
X52509778Y-82599500D01*
X52491456Y-82602402D01*
X52292047Y-82633985D01*
X52082396Y-82702103D01*
X52082393Y-82702104D01*
X51885974Y-82802187D01*
X51707641Y-82931752D01*
X51707636Y-82931756D01*
X51551756Y-83087636D01*
X51551752Y-83087641D01*
X51422187Y-83265974D01*
X51322104Y-83462393D01*
X51322103Y-83462396D01*
X51253985Y-83672047D01*
X51235666Y-83787708D01*
X51219500Y-83889778D01*
X50210500Y-83889778D01*
X50176015Y-83672049D01*
X50118526Y-83495112D01*
X50107896Y-83462396D01*
X50107895Y-83462393D01*
X50063354Y-83374979D01*
X50007815Y-83265978D01*
X49981184Y-83229323D01*
X49878247Y-83087641D01*
X49878243Y-83087636D01*
X49722363Y-82931756D01*
X49722358Y-82931752D01*
X49544025Y-82802187D01*
X49544024Y-82802186D01*
X49544022Y-82802185D01*
X49481096Y-82770122D01*
X49347606Y-82702104D01*
X49347603Y-82702103D01*
X49137952Y-82633985D01*
X48985872Y-82609898D01*
X48920222Y-82599500D01*
X48699778Y-82599500D01*
X48681456Y-82602402D01*
X48482047Y-82633985D01*
X48272396Y-82702103D01*
X48272393Y-82702104D01*
X48075974Y-82802187D01*
X47897641Y-82931752D01*
X47897636Y-82931756D01*
X47741756Y-83087636D01*
X47741752Y-83087641D01*
X47612187Y-83265974D01*
X47512104Y-83462393D01*
X47512103Y-83462396D01*
X47443985Y-83672047D01*
X47425666Y-83787708D01*
X47409500Y-83889778D01*
X46400500Y-83889778D01*
X46400500Y-83184306D01*
X46397598Y-83147431D01*
X46380225Y-83087635D01*
X46351745Y-82989606D01*
X46351744Y-82989603D01*
X46351744Y-82989602D01*
X46268081Y-82848135D01*
X46268079Y-82848133D01*
X46268076Y-82848129D01*
X46151870Y-82731923D01*
X46151862Y-82731917D01*
X46010396Y-82648255D01*
X46010393Y-82648254D01*
X45852573Y-82602402D01*
X45852567Y-82602401D01*
X45815701Y-82599500D01*
X45815694Y-82599500D01*
X44184306Y-82599500D01*
X44184298Y-82599500D01*
X44147432Y-82602401D01*
X44147426Y-82602402D01*
X43989606Y-82648254D01*
X43989603Y-82648255D01*
X43848137Y-82731917D01*
X43848129Y-82731923D01*
X43731923Y-82848129D01*
X43731917Y-82848137D01*
X43648255Y-82989603D01*
X43648254Y-82989606D01*
X43602402Y-83147426D01*
X43602401Y-83147432D01*
X43599500Y-83184298D01*
X16687516Y-83184298D01*
X16591805Y-83018523D01*
X16591804Y-83018523D01*
X15720766Y-83889562D01*
X15705021Y-83810402D01*
X15656022Y-83692110D01*
X15584888Y-83585649D01*
X15494351Y-83495112D01*
X15387890Y-83423978D01*
X15269598Y-83374979D01*
X15190437Y-83359233D01*
X16061475Y-82488194D01*
X16061475Y-82488193D01*
X15877835Y-82382168D01*
X15877819Y-82382160D01*
X15659836Y-82291870D01*
X15659838Y-82291870D01*
X15431914Y-82230799D01*
X15197985Y-82200000D01*
X14962014Y-82200000D01*
X14728085Y-82230799D01*
X14500162Y-82291870D01*
X14282183Y-82382159D01*
X14282169Y-82382166D01*
X14098524Y-82488194D01*
X14969563Y-83359233D01*
X14890402Y-83374979D01*
X14772110Y-83423978D01*
X14665649Y-83495112D01*
X14575112Y-83585649D01*
X14503978Y-83692110D01*
X14454979Y-83810402D01*
X14439233Y-83889562D01*
X13568194Y-83018524D01*
X13462166Y-83202169D01*
X13462159Y-83202183D01*
X13371870Y-83420162D01*
X13310799Y-83648085D01*
X13280000Y-83882014D01*
X11800499Y-83882014D01*
X11800499Y-82899992D01*
X11795297Y-82849072D01*
X11789999Y-82797203D01*
X11789998Y-82797200D01*
X11768365Y-82731917D01*
X11734814Y-82630666D01*
X11734810Y-82630660D01*
X11734809Y-82630657D01*
X11714501Y-82597733D01*
X11714500Y-82597732D01*
X11642712Y-82481344D01*
X11518657Y-82357289D01*
X11518656Y-82357288D01*
X11369334Y-82265186D01*
X11202797Y-82210001D01*
X11202795Y-82210000D01*
X11100010Y-82199500D01*
X8899998Y-82199500D01*
X8899981Y-82199501D01*
X8797203Y-82210000D01*
X8797200Y-82210001D01*
X8630668Y-82265185D01*
X8630663Y-82265187D01*
X8481342Y-82357289D01*
X8357289Y-82481342D01*
X8265187Y-82630663D01*
X8265185Y-82630668D01*
X8259357Y-82648256D01*
X8210001Y-82797203D01*
X8210001Y-82797204D01*
X8210000Y-82797204D01*
X8199500Y-82899983D01*
X1000000Y-82899983D01*
X1000000Y-39124000D01*
X1019685Y-39056961D01*
X1072489Y-39011206D01*
X1124000Y-39000000D01*
X68876000Y-39000000D01*
X68943039Y-39019685D01*
G37*
%TD.AperFunction*%
%TD*%
%TA.AperFunction,Conductor*%
%TO.N,PICO_GND*%
G36*
X63407496Y-1019685D02*
G01*
X63453251Y-1072489D01*
X63463195Y-1141647D01*
X63434170Y-1205203D01*
X63422212Y-1217231D01*
X63313000Y-1312999D01*
X63312999Y-1313000D01*
X62985306Y-1686691D01*
X62985299Y-1686700D01*
X62709102Y-2099995D01*
X62489299Y-2545802D01*
X62329501Y-3016495D01*
X62329500Y-3016499D01*
X62232500Y-3503994D01*
X62200000Y-4000000D01*
X62232500Y-4496005D01*
X62329500Y-4983500D01*
X62329501Y-4983504D01*
X62357449Y-5065826D01*
X62489300Y-5454200D01*
X62699134Y-5879786D01*
X62709102Y-5900004D01*
X62985299Y-6313299D01*
X62985306Y-6313308D01*
X63312999Y-6686999D01*
X63313000Y-6687000D01*
X63686691Y-7014693D01*
X63686700Y-7014700D01*
X64099995Y-7290897D01*
X64099996Y-7290897D01*
X64100000Y-7290900D01*
X64545800Y-7510700D01*
X65016500Y-7670500D01*
X65503995Y-7767499D01*
X65503996Y-7767499D01*
X65504000Y-7767500D01*
X66000000Y-7800000D01*
X66496000Y-7767500D01*
X66983500Y-7670500D01*
X67454200Y-7510700D01*
X67900000Y-7290900D01*
X68313300Y-7014700D01*
X68687000Y-6687000D01*
X68782771Y-6577784D01*
X68841769Y-6540361D01*
X68911637Y-6540773D01*
X68970191Y-6578894D01*
X68998840Y-6642620D01*
X69000000Y-6659542D01*
X69000000Y-33876000D01*
X68980315Y-33943039D01*
X68927511Y-33988794D01*
X68876000Y-34000000D01*
X1124000Y-34000000D01*
X1056961Y-33980315D01*
X1011206Y-33927511D01*
X1000000Y-33876000D01*
X1000000Y-21882135D01*
X9519500Y-21882135D01*
X9519500Y-23677870D01*
X9519501Y-23677876D01*
X9525908Y-23737483D01*
X9576202Y-23872328D01*
X9576206Y-23872335D01*
X9662452Y-23987544D01*
X9662455Y-23987547D01*
X9777664Y-24073793D01*
X9777671Y-24073797D01*
X9912517Y-24124091D01*
X9912516Y-24124091D01*
X9919444Y-24124835D01*
X9972127Y-24130500D01*
X11767872Y-24130499D01*
X11827483Y-24124091D01*
X11962331Y-24073796D01*
X12077546Y-23987546D01*
X12163796Y-23872331D01*
X12212810Y-23740916D01*
X12254681Y-23684984D01*
X12320145Y-23660566D01*
X12388418Y-23675417D01*
X12416673Y-23696569D01*
X12530213Y-23810109D01*
X12702179Y-23935048D01*
X12702181Y-23935049D01*
X12702184Y-23935051D01*
X12891588Y-24031557D01*
X13093757Y-24097246D01*
X13303713Y-24130500D01*
X13303714Y-24130500D01*
X13516286Y-24130500D01*
X13516287Y-24130500D01*
X13726243Y-24097246D01*
X13928412Y-24031557D01*
X14063501Y-23962726D01*
X15297602Y-23962726D01*
X15431779Y-24031094D01*
X15431782Y-24031095D01*
X15633871Y-24096757D01*
X15843754Y-24130000D01*
X16056246Y-24130000D01*
X16266127Y-24096757D01*
X16266130Y-24096757D01*
X16468217Y-24031095D01*
X16602397Y-23962726D01*
X15950001Y-23310330D01*
X15950000Y-23310330D01*
X15297602Y-23962726D01*
X14063501Y-23962726D01*
X14117816Y-23935051D01*
X14204138Y-23872335D01*
X14276993Y-23819404D01*
X14289785Y-23810109D01*
X14289783Y-23810109D01*
X14289792Y-23810104D01*
X14440104Y-23659792D01*
X14440106Y-23659788D01*
X14440109Y-23659786D01*
X14565048Y-23487820D01*
X14565050Y-23487817D01*
X14565051Y-23487816D01*
X14569795Y-23478504D01*
X14617769Y-23427709D01*
X14685590Y-23410914D01*
X14732444Y-23426880D01*
X14767272Y-23432397D01*
X15419670Y-22780000D01*
X15353844Y-22714174D01*
X15450000Y-22714174D01*
X15450000Y-22845826D01*
X15484075Y-22972993D01*
X15549901Y-23087007D01*
X15642993Y-23180099D01*
X15757007Y-23245925D01*
X15884174Y-23280000D01*
X16015826Y-23280000D01*
X16142993Y-23245925D01*
X16257007Y-23180099D01*
X16350099Y-23087007D01*
X16415925Y-22972993D01*
X16450000Y-22845826D01*
X16450000Y-22779999D01*
X16480330Y-22779999D01*
X16480330Y-22780000D01*
X17132727Y-23432397D01*
X17156303Y-23428663D01*
X17157204Y-23427710D01*
X17225024Y-23410912D01*
X17291160Y-23433446D01*
X17330204Y-23478504D01*
X17334949Y-23487817D01*
X17459890Y-23659786D01*
X17610213Y-23810109D01*
X17782179Y-23935048D01*
X17782181Y-23935049D01*
X17782184Y-23935051D01*
X17971588Y-24031557D01*
X18173757Y-24097246D01*
X18383713Y-24130500D01*
X18383714Y-24130500D01*
X18596286Y-24130500D01*
X18596287Y-24130500D01*
X18806243Y-24097246D01*
X19008412Y-24031557D01*
X19197816Y-23935051D01*
X19284138Y-23872335D01*
X19369786Y-23810109D01*
X19369788Y-23810106D01*
X19369792Y-23810104D01*
X19520104Y-23659792D01*
X19520106Y-23659788D01*
X19520109Y-23659786D01*
X19645048Y-23487820D01*
X19645050Y-23487817D01*
X19645051Y-23487816D01*
X19649514Y-23479054D01*
X19697488Y-23428259D01*
X19765308Y-23411463D01*
X19831444Y-23433999D01*
X19870486Y-23479056D01*
X19874951Y-23487820D01*
X19999890Y-23659786D01*
X20150213Y-23810109D01*
X20322179Y-23935048D01*
X20322181Y-23935049D01*
X20322184Y-23935051D01*
X20511588Y-24031557D01*
X20713757Y-24097246D01*
X20923713Y-24130500D01*
X20923714Y-24130500D01*
X21136286Y-24130500D01*
X21136287Y-24130500D01*
X21346243Y-24097246D01*
X21548412Y-24031557D01*
X21737816Y-23935051D01*
X21824138Y-23872335D01*
X21909786Y-23810109D01*
X21909788Y-23810106D01*
X21909792Y-23810104D01*
X22060104Y-23659792D01*
X22060106Y-23659788D01*
X22060109Y-23659786D01*
X22185048Y-23487820D01*
X22185050Y-23487817D01*
X22185051Y-23487816D01*
X22189514Y-23479054D01*
X22237488Y-23428259D01*
X22305308Y-23411463D01*
X22371444Y-23433999D01*
X22410486Y-23479056D01*
X22414951Y-23487820D01*
X22539890Y-23659786D01*
X22690213Y-23810109D01*
X22862179Y-23935048D01*
X22862181Y-23935049D01*
X22862184Y-23935051D01*
X23051588Y-24031557D01*
X23253757Y-24097246D01*
X23463713Y-24130500D01*
X23463714Y-24130500D01*
X23676286Y-24130500D01*
X23676287Y-24130500D01*
X23886243Y-24097246D01*
X24088412Y-24031557D01*
X24277816Y-23935051D01*
X24364138Y-23872335D01*
X24449786Y-23810109D01*
X24449788Y-23810106D01*
X24449792Y-23810104D01*
X24600104Y-23659792D01*
X24600106Y-23659788D01*
X24600109Y-23659786D01*
X24725048Y-23487820D01*
X24725050Y-23487817D01*
X24725051Y-23487816D01*
X24729514Y-23479054D01*
X24777488Y-23428259D01*
X24845308Y-23411463D01*
X24911444Y-23433999D01*
X24950486Y-23479056D01*
X24954951Y-23487820D01*
X25079890Y-23659786D01*
X25230213Y-23810109D01*
X25402179Y-23935048D01*
X25402181Y-23935049D01*
X25402184Y-23935051D01*
X25591588Y-24031557D01*
X25793757Y-24097246D01*
X26003713Y-24130500D01*
X26003714Y-24130500D01*
X26216286Y-24130500D01*
X26216287Y-24130500D01*
X26426243Y-24097246D01*
X26628412Y-24031557D01*
X26763501Y-23962726D01*
X27997602Y-23962726D01*
X28131779Y-24031094D01*
X28131782Y-24031095D01*
X28333871Y-24096757D01*
X28543754Y-24130000D01*
X28756246Y-24130000D01*
X28966127Y-24096757D01*
X28966130Y-24096757D01*
X29168217Y-24031095D01*
X29302397Y-23962726D01*
X28650001Y-23310330D01*
X28650000Y-23310330D01*
X27997602Y-23962726D01*
X26763501Y-23962726D01*
X26817816Y-23935051D01*
X26904138Y-23872335D01*
X26976993Y-23819404D01*
X26989785Y-23810109D01*
X26989783Y-23810109D01*
X26989792Y-23810104D01*
X27140104Y-23659792D01*
X27140106Y-23659788D01*
X27140109Y-23659786D01*
X27265048Y-23487820D01*
X27265050Y-23487817D01*
X27265051Y-23487816D01*
X27269795Y-23478504D01*
X27317769Y-23427709D01*
X27385590Y-23410914D01*
X27432444Y-23426880D01*
X27467272Y-23432397D01*
X28119670Y-22780000D01*
X28053844Y-22714174D01*
X28150000Y-22714174D01*
X28150000Y-22845826D01*
X28184075Y-22972993D01*
X28249901Y-23087007D01*
X28342993Y-23180099D01*
X28457007Y-23245925D01*
X28584174Y-23280000D01*
X28715826Y-23280000D01*
X28842993Y-23245925D01*
X28957007Y-23180099D01*
X29050099Y-23087007D01*
X29115925Y-22972993D01*
X29150000Y-22845826D01*
X29150000Y-22779999D01*
X29180330Y-22779999D01*
X29180330Y-22780000D01*
X29832727Y-23432397D01*
X29856303Y-23428663D01*
X29857204Y-23427710D01*
X29925024Y-23410912D01*
X29991160Y-23433446D01*
X30030204Y-23478504D01*
X30034949Y-23487817D01*
X30159890Y-23659786D01*
X30310213Y-23810109D01*
X30482179Y-23935048D01*
X30482181Y-23935049D01*
X30482184Y-23935051D01*
X30671588Y-24031557D01*
X30873757Y-24097246D01*
X31083713Y-24130500D01*
X31083714Y-24130500D01*
X31296286Y-24130500D01*
X31296287Y-24130500D01*
X31506243Y-24097246D01*
X31708412Y-24031557D01*
X31897816Y-23935051D01*
X31984138Y-23872335D01*
X32069786Y-23810109D01*
X32069788Y-23810106D01*
X32069792Y-23810104D01*
X32220104Y-23659792D01*
X32220106Y-23659788D01*
X32220109Y-23659786D01*
X32345048Y-23487820D01*
X32345050Y-23487817D01*
X32345051Y-23487816D01*
X32349514Y-23479054D01*
X32397488Y-23428259D01*
X32465308Y-23411463D01*
X32531444Y-23433999D01*
X32570486Y-23479056D01*
X32574951Y-23487820D01*
X32699890Y-23659786D01*
X32850213Y-23810109D01*
X33022179Y-23935048D01*
X33022181Y-23935049D01*
X33022184Y-23935051D01*
X33211588Y-24031557D01*
X33413757Y-24097246D01*
X33623713Y-24130500D01*
X33623714Y-24130500D01*
X33836286Y-24130500D01*
X33836287Y-24130500D01*
X34046243Y-24097246D01*
X34248412Y-24031557D01*
X34437816Y-23935051D01*
X34524138Y-23872335D01*
X34609786Y-23810109D01*
X34609788Y-23810106D01*
X34609792Y-23810104D01*
X34760104Y-23659792D01*
X34760106Y-23659788D01*
X34760109Y-23659786D01*
X34885048Y-23487820D01*
X34885050Y-23487817D01*
X34885051Y-23487816D01*
X34889514Y-23479054D01*
X34937488Y-23428259D01*
X35005308Y-23411463D01*
X35071444Y-23433999D01*
X35110486Y-23479056D01*
X35114951Y-23487820D01*
X35239890Y-23659786D01*
X35390213Y-23810109D01*
X35562179Y-23935048D01*
X35562181Y-23935049D01*
X35562184Y-23935051D01*
X35751588Y-24031557D01*
X35953757Y-24097246D01*
X36163713Y-24130500D01*
X36163714Y-24130500D01*
X36376286Y-24130500D01*
X36376287Y-24130500D01*
X36586243Y-24097246D01*
X36788412Y-24031557D01*
X36977816Y-23935051D01*
X37064138Y-23872335D01*
X37149786Y-23810109D01*
X37149788Y-23810106D01*
X37149792Y-23810104D01*
X37300104Y-23659792D01*
X37300106Y-23659788D01*
X37300109Y-23659786D01*
X37425048Y-23487820D01*
X37425050Y-23487817D01*
X37425051Y-23487816D01*
X37429514Y-23479054D01*
X37477488Y-23428259D01*
X37545308Y-23411463D01*
X37611444Y-23433999D01*
X37650486Y-23479056D01*
X37654951Y-23487820D01*
X37779890Y-23659786D01*
X37930213Y-23810109D01*
X38102179Y-23935048D01*
X38102181Y-23935049D01*
X38102184Y-23935051D01*
X38291588Y-24031557D01*
X38493757Y-24097246D01*
X38703713Y-24130500D01*
X38703714Y-24130500D01*
X38916286Y-24130500D01*
X38916287Y-24130500D01*
X39126243Y-24097246D01*
X39328412Y-24031557D01*
X39463501Y-23962726D01*
X40697602Y-23962726D01*
X40831779Y-24031094D01*
X40831782Y-24031095D01*
X41033871Y-24096757D01*
X41243754Y-24130000D01*
X41456246Y-24130000D01*
X41666127Y-24096757D01*
X41666130Y-24096757D01*
X41868217Y-24031095D01*
X42002397Y-23962726D01*
X41350001Y-23310330D01*
X41350000Y-23310330D01*
X40697602Y-23962726D01*
X39463501Y-23962726D01*
X39517816Y-23935051D01*
X39604138Y-23872335D01*
X39676993Y-23819404D01*
X39689785Y-23810109D01*
X39689783Y-23810109D01*
X39689792Y-23810104D01*
X39840104Y-23659792D01*
X39840106Y-23659788D01*
X39840109Y-23659786D01*
X39965048Y-23487820D01*
X39965050Y-23487817D01*
X39965051Y-23487816D01*
X39969795Y-23478504D01*
X40017769Y-23427709D01*
X40085590Y-23410914D01*
X40132444Y-23426880D01*
X40167272Y-23432397D01*
X40819670Y-22780000D01*
X40753844Y-22714174D01*
X40850000Y-22714174D01*
X40850000Y-22845826D01*
X40884075Y-22972993D01*
X40949901Y-23087007D01*
X41042993Y-23180099D01*
X41157007Y-23245925D01*
X41284174Y-23280000D01*
X41415826Y-23280000D01*
X41542993Y-23245925D01*
X41657007Y-23180099D01*
X41750099Y-23087007D01*
X41815925Y-22972993D01*
X41850000Y-22845826D01*
X41850000Y-22779999D01*
X41880330Y-22779999D01*
X41880330Y-22780000D01*
X42532727Y-23432397D01*
X42556303Y-23428663D01*
X42557204Y-23427710D01*
X42625024Y-23410912D01*
X42691160Y-23433446D01*
X42730204Y-23478504D01*
X42734949Y-23487817D01*
X42859890Y-23659786D01*
X43010213Y-23810109D01*
X43182179Y-23935048D01*
X43182181Y-23935049D01*
X43182184Y-23935051D01*
X43371588Y-24031557D01*
X43573757Y-24097246D01*
X43783713Y-24130500D01*
X43783714Y-24130500D01*
X43996286Y-24130500D01*
X43996287Y-24130500D01*
X44206243Y-24097246D01*
X44408412Y-24031557D01*
X44597816Y-23935051D01*
X44684138Y-23872335D01*
X44769786Y-23810109D01*
X44769788Y-23810106D01*
X44769792Y-23810104D01*
X44920104Y-23659792D01*
X44920106Y-23659788D01*
X44920109Y-23659786D01*
X45045048Y-23487820D01*
X45045050Y-23487817D01*
X45045051Y-23487816D01*
X45049514Y-23479054D01*
X45097488Y-23428259D01*
X45165308Y-23411463D01*
X45231444Y-23433999D01*
X45270486Y-23479056D01*
X45274951Y-23487820D01*
X45399890Y-23659786D01*
X45550213Y-23810109D01*
X45722179Y-23935048D01*
X45722181Y-23935049D01*
X45722184Y-23935051D01*
X45911588Y-24031557D01*
X46113757Y-24097246D01*
X46323713Y-24130500D01*
X46323714Y-24130500D01*
X46536286Y-24130500D01*
X46536287Y-24130500D01*
X46746243Y-24097246D01*
X46948412Y-24031557D01*
X47137816Y-23935051D01*
X47224138Y-23872335D01*
X47309786Y-23810109D01*
X47309788Y-23810106D01*
X47309792Y-23810104D01*
X47460104Y-23659792D01*
X47460106Y-23659788D01*
X47460109Y-23659786D01*
X47585048Y-23487820D01*
X47585050Y-23487817D01*
X47585051Y-23487816D01*
X47589514Y-23479054D01*
X47637488Y-23428259D01*
X47705308Y-23411463D01*
X47771444Y-23433999D01*
X47810486Y-23479056D01*
X47814951Y-23487820D01*
X47939890Y-23659786D01*
X48090213Y-23810109D01*
X48262179Y-23935048D01*
X48262181Y-23935049D01*
X48262184Y-23935051D01*
X48451588Y-24031557D01*
X48653757Y-24097246D01*
X48863713Y-24130500D01*
X48863714Y-24130500D01*
X49076286Y-24130500D01*
X49076287Y-24130500D01*
X49286243Y-24097246D01*
X49488412Y-24031557D01*
X49677816Y-23935051D01*
X49764138Y-23872335D01*
X49849786Y-23810109D01*
X49849788Y-23810106D01*
X49849792Y-23810104D01*
X50000104Y-23659792D01*
X50000106Y-23659788D01*
X50000109Y-23659786D01*
X50125048Y-23487820D01*
X50125050Y-23487817D01*
X50125051Y-23487816D01*
X50129514Y-23479054D01*
X50177488Y-23428259D01*
X50245308Y-23411463D01*
X50311444Y-23433999D01*
X50350486Y-23479056D01*
X50354951Y-23487820D01*
X50479890Y-23659786D01*
X50630213Y-23810109D01*
X50802179Y-23935048D01*
X50802181Y-23935049D01*
X50802184Y-23935051D01*
X50991588Y-24031557D01*
X51193757Y-24097246D01*
X51403713Y-24130500D01*
X51403714Y-24130500D01*
X51616286Y-24130500D01*
X51616287Y-24130500D01*
X51826243Y-24097246D01*
X52028412Y-24031557D01*
X52163501Y-23962726D01*
X53397602Y-23962726D01*
X53531779Y-24031094D01*
X53531782Y-24031095D01*
X53733871Y-24096757D01*
X53943754Y-24130000D01*
X54156246Y-24130000D01*
X54366127Y-24096757D01*
X54366130Y-24096757D01*
X54568217Y-24031095D01*
X54702397Y-23962726D01*
X54050001Y-23310330D01*
X54050000Y-23310330D01*
X53397602Y-23962726D01*
X52163501Y-23962726D01*
X52217816Y-23935051D01*
X52304138Y-23872335D01*
X52376993Y-23819404D01*
X52389785Y-23810109D01*
X52389783Y-23810109D01*
X52389792Y-23810104D01*
X52540104Y-23659792D01*
X52540106Y-23659788D01*
X52540109Y-23659786D01*
X52665048Y-23487820D01*
X52665050Y-23487817D01*
X52665051Y-23487816D01*
X52669795Y-23478504D01*
X52717769Y-23427709D01*
X52785590Y-23410914D01*
X52832444Y-23426880D01*
X52867272Y-23432397D01*
X53519670Y-22780000D01*
X53453844Y-22714174D01*
X53550000Y-22714174D01*
X53550000Y-22845826D01*
X53584075Y-22972993D01*
X53649901Y-23087007D01*
X53742993Y-23180099D01*
X53857007Y-23245925D01*
X53984174Y-23280000D01*
X54115826Y-23280000D01*
X54242993Y-23245925D01*
X54357007Y-23180099D01*
X54450099Y-23087007D01*
X54515925Y-22972993D01*
X54550000Y-22845826D01*
X54550000Y-22779999D01*
X54580330Y-22779999D01*
X54580330Y-22780000D01*
X55232727Y-23432397D01*
X55256303Y-23428663D01*
X55257204Y-23427710D01*
X55325024Y-23410912D01*
X55391160Y-23433446D01*
X55430204Y-23478504D01*
X55434949Y-23487817D01*
X55559890Y-23659786D01*
X55710213Y-23810109D01*
X55882179Y-23935048D01*
X55882181Y-23935049D01*
X55882184Y-23935051D01*
X56071588Y-24031557D01*
X56273757Y-24097246D01*
X56483713Y-24130500D01*
X56483714Y-24130500D01*
X56696286Y-24130500D01*
X56696287Y-24130500D01*
X56906243Y-24097246D01*
X57108412Y-24031557D01*
X57297816Y-23935051D01*
X57384138Y-23872335D01*
X57469786Y-23810109D01*
X57469788Y-23810106D01*
X57469792Y-23810104D01*
X57620104Y-23659792D01*
X57620106Y-23659788D01*
X57620109Y-23659786D01*
X57745048Y-23487820D01*
X57745050Y-23487817D01*
X57745051Y-23487816D01*
X57749514Y-23479054D01*
X57797488Y-23428259D01*
X57865308Y-23411463D01*
X57931444Y-23433999D01*
X57970486Y-23479056D01*
X57974951Y-23487820D01*
X58099890Y-23659786D01*
X58250213Y-23810109D01*
X58422179Y-23935048D01*
X58422181Y-23935049D01*
X58422184Y-23935051D01*
X58611588Y-24031557D01*
X58813757Y-24097246D01*
X59023713Y-24130500D01*
X59023714Y-24130500D01*
X59236286Y-24130500D01*
X59236287Y-24130500D01*
X59446243Y-24097246D01*
X59648412Y-24031557D01*
X59837816Y-23935051D01*
X59924138Y-23872335D01*
X60009786Y-23810109D01*
X60009788Y-23810106D01*
X60009792Y-23810104D01*
X60160104Y-23659792D01*
X60160106Y-23659788D01*
X60160109Y-23659786D01*
X60285048Y-23487820D01*
X60285050Y-23487817D01*
X60285051Y-23487816D01*
X60381557Y-23298412D01*
X60447246Y-23096243D01*
X60480500Y-22886287D01*
X60480500Y-22673713D01*
X60447246Y-22463757D01*
X60381557Y-22261588D01*
X60285051Y-22072184D01*
X60285049Y-22072181D01*
X60285048Y-22072179D01*
X60160109Y-21900213D01*
X60009786Y-21749890D01*
X59837820Y-21624951D01*
X59648414Y-21528444D01*
X59648413Y-21528443D01*
X59648412Y-21528443D01*
X59446243Y-21462754D01*
X59446241Y-21462753D01*
X59446240Y-21462753D01*
X59284957Y-21437208D01*
X59236287Y-21429500D01*
X59023713Y-21429500D01*
X58975042Y-21437208D01*
X58813760Y-21462753D01*
X58611585Y-21528444D01*
X58422179Y-21624951D01*
X58250213Y-21749890D01*
X58099890Y-21900213D01*
X57974949Y-22072182D01*
X57970484Y-22080946D01*
X57922509Y-22131742D01*
X57854688Y-22148536D01*
X57788553Y-22125998D01*
X57749516Y-22080946D01*
X57745050Y-22072182D01*
X57620109Y-21900213D01*
X57469786Y-21749890D01*
X57297820Y-21624951D01*
X57108414Y-21528444D01*
X57108413Y-21528443D01*
X57108412Y-21528443D01*
X56906243Y-21462754D01*
X56906241Y-21462753D01*
X56906240Y-21462753D01*
X56744957Y-21437208D01*
X56696287Y-21429500D01*
X56483713Y-21429500D01*
X56435042Y-21437208D01*
X56273760Y-21462753D01*
X56071585Y-21528444D01*
X55882179Y-21624951D01*
X55710213Y-21749890D01*
X55559890Y-21900213D01*
X55434950Y-22072181D01*
X55430201Y-22081501D01*
X55382223Y-22132294D01*
X55314402Y-22149086D01*
X55267548Y-22133116D01*
X55232727Y-22127601D01*
X54580330Y-22779999D01*
X54550000Y-22779999D01*
X54550000Y-22714174D01*
X54515925Y-22587007D01*
X54450099Y-22472993D01*
X54357007Y-22379901D01*
X54242993Y-22314075D01*
X54115826Y-22280000D01*
X53984174Y-22280000D01*
X53857007Y-22314075D01*
X53742993Y-22379901D01*
X53649901Y-22472993D01*
X53584075Y-22587007D01*
X53550000Y-22714174D01*
X53453844Y-22714174D01*
X52867271Y-22127601D01*
X52843685Y-22131337D01*
X52842781Y-22132295D01*
X52774959Y-22149085D01*
X52708826Y-22126542D01*
X52669793Y-22081491D01*
X52665051Y-22072184D01*
X52665049Y-22072181D01*
X52665048Y-22072179D01*
X52540109Y-21900213D01*
X52389790Y-21749894D01*
X52389783Y-21749888D01*
X52377021Y-21740616D01*
X52376992Y-21740596D01*
X52217815Y-21624948D01*
X52163495Y-21597271D01*
X53397601Y-21597271D01*
X54050000Y-22249670D01*
X54050001Y-22249670D01*
X54702397Y-21597272D01*
X54568220Y-21528906D01*
X54568217Y-21528904D01*
X54366128Y-21463242D01*
X54156246Y-21430000D01*
X53943754Y-21430000D01*
X53733872Y-21463242D01*
X53733869Y-21463242D01*
X53531781Y-21528905D01*
X53531780Y-21528905D01*
X53397601Y-21597271D01*
X52163495Y-21597271D01*
X52028414Y-21528444D01*
X52028413Y-21528443D01*
X52028412Y-21528443D01*
X51826243Y-21462754D01*
X51826241Y-21462753D01*
X51826240Y-21462753D01*
X51664957Y-21437208D01*
X51616287Y-21429500D01*
X51403713Y-21429500D01*
X51355042Y-21437208D01*
X51193760Y-21462753D01*
X50991585Y-21528444D01*
X50802179Y-21624951D01*
X50630213Y-21749890D01*
X50479890Y-21900213D01*
X50354949Y-22072182D01*
X50350484Y-22080946D01*
X50302509Y-22131742D01*
X50234688Y-22148536D01*
X50168553Y-22125998D01*
X50129516Y-22080946D01*
X50125050Y-22072182D01*
X50000109Y-21900213D01*
X49849786Y-21749890D01*
X49677820Y-21624951D01*
X49488414Y-21528444D01*
X49488413Y-21528443D01*
X49488412Y-21528443D01*
X49286243Y-21462754D01*
X49286241Y-21462753D01*
X49286240Y-21462753D01*
X49124957Y-21437208D01*
X49076287Y-21429500D01*
X48863713Y-21429500D01*
X48815042Y-21437208D01*
X48653760Y-21462753D01*
X48451585Y-21528444D01*
X48262179Y-21624951D01*
X48090213Y-21749890D01*
X47939890Y-21900213D01*
X47814949Y-22072182D01*
X47810484Y-22080946D01*
X47762509Y-22131742D01*
X47694688Y-22148536D01*
X47628553Y-22125998D01*
X47589516Y-22080946D01*
X47585050Y-22072182D01*
X47460109Y-21900213D01*
X47309786Y-21749890D01*
X47137820Y-21624951D01*
X46948414Y-21528444D01*
X46948413Y-21528443D01*
X46948412Y-21528443D01*
X46746243Y-21462754D01*
X46746241Y-21462753D01*
X46746240Y-21462753D01*
X46584957Y-21437208D01*
X46536287Y-21429500D01*
X46323713Y-21429500D01*
X46275042Y-21437208D01*
X46113760Y-21462753D01*
X45911585Y-21528444D01*
X45722179Y-21624951D01*
X45550213Y-21749890D01*
X45399890Y-21900213D01*
X45274949Y-22072182D01*
X45270484Y-22080946D01*
X45222509Y-22131742D01*
X45154688Y-22148536D01*
X45088553Y-22125998D01*
X45049516Y-22080946D01*
X45045050Y-22072182D01*
X44920109Y-21900213D01*
X44769786Y-21749890D01*
X44597820Y-21624951D01*
X44408414Y-21528444D01*
X44408413Y-21528443D01*
X44408412Y-21528443D01*
X44206243Y-21462754D01*
X44206241Y-21462753D01*
X44206240Y-21462753D01*
X44044957Y-21437208D01*
X43996287Y-21429500D01*
X43783713Y-21429500D01*
X43735042Y-21437208D01*
X43573760Y-21462753D01*
X43371585Y-21528444D01*
X43182179Y-21624951D01*
X43010213Y-21749890D01*
X42859890Y-21900213D01*
X42734950Y-22072181D01*
X42730201Y-22081501D01*
X42682223Y-22132294D01*
X42614402Y-22149086D01*
X42567548Y-22133116D01*
X42532727Y-22127601D01*
X41880330Y-22779999D01*
X41850000Y-22779999D01*
X41850000Y-22714174D01*
X41815925Y-22587007D01*
X41750099Y-22472993D01*
X41657007Y-22379901D01*
X41542993Y-22314075D01*
X41415826Y-22280000D01*
X41284174Y-22280000D01*
X41157007Y-22314075D01*
X41042993Y-22379901D01*
X40949901Y-22472993D01*
X40884075Y-22587007D01*
X40850000Y-22714174D01*
X40753844Y-22714174D01*
X40167271Y-22127601D01*
X40143685Y-22131337D01*
X40142781Y-22132295D01*
X40074959Y-22149085D01*
X40008826Y-22126542D01*
X39969793Y-22081491D01*
X39965051Y-22072184D01*
X39965049Y-22072181D01*
X39965048Y-22072179D01*
X39840109Y-21900213D01*
X39689790Y-21749894D01*
X39689783Y-21749888D01*
X39677021Y-21740616D01*
X39676992Y-21740596D01*
X39517815Y-21624948D01*
X39463495Y-21597271D01*
X40697601Y-21597271D01*
X41350000Y-22249670D01*
X41350001Y-22249670D01*
X42002397Y-21597272D01*
X41868220Y-21528906D01*
X41868217Y-21528904D01*
X41666128Y-21463242D01*
X41456246Y-21430000D01*
X41243754Y-21430000D01*
X41033872Y-21463242D01*
X41033869Y-21463242D01*
X40831781Y-21528905D01*
X40831780Y-21528905D01*
X40697601Y-21597271D01*
X39463495Y-21597271D01*
X39328414Y-21528444D01*
X39328413Y-21528443D01*
X39328412Y-21528443D01*
X39126243Y-21462754D01*
X39126241Y-21462753D01*
X39126240Y-21462753D01*
X38964957Y-21437208D01*
X38916287Y-21429500D01*
X38703713Y-21429500D01*
X38655042Y-21437208D01*
X38493760Y-21462753D01*
X38291585Y-21528444D01*
X38102179Y-21624951D01*
X37930213Y-21749890D01*
X37779890Y-21900213D01*
X37654949Y-22072182D01*
X37650484Y-22080946D01*
X37602509Y-22131742D01*
X37534688Y-22148536D01*
X37468553Y-22125998D01*
X37429516Y-22080946D01*
X37425050Y-22072182D01*
X37300109Y-21900213D01*
X37149786Y-21749890D01*
X36977820Y-21624951D01*
X36788414Y-21528444D01*
X36788413Y-21528443D01*
X36788412Y-21528443D01*
X36586243Y-21462754D01*
X36586241Y-21462753D01*
X36586240Y-21462753D01*
X36424957Y-21437208D01*
X36376287Y-21429500D01*
X36163713Y-21429500D01*
X36115042Y-21437208D01*
X35953760Y-21462753D01*
X35751585Y-21528444D01*
X35562179Y-21624951D01*
X35390213Y-21749890D01*
X35239890Y-21900213D01*
X35114949Y-22072182D01*
X35110484Y-22080946D01*
X35062509Y-22131742D01*
X34994688Y-22148536D01*
X34928553Y-22125998D01*
X34889516Y-22080946D01*
X34885050Y-22072182D01*
X34760109Y-21900213D01*
X34609786Y-21749890D01*
X34437820Y-21624951D01*
X34248414Y-21528444D01*
X34248413Y-21528443D01*
X34248412Y-21528443D01*
X34046243Y-21462754D01*
X34046241Y-21462753D01*
X34046240Y-21462753D01*
X33884957Y-21437208D01*
X33836287Y-21429500D01*
X33623713Y-21429500D01*
X33575042Y-21437208D01*
X33413760Y-21462753D01*
X33211585Y-21528444D01*
X33022179Y-21624951D01*
X32850213Y-21749890D01*
X32699890Y-21900213D01*
X32574949Y-22072182D01*
X32570484Y-22080946D01*
X32522509Y-22131742D01*
X32454688Y-22148536D01*
X32388553Y-22125998D01*
X32349516Y-22080946D01*
X32345050Y-22072182D01*
X32220109Y-21900213D01*
X32069786Y-21749890D01*
X31897820Y-21624951D01*
X31708414Y-21528444D01*
X31708413Y-21528443D01*
X31708412Y-21528443D01*
X31506243Y-21462754D01*
X31506241Y-21462753D01*
X31506240Y-21462753D01*
X31344957Y-21437208D01*
X31296287Y-21429500D01*
X31083713Y-21429500D01*
X31035042Y-21437208D01*
X30873760Y-21462753D01*
X30671585Y-21528444D01*
X30482179Y-21624951D01*
X30310213Y-21749890D01*
X30159890Y-21900213D01*
X30034950Y-22072181D01*
X30030201Y-22081501D01*
X29982223Y-22132294D01*
X29914402Y-22149086D01*
X29867548Y-22133116D01*
X29832727Y-22127601D01*
X29180330Y-22779999D01*
X29150000Y-22779999D01*
X29150000Y-22714174D01*
X29115925Y-22587007D01*
X29050099Y-22472993D01*
X28957007Y-22379901D01*
X28842993Y-22314075D01*
X28715826Y-22280000D01*
X28584174Y-22280000D01*
X28457007Y-22314075D01*
X28342993Y-22379901D01*
X28249901Y-22472993D01*
X28184075Y-22587007D01*
X28150000Y-22714174D01*
X28053844Y-22714174D01*
X27467271Y-22127601D01*
X27443685Y-22131337D01*
X27442781Y-22132295D01*
X27374959Y-22149085D01*
X27308826Y-22126542D01*
X27269793Y-22081491D01*
X27265051Y-22072184D01*
X27265049Y-22072181D01*
X27265048Y-22072179D01*
X27140109Y-21900213D01*
X26989790Y-21749894D01*
X26989783Y-21749888D01*
X26977021Y-21740616D01*
X26976992Y-21740596D01*
X26817815Y-21624948D01*
X26763495Y-21597271D01*
X27997601Y-21597271D01*
X28650000Y-22249670D01*
X28650001Y-22249670D01*
X29302397Y-21597272D01*
X29168220Y-21528906D01*
X29168217Y-21528904D01*
X28966128Y-21463242D01*
X28756246Y-21430000D01*
X28543754Y-21430000D01*
X28333872Y-21463242D01*
X28333869Y-21463242D01*
X28131781Y-21528905D01*
X28131780Y-21528905D01*
X27997601Y-21597271D01*
X26763495Y-21597271D01*
X26628414Y-21528444D01*
X26628413Y-21528443D01*
X26628412Y-21528443D01*
X26426243Y-21462754D01*
X26426241Y-21462753D01*
X26426240Y-21462753D01*
X26264957Y-21437208D01*
X26216287Y-21429500D01*
X26003713Y-21429500D01*
X25955042Y-21437208D01*
X25793760Y-21462753D01*
X25591585Y-21528444D01*
X25402179Y-21624951D01*
X25230213Y-21749890D01*
X25079890Y-21900213D01*
X24954949Y-22072182D01*
X24950484Y-22080946D01*
X24902509Y-22131742D01*
X24834688Y-22148536D01*
X24768553Y-22125998D01*
X24729516Y-22080946D01*
X24725050Y-22072182D01*
X24600109Y-21900213D01*
X24449786Y-21749890D01*
X24277820Y-21624951D01*
X24088414Y-21528444D01*
X24088413Y-21528443D01*
X24088412Y-21528443D01*
X23886243Y-21462754D01*
X23886241Y-21462753D01*
X23886240Y-21462753D01*
X23724957Y-21437208D01*
X23676287Y-21429500D01*
X23463713Y-21429500D01*
X23415042Y-21437208D01*
X23253760Y-21462753D01*
X23051585Y-21528444D01*
X22862179Y-21624951D01*
X22690213Y-21749890D01*
X22539890Y-21900213D01*
X22414949Y-22072182D01*
X22410484Y-22080946D01*
X22362509Y-22131742D01*
X22294688Y-22148536D01*
X22228553Y-22125998D01*
X22189516Y-22080946D01*
X22185050Y-22072182D01*
X22060109Y-21900213D01*
X21909786Y-21749890D01*
X21737820Y-21624951D01*
X21548414Y-21528444D01*
X21548413Y-21528443D01*
X21548412Y-21528443D01*
X21346243Y-21462754D01*
X21346241Y-21462753D01*
X21346240Y-21462753D01*
X21184957Y-21437208D01*
X21136287Y-21429500D01*
X20923713Y-21429500D01*
X20875042Y-21437208D01*
X20713760Y-21462753D01*
X20511585Y-21528444D01*
X20322179Y-21624951D01*
X20150213Y-21749890D01*
X19999890Y-21900213D01*
X19874949Y-22072182D01*
X19870484Y-22080946D01*
X19822509Y-22131742D01*
X19754688Y-22148536D01*
X19688553Y-22125998D01*
X19649516Y-22080946D01*
X19645050Y-22072182D01*
X19520109Y-21900213D01*
X19369786Y-21749890D01*
X19197820Y-21624951D01*
X19008414Y-21528444D01*
X19008413Y-21528443D01*
X19008412Y-21528443D01*
X18806243Y-21462754D01*
X18806241Y-21462753D01*
X18806240Y-21462753D01*
X18644957Y-21437208D01*
X18596287Y-21429500D01*
X18383713Y-21429500D01*
X18335042Y-21437208D01*
X18173760Y-21462753D01*
X17971585Y-21528444D01*
X17782179Y-21624951D01*
X17610213Y-21749890D01*
X17459890Y-21900213D01*
X17334950Y-22072181D01*
X17330201Y-22081501D01*
X17282223Y-22132294D01*
X17214402Y-22149086D01*
X17167548Y-22133116D01*
X17132727Y-22127601D01*
X16480330Y-22779999D01*
X16450000Y-22779999D01*
X16450000Y-22714174D01*
X16415925Y-22587007D01*
X16350099Y-22472993D01*
X16257007Y-22379901D01*
X16142993Y-22314075D01*
X16015826Y-22280000D01*
X15884174Y-22280000D01*
X15757007Y-22314075D01*
X15642993Y-22379901D01*
X15549901Y-22472993D01*
X15484075Y-22587007D01*
X15450000Y-22714174D01*
X15353844Y-22714174D01*
X14767271Y-22127601D01*
X14743685Y-22131337D01*
X14742781Y-22132295D01*
X14674959Y-22149085D01*
X14608826Y-22126542D01*
X14569793Y-22081491D01*
X14565051Y-22072184D01*
X14565049Y-22072181D01*
X14565048Y-22072179D01*
X14440109Y-21900213D01*
X14289790Y-21749894D01*
X14289783Y-21749888D01*
X14277021Y-21740616D01*
X14276992Y-21740596D01*
X14117815Y-21624948D01*
X14063495Y-21597271D01*
X15297601Y-21597271D01*
X15950000Y-22249670D01*
X15950001Y-22249670D01*
X16602397Y-21597272D01*
X16468220Y-21528906D01*
X16468217Y-21528904D01*
X16266128Y-21463242D01*
X16056246Y-21430000D01*
X15843754Y-21430000D01*
X15633872Y-21463242D01*
X15633869Y-21463242D01*
X15431781Y-21528905D01*
X15431780Y-21528905D01*
X15297601Y-21597271D01*
X14063495Y-21597271D01*
X13928414Y-21528444D01*
X13928413Y-21528443D01*
X13928412Y-21528443D01*
X13726243Y-21462754D01*
X13726241Y-21462753D01*
X13726240Y-21462753D01*
X13564957Y-21437208D01*
X13516287Y-21429500D01*
X13303713Y-21429500D01*
X13255042Y-21437208D01*
X13093760Y-21462753D01*
X12891585Y-21528444D01*
X12702179Y-21624951D01*
X12530215Y-21749889D01*
X12416673Y-21863431D01*
X12355350Y-21896915D01*
X12285658Y-21891931D01*
X12229725Y-21850059D01*
X12212810Y-21819082D01*
X12163797Y-21687671D01*
X12163793Y-21687664D01*
X12077547Y-21572455D01*
X12077544Y-21572452D01*
X11962335Y-21486206D01*
X11962328Y-21486202D01*
X11827482Y-21435908D01*
X11827483Y-21435908D01*
X11767883Y-21429501D01*
X11767881Y-21429500D01*
X11767873Y-21429500D01*
X11767864Y-21429500D01*
X9972129Y-21429500D01*
X9972123Y-21429501D01*
X9912516Y-21435908D01*
X9777671Y-21486202D01*
X9777664Y-21486206D01*
X9662455Y-21572452D01*
X9662452Y-21572455D01*
X9576206Y-21687664D01*
X9576202Y-21687671D01*
X9525908Y-21822517D01*
X9519501Y-21882116D01*
X9519500Y-21882135D01*
X1000000Y-21882135D01*
X1000000Y-6659542D01*
X1019685Y-6592503D01*
X1072489Y-6546748D01*
X1141647Y-6536804D01*
X1205203Y-6565829D01*
X1217219Y-6577774D01*
X1313000Y-6687000D01*
X1448520Y-6805838D01*
X1686691Y-7014693D01*
X1686700Y-7014700D01*
X2099995Y-7290897D01*
X2099996Y-7290897D01*
X2100000Y-7290900D01*
X2545800Y-7510700D01*
X3016500Y-7670500D01*
X3503995Y-7767499D01*
X3503996Y-7767499D01*
X3504000Y-7767500D01*
X4000000Y-7800000D01*
X4496000Y-7767500D01*
X4983500Y-7670500D01*
X5454200Y-7510700D01*
X5900000Y-7290900D01*
X6313300Y-7014700D01*
X6687000Y-6687000D01*
X7014700Y-6313300D01*
X7290900Y-5900000D01*
X7510700Y-5454200D01*
X7670500Y-4983500D01*
X7767500Y-4496000D01*
X7793308Y-4102135D01*
X9519500Y-4102135D01*
X9519500Y-5897870D01*
X9519501Y-5897876D01*
X9525908Y-5957483D01*
X9576202Y-6092328D01*
X9576206Y-6092335D01*
X9662452Y-6207544D01*
X9662455Y-6207547D01*
X9777664Y-6293793D01*
X9777671Y-6293797D01*
X9912517Y-6344091D01*
X9912516Y-6344091D01*
X9919444Y-6344835D01*
X9972127Y-6350500D01*
X11767872Y-6350499D01*
X11827483Y-6344091D01*
X11962331Y-6293796D01*
X12077546Y-6207546D01*
X12163796Y-6092331D01*
X12212810Y-5960916D01*
X12254681Y-5904984D01*
X12320145Y-5880566D01*
X12388418Y-5895417D01*
X12416673Y-5916569D01*
X12530213Y-6030109D01*
X12702179Y-6155048D01*
X12702181Y-6155049D01*
X12702184Y-6155051D01*
X12891588Y-6251557D01*
X13093757Y-6317246D01*
X13303713Y-6350500D01*
X13303714Y-6350500D01*
X13516286Y-6350500D01*
X13516287Y-6350500D01*
X13726243Y-6317246D01*
X13928412Y-6251557D01*
X14063501Y-6182726D01*
X15297602Y-6182726D01*
X15431779Y-6251094D01*
X15431782Y-6251095D01*
X15633871Y-6316757D01*
X15843754Y-6350000D01*
X16056246Y-6350000D01*
X16266127Y-6316757D01*
X16266130Y-6316757D01*
X16468217Y-6251095D01*
X16602397Y-6182726D01*
X15950001Y-5530330D01*
X15950000Y-5530330D01*
X15297602Y-6182726D01*
X14063501Y-6182726D01*
X14117816Y-6155051D01*
X14204138Y-6092335D01*
X14276993Y-6039404D01*
X14289785Y-6030109D01*
X14289783Y-6030109D01*
X14289792Y-6030104D01*
X14440104Y-5879792D01*
X14440106Y-5879788D01*
X14440109Y-5879786D01*
X14565048Y-5707820D01*
X14565050Y-5707817D01*
X14565051Y-5707816D01*
X14569795Y-5698504D01*
X14617769Y-5647709D01*
X14685590Y-5630914D01*
X14732444Y-5646880D01*
X14767272Y-5652397D01*
X15419670Y-5000000D01*
X15353844Y-4934174D01*
X15450000Y-4934174D01*
X15450000Y-5065826D01*
X15484075Y-5192993D01*
X15549901Y-5307007D01*
X15642993Y-5400099D01*
X15757007Y-5465925D01*
X15884174Y-5500000D01*
X16015826Y-5500000D01*
X16142993Y-5465925D01*
X16257007Y-5400099D01*
X16350099Y-5307007D01*
X16415925Y-5192993D01*
X16450000Y-5065826D01*
X16450000Y-4999999D01*
X16480330Y-4999999D01*
X16480330Y-5000000D01*
X17132727Y-5652397D01*
X17156303Y-5648663D01*
X17157204Y-5647710D01*
X17225024Y-5630912D01*
X17291160Y-5653446D01*
X17330204Y-5698504D01*
X17334949Y-5707817D01*
X17459890Y-5879786D01*
X17610213Y-6030109D01*
X17782179Y-6155048D01*
X17782181Y-6155049D01*
X17782184Y-6155051D01*
X17971588Y-6251557D01*
X18173757Y-6317246D01*
X18383713Y-6350500D01*
X18383714Y-6350500D01*
X18596286Y-6350500D01*
X18596287Y-6350500D01*
X18806243Y-6317246D01*
X19008412Y-6251557D01*
X19197816Y-6155051D01*
X19284138Y-6092335D01*
X19369786Y-6030109D01*
X19369788Y-6030106D01*
X19369792Y-6030104D01*
X19520104Y-5879792D01*
X19520106Y-5879788D01*
X19520109Y-5879786D01*
X19645048Y-5707820D01*
X19645050Y-5707817D01*
X19645051Y-5707816D01*
X19649514Y-5699054D01*
X19697488Y-5648259D01*
X19765308Y-5631463D01*
X19831444Y-5653999D01*
X19870486Y-5699056D01*
X19874951Y-5707820D01*
X19999890Y-5879786D01*
X20150213Y-6030109D01*
X20322179Y-6155048D01*
X20322181Y-6155049D01*
X20322184Y-6155051D01*
X20511588Y-6251557D01*
X20713757Y-6317246D01*
X20923713Y-6350500D01*
X20923714Y-6350500D01*
X21136286Y-6350500D01*
X21136287Y-6350500D01*
X21346243Y-6317246D01*
X21548412Y-6251557D01*
X21737816Y-6155051D01*
X21824138Y-6092335D01*
X21909786Y-6030109D01*
X21909788Y-6030106D01*
X21909792Y-6030104D01*
X22060104Y-5879792D01*
X22060106Y-5879788D01*
X22060109Y-5879786D01*
X22185048Y-5707820D01*
X22185050Y-5707817D01*
X22185051Y-5707816D01*
X22189514Y-5699054D01*
X22237488Y-5648259D01*
X22305308Y-5631463D01*
X22371444Y-5653999D01*
X22410486Y-5699056D01*
X22414951Y-5707820D01*
X22539890Y-5879786D01*
X22690213Y-6030109D01*
X22862179Y-6155048D01*
X22862181Y-6155049D01*
X22862184Y-6155051D01*
X23051588Y-6251557D01*
X23253757Y-6317246D01*
X23463713Y-6350500D01*
X23463714Y-6350500D01*
X23676286Y-6350500D01*
X23676287Y-6350500D01*
X23886243Y-6317246D01*
X24088412Y-6251557D01*
X24277816Y-6155051D01*
X24364138Y-6092335D01*
X24449786Y-6030109D01*
X24449788Y-6030106D01*
X24449792Y-6030104D01*
X24600104Y-5879792D01*
X24600106Y-5879788D01*
X24600109Y-5879786D01*
X24725048Y-5707820D01*
X24725050Y-5707817D01*
X24725051Y-5707816D01*
X24729514Y-5699054D01*
X24777488Y-5648259D01*
X24845308Y-5631463D01*
X24911444Y-5653999D01*
X24950486Y-5699056D01*
X24954951Y-5707820D01*
X25079890Y-5879786D01*
X25230213Y-6030109D01*
X25402179Y-6155048D01*
X25402181Y-6155049D01*
X25402184Y-6155051D01*
X25591588Y-6251557D01*
X25793757Y-6317246D01*
X26003713Y-6350500D01*
X26003714Y-6350500D01*
X26216286Y-6350500D01*
X26216287Y-6350500D01*
X26426243Y-6317246D01*
X26628412Y-6251557D01*
X26763501Y-6182726D01*
X27997602Y-6182726D01*
X28131779Y-6251094D01*
X28131782Y-6251095D01*
X28333871Y-6316757D01*
X28543754Y-6350000D01*
X28756246Y-6350000D01*
X28966127Y-6316757D01*
X28966130Y-6316757D01*
X29168217Y-6251095D01*
X29302397Y-6182726D01*
X28650001Y-5530330D01*
X28650000Y-5530330D01*
X27997602Y-6182726D01*
X26763501Y-6182726D01*
X26817816Y-6155051D01*
X26904138Y-6092335D01*
X26976993Y-6039404D01*
X26989785Y-6030109D01*
X26989783Y-6030109D01*
X26989792Y-6030104D01*
X27140104Y-5879792D01*
X27140106Y-5879788D01*
X27140109Y-5879786D01*
X27265048Y-5707820D01*
X27265050Y-5707817D01*
X27265051Y-5707816D01*
X27269795Y-5698504D01*
X27317769Y-5647709D01*
X27385590Y-5630914D01*
X27432444Y-5646880D01*
X27467272Y-5652397D01*
X28119670Y-5000000D01*
X28053844Y-4934174D01*
X28150000Y-4934174D01*
X28150000Y-5065826D01*
X28184075Y-5192993D01*
X28249901Y-5307007D01*
X28342993Y-5400099D01*
X28457007Y-5465925D01*
X28584174Y-5500000D01*
X28715826Y-5500000D01*
X28842993Y-5465925D01*
X28957007Y-5400099D01*
X29050099Y-5307007D01*
X29115925Y-5192993D01*
X29150000Y-5065826D01*
X29150000Y-4999999D01*
X29180330Y-4999999D01*
X29180330Y-5000000D01*
X29832727Y-5652397D01*
X29856303Y-5648663D01*
X29857204Y-5647710D01*
X29925024Y-5630912D01*
X29991160Y-5653446D01*
X30030204Y-5698504D01*
X30034949Y-5707817D01*
X30159890Y-5879786D01*
X30310213Y-6030109D01*
X30482179Y-6155048D01*
X30482181Y-6155049D01*
X30482184Y-6155051D01*
X30671588Y-6251557D01*
X30873757Y-6317246D01*
X31083713Y-6350500D01*
X31083714Y-6350500D01*
X31296286Y-6350500D01*
X31296287Y-6350500D01*
X31506243Y-6317246D01*
X31708412Y-6251557D01*
X31897816Y-6155051D01*
X31984138Y-6092335D01*
X32069786Y-6030109D01*
X32069788Y-6030106D01*
X32069792Y-6030104D01*
X32220104Y-5879792D01*
X32220106Y-5879788D01*
X32220109Y-5879786D01*
X32345048Y-5707820D01*
X32345050Y-5707817D01*
X32345051Y-5707816D01*
X32349514Y-5699054D01*
X32397488Y-5648259D01*
X32465308Y-5631463D01*
X32531444Y-5653999D01*
X32570486Y-5699056D01*
X32574951Y-5707820D01*
X32699890Y-5879786D01*
X32850213Y-6030109D01*
X33022179Y-6155048D01*
X33022181Y-6155049D01*
X33022184Y-6155051D01*
X33211588Y-6251557D01*
X33413757Y-6317246D01*
X33623713Y-6350500D01*
X33623714Y-6350500D01*
X33836286Y-6350500D01*
X33836287Y-6350500D01*
X34046243Y-6317246D01*
X34248412Y-6251557D01*
X34437816Y-6155051D01*
X34524138Y-6092335D01*
X34609786Y-6030109D01*
X34609788Y-6030106D01*
X34609792Y-6030104D01*
X34760104Y-5879792D01*
X34760106Y-5879788D01*
X34760109Y-5879786D01*
X34885048Y-5707820D01*
X34885050Y-5707817D01*
X34885051Y-5707816D01*
X34889514Y-5699054D01*
X34937488Y-5648259D01*
X35005308Y-5631463D01*
X35071444Y-5653999D01*
X35110486Y-5699056D01*
X35114951Y-5707820D01*
X35239890Y-5879786D01*
X35390213Y-6030109D01*
X35562179Y-6155048D01*
X35562181Y-6155049D01*
X35562184Y-6155051D01*
X35751588Y-6251557D01*
X35953757Y-6317246D01*
X36163713Y-6350500D01*
X36163714Y-6350500D01*
X36376286Y-6350500D01*
X36376287Y-6350500D01*
X36586243Y-6317246D01*
X36788412Y-6251557D01*
X36977816Y-6155051D01*
X37064138Y-6092335D01*
X37149786Y-6030109D01*
X37149788Y-6030106D01*
X37149792Y-6030104D01*
X37300104Y-5879792D01*
X37300106Y-5879788D01*
X37300109Y-5879786D01*
X37425048Y-5707820D01*
X37425050Y-5707817D01*
X37425051Y-5707816D01*
X37429514Y-5699054D01*
X37477488Y-5648259D01*
X37545308Y-5631463D01*
X37611444Y-5653999D01*
X37650486Y-5699056D01*
X37654951Y-5707820D01*
X37779890Y-5879786D01*
X37930213Y-6030109D01*
X38102179Y-6155048D01*
X38102181Y-6155049D01*
X38102184Y-6155051D01*
X38291588Y-6251557D01*
X38493757Y-6317246D01*
X38703713Y-6350500D01*
X38703714Y-6350500D01*
X38916286Y-6350500D01*
X38916287Y-6350500D01*
X39126243Y-6317246D01*
X39328412Y-6251557D01*
X39463501Y-6182726D01*
X40697602Y-6182726D01*
X40831779Y-6251094D01*
X40831782Y-6251095D01*
X41033871Y-6316757D01*
X41243754Y-6350000D01*
X41456246Y-6350000D01*
X41666127Y-6316757D01*
X41666130Y-6316757D01*
X41868217Y-6251095D01*
X42002397Y-6182726D01*
X41350001Y-5530330D01*
X41350000Y-5530330D01*
X40697602Y-6182726D01*
X39463501Y-6182726D01*
X39517816Y-6155051D01*
X39604138Y-6092335D01*
X39676993Y-6039404D01*
X39689785Y-6030109D01*
X39689783Y-6030109D01*
X39689792Y-6030104D01*
X39840104Y-5879792D01*
X39840106Y-5879788D01*
X39840109Y-5879786D01*
X39965048Y-5707820D01*
X39965050Y-5707817D01*
X39965051Y-5707816D01*
X39969795Y-5698504D01*
X40017769Y-5647709D01*
X40085590Y-5630914D01*
X40132444Y-5646880D01*
X40167272Y-5652397D01*
X40819670Y-5000000D01*
X40753844Y-4934174D01*
X40850000Y-4934174D01*
X40850000Y-5065826D01*
X40884075Y-5192993D01*
X40949901Y-5307007D01*
X41042993Y-5400099D01*
X41157007Y-5465925D01*
X41284174Y-5500000D01*
X41415826Y-5500000D01*
X41542993Y-5465925D01*
X41657007Y-5400099D01*
X41750099Y-5307007D01*
X41815925Y-5192993D01*
X41850000Y-5065826D01*
X41850000Y-4999999D01*
X41880330Y-4999999D01*
X41880330Y-5000000D01*
X42532727Y-5652397D01*
X42556303Y-5648663D01*
X42557204Y-5647710D01*
X42625024Y-5630912D01*
X42691160Y-5653446D01*
X42730204Y-5698504D01*
X42734949Y-5707817D01*
X42859890Y-5879786D01*
X43010213Y-6030109D01*
X43182179Y-6155048D01*
X43182181Y-6155049D01*
X43182184Y-6155051D01*
X43371588Y-6251557D01*
X43573757Y-6317246D01*
X43783713Y-6350500D01*
X43783714Y-6350500D01*
X43996286Y-6350500D01*
X43996287Y-6350500D01*
X44206243Y-6317246D01*
X44408412Y-6251557D01*
X44597816Y-6155051D01*
X44684138Y-6092335D01*
X44769786Y-6030109D01*
X44769788Y-6030106D01*
X44769792Y-6030104D01*
X44920104Y-5879792D01*
X44920106Y-5879788D01*
X44920109Y-5879786D01*
X45045048Y-5707820D01*
X45045050Y-5707817D01*
X45045051Y-5707816D01*
X45049514Y-5699054D01*
X45097488Y-5648259D01*
X45165308Y-5631463D01*
X45231444Y-5653999D01*
X45270486Y-5699056D01*
X45274951Y-5707820D01*
X45399890Y-5879786D01*
X45550213Y-6030109D01*
X45722179Y-6155048D01*
X45722181Y-6155049D01*
X45722184Y-6155051D01*
X45911588Y-6251557D01*
X46113757Y-6317246D01*
X46323713Y-6350500D01*
X46323714Y-6350500D01*
X46536286Y-6350500D01*
X46536287Y-6350500D01*
X46746243Y-6317246D01*
X46948412Y-6251557D01*
X47137816Y-6155051D01*
X47224138Y-6092335D01*
X47309786Y-6030109D01*
X47309788Y-6030106D01*
X47309792Y-6030104D01*
X47460104Y-5879792D01*
X47460106Y-5879788D01*
X47460109Y-5879786D01*
X47585048Y-5707820D01*
X47585050Y-5707817D01*
X47585051Y-5707816D01*
X47589514Y-5699054D01*
X47637488Y-5648259D01*
X47705308Y-5631463D01*
X47771444Y-5653999D01*
X47810486Y-5699056D01*
X47814951Y-5707820D01*
X47939890Y-5879786D01*
X48090213Y-6030109D01*
X48262179Y-6155048D01*
X48262181Y-6155049D01*
X48262184Y-6155051D01*
X48451588Y-6251557D01*
X48653757Y-6317246D01*
X48863713Y-6350500D01*
X48863714Y-6350500D01*
X49076286Y-6350500D01*
X49076287Y-6350500D01*
X49286243Y-6317246D01*
X49488412Y-6251557D01*
X49677816Y-6155051D01*
X49764138Y-6092335D01*
X49849786Y-6030109D01*
X49849788Y-6030106D01*
X49849792Y-6030104D01*
X50000104Y-5879792D01*
X50000106Y-5879788D01*
X50000109Y-5879786D01*
X50125048Y-5707820D01*
X50125050Y-5707817D01*
X50125051Y-5707816D01*
X50129514Y-5699054D01*
X50177488Y-5648259D01*
X50245308Y-5631463D01*
X50311444Y-5653999D01*
X50350486Y-5699056D01*
X50354951Y-5707820D01*
X50479890Y-5879786D01*
X50630213Y-6030109D01*
X50802179Y-6155048D01*
X50802181Y-6155049D01*
X50802184Y-6155051D01*
X50991588Y-6251557D01*
X51193757Y-6317246D01*
X51403713Y-6350500D01*
X51403714Y-6350500D01*
X51616286Y-6350500D01*
X51616287Y-6350500D01*
X51826243Y-6317246D01*
X52028412Y-6251557D01*
X52163501Y-6182726D01*
X53397602Y-6182726D01*
X53531779Y-6251094D01*
X53531782Y-6251095D01*
X53733871Y-6316757D01*
X53943754Y-6350000D01*
X54156246Y-6350000D01*
X54366127Y-6316757D01*
X54366130Y-6316757D01*
X54568217Y-6251095D01*
X54702397Y-6182726D01*
X54050001Y-5530330D01*
X54050000Y-5530330D01*
X53397602Y-6182726D01*
X52163501Y-6182726D01*
X52217816Y-6155051D01*
X52304138Y-6092335D01*
X52376993Y-6039404D01*
X52389785Y-6030109D01*
X52389783Y-6030109D01*
X52389792Y-6030104D01*
X52540104Y-5879792D01*
X52540106Y-5879788D01*
X52540109Y-5879786D01*
X52665048Y-5707820D01*
X52665050Y-5707817D01*
X52665051Y-5707816D01*
X52669795Y-5698504D01*
X52717769Y-5647709D01*
X52785590Y-5630914D01*
X52832444Y-5646880D01*
X52867272Y-5652397D01*
X53519670Y-5000000D01*
X53453844Y-4934174D01*
X53550000Y-4934174D01*
X53550000Y-5065826D01*
X53584075Y-5192993D01*
X53649901Y-5307007D01*
X53742993Y-5400099D01*
X53857007Y-5465925D01*
X53984174Y-5500000D01*
X54115826Y-5500000D01*
X54242993Y-5465925D01*
X54357007Y-5400099D01*
X54450099Y-5307007D01*
X54515925Y-5192993D01*
X54550000Y-5065826D01*
X54550000Y-4999999D01*
X54580330Y-4999999D01*
X54580330Y-5000000D01*
X55232727Y-5652397D01*
X55256303Y-5648663D01*
X55257204Y-5647710D01*
X55325024Y-5630912D01*
X55391160Y-5653446D01*
X55430204Y-5698504D01*
X55434949Y-5707817D01*
X55559890Y-5879786D01*
X55710213Y-6030109D01*
X55882179Y-6155048D01*
X55882181Y-6155049D01*
X55882184Y-6155051D01*
X56071588Y-6251557D01*
X56273757Y-6317246D01*
X56483713Y-6350500D01*
X56483714Y-6350500D01*
X56696286Y-6350500D01*
X56696287Y-6350500D01*
X56906243Y-6317246D01*
X57108412Y-6251557D01*
X57297816Y-6155051D01*
X57384138Y-6092335D01*
X57469786Y-6030109D01*
X57469788Y-6030106D01*
X57469792Y-6030104D01*
X57620104Y-5879792D01*
X57620106Y-5879788D01*
X57620109Y-5879786D01*
X57745048Y-5707820D01*
X57745050Y-5707817D01*
X57745051Y-5707816D01*
X57749514Y-5699054D01*
X57797488Y-5648259D01*
X57865308Y-5631463D01*
X57931444Y-5653999D01*
X57970486Y-5699056D01*
X57974951Y-5707820D01*
X58099890Y-5879786D01*
X58250213Y-6030109D01*
X58422179Y-6155048D01*
X58422181Y-6155049D01*
X58422184Y-6155051D01*
X58611588Y-6251557D01*
X58813757Y-6317246D01*
X59023713Y-6350500D01*
X59023714Y-6350500D01*
X59236286Y-6350500D01*
X59236287Y-6350500D01*
X59446243Y-6317246D01*
X59648412Y-6251557D01*
X59837816Y-6155051D01*
X59924138Y-6092335D01*
X60009786Y-6030109D01*
X60009788Y-6030106D01*
X60009792Y-6030104D01*
X60160104Y-5879792D01*
X60160106Y-5879788D01*
X60160109Y-5879786D01*
X60285048Y-5707820D01*
X60285050Y-5707817D01*
X60285051Y-5707816D01*
X60381557Y-5518412D01*
X60447246Y-5316243D01*
X60480500Y-5106287D01*
X60480500Y-4893713D01*
X60447246Y-4683757D01*
X60381557Y-4481588D01*
X60285051Y-4292184D01*
X60285049Y-4292181D01*
X60285048Y-4292179D01*
X60160109Y-4120213D01*
X60009786Y-3969890D01*
X59837820Y-3844951D01*
X59648414Y-3748444D01*
X59648413Y-3748443D01*
X59648412Y-3748443D01*
X59446243Y-3682754D01*
X59446241Y-3682753D01*
X59446240Y-3682753D01*
X59284957Y-3657208D01*
X59236287Y-3649500D01*
X59023713Y-3649500D01*
X58975042Y-3657208D01*
X58813760Y-3682753D01*
X58611585Y-3748444D01*
X58422179Y-3844951D01*
X58250213Y-3969890D01*
X58099890Y-4120213D01*
X57974949Y-4292182D01*
X57970484Y-4300946D01*
X57922509Y-4351742D01*
X57854688Y-4368536D01*
X57788553Y-4345998D01*
X57749516Y-4300946D01*
X57745050Y-4292182D01*
X57620109Y-4120213D01*
X57469786Y-3969890D01*
X57297820Y-3844951D01*
X57108414Y-3748444D01*
X57108413Y-3748443D01*
X57108412Y-3748443D01*
X56906243Y-3682754D01*
X56906241Y-3682753D01*
X56906240Y-3682753D01*
X56744957Y-3657208D01*
X56696287Y-3649500D01*
X56483713Y-3649500D01*
X56435042Y-3657208D01*
X56273760Y-3682753D01*
X56071585Y-3748444D01*
X55882179Y-3844951D01*
X55710213Y-3969890D01*
X55559890Y-4120213D01*
X55434950Y-4292181D01*
X55430201Y-4301501D01*
X55382223Y-4352294D01*
X55314402Y-4369086D01*
X55267548Y-4353116D01*
X55232727Y-4347601D01*
X54580330Y-4999999D01*
X54550000Y-4999999D01*
X54550000Y-4934174D01*
X54515925Y-4807007D01*
X54450099Y-4692993D01*
X54357007Y-4599901D01*
X54242993Y-4534075D01*
X54115826Y-4500000D01*
X53984174Y-4500000D01*
X53857007Y-4534075D01*
X53742993Y-4599901D01*
X53649901Y-4692993D01*
X53584075Y-4807007D01*
X53550000Y-4934174D01*
X53453844Y-4934174D01*
X52867271Y-4347601D01*
X52843685Y-4351337D01*
X52842781Y-4352295D01*
X52774959Y-4369085D01*
X52708826Y-4346542D01*
X52669793Y-4301491D01*
X52665051Y-4292184D01*
X52665049Y-4292181D01*
X52665048Y-4292179D01*
X52540109Y-4120213D01*
X52389790Y-3969894D01*
X52389783Y-3969888D01*
X52377021Y-3960616D01*
X52376992Y-3960596D01*
X52217815Y-3844948D01*
X52163495Y-3817271D01*
X53397601Y-3817271D01*
X54050000Y-4469670D01*
X54050001Y-4469670D01*
X54702397Y-3817272D01*
X54568220Y-3748906D01*
X54568217Y-3748904D01*
X54366128Y-3683242D01*
X54156246Y-3650000D01*
X53943754Y-3650000D01*
X53733872Y-3683242D01*
X53733869Y-3683242D01*
X53531781Y-3748905D01*
X53531780Y-3748905D01*
X53397601Y-3817271D01*
X52163495Y-3817271D01*
X52028414Y-3748444D01*
X52028413Y-3748443D01*
X52028412Y-3748443D01*
X51826243Y-3682754D01*
X51826241Y-3682753D01*
X51826240Y-3682753D01*
X51664957Y-3657208D01*
X51616287Y-3649500D01*
X51403713Y-3649500D01*
X51355042Y-3657208D01*
X51193760Y-3682753D01*
X50991585Y-3748444D01*
X50802179Y-3844951D01*
X50630213Y-3969890D01*
X50479890Y-4120213D01*
X50354949Y-4292182D01*
X50350484Y-4300946D01*
X50302509Y-4351742D01*
X50234688Y-4368536D01*
X50168553Y-4345998D01*
X50129516Y-4300946D01*
X50125050Y-4292182D01*
X50000109Y-4120213D01*
X49849786Y-3969890D01*
X49677820Y-3844951D01*
X49488414Y-3748444D01*
X49488413Y-3748443D01*
X49488412Y-3748443D01*
X49286243Y-3682754D01*
X49286241Y-3682753D01*
X49286240Y-3682753D01*
X49124957Y-3657208D01*
X49076287Y-3649500D01*
X48863713Y-3649500D01*
X48815042Y-3657208D01*
X48653760Y-3682753D01*
X48451585Y-3748444D01*
X48262179Y-3844951D01*
X48090213Y-3969890D01*
X47939890Y-4120213D01*
X47814949Y-4292182D01*
X47810484Y-4300946D01*
X47762509Y-4351742D01*
X47694688Y-4368536D01*
X47628553Y-4345998D01*
X47589516Y-4300946D01*
X47585050Y-4292182D01*
X47460109Y-4120213D01*
X47309786Y-3969890D01*
X47137820Y-3844951D01*
X46948414Y-3748444D01*
X46948413Y-3748443D01*
X46948412Y-3748443D01*
X46746243Y-3682754D01*
X46746241Y-3682753D01*
X46746240Y-3682753D01*
X46584957Y-3657208D01*
X46536287Y-3649500D01*
X46323713Y-3649500D01*
X46275042Y-3657208D01*
X46113760Y-3682753D01*
X45911585Y-3748444D01*
X45722179Y-3844951D01*
X45550213Y-3969890D01*
X45399890Y-4120213D01*
X45274949Y-4292182D01*
X45270484Y-4300946D01*
X45222509Y-4351742D01*
X45154688Y-4368536D01*
X45088553Y-4345998D01*
X45049516Y-4300946D01*
X45045050Y-4292182D01*
X44920109Y-4120213D01*
X44769786Y-3969890D01*
X44597820Y-3844951D01*
X44408414Y-3748444D01*
X44408413Y-3748443D01*
X44408412Y-3748443D01*
X44206243Y-3682754D01*
X44206241Y-3682753D01*
X44206240Y-3682753D01*
X44044957Y-3657208D01*
X43996287Y-3649500D01*
X43783713Y-3649500D01*
X43735042Y-3657208D01*
X43573760Y-3682753D01*
X43371585Y-3748444D01*
X43182179Y-3844951D01*
X43010213Y-3969890D01*
X42859890Y-4120213D01*
X42734950Y-4292181D01*
X42730201Y-4301501D01*
X42682223Y-4352294D01*
X42614402Y-4369086D01*
X42567548Y-4353116D01*
X42532727Y-4347601D01*
X41880330Y-4999999D01*
X41850000Y-4999999D01*
X41850000Y-4934174D01*
X41815925Y-4807007D01*
X41750099Y-4692993D01*
X41657007Y-4599901D01*
X41542993Y-4534075D01*
X41415826Y-4500000D01*
X41284174Y-4500000D01*
X41157007Y-4534075D01*
X41042993Y-4599901D01*
X40949901Y-4692993D01*
X40884075Y-4807007D01*
X40850000Y-4934174D01*
X40753844Y-4934174D01*
X40167271Y-4347601D01*
X40143685Y-4351337D01*
X40142781Y-4352295D01*
X40074959Y-4369085D01*
X40008826Y-4346542D01*
X39969793Y-4301491D01*
X39965051Y-4292184D01*
X39965049Y-4292181D01*
X39965048Y-4292179D01*
X39840109Y-4120213D01*
X39689790Y-3969894D01*
X39689783Y-3969888D01*
X39677021Y-3960616D01*
X39676992Y-3960596D01*
X39517815Y-3844948D01*
X39463495Y-3817271D01*
X40697601Y-3817271D01*
X41350000Y-4469670D01*
X41350001Y-4469670D01*
X42002397Y-3817272D01*
X41868220Y-3748906D01*
X41868217Y-3748904D01*
X41666128Y-3683242D01*
X41456246Y-3650000D01*
X41243754Y-3650000D01*
X41033872Y-3683242D01*
X41033869Y-3683242D01*
X40831781Y-3748905D01*
X40831780Y-3748905D01*
X40697601Y-3817271D01*
X39463495Y-3817271D01*
X39328414Y-3748444D01*
X39328413Y-3748443D01*
X39328412Y-3748443D01*
X39126243Y-3682754D01*
X39126241Y-3682753D01*
X39126240Y-3682753D01*
X38964957Y-3657208D01*
X38916287Y-3649500D01*
X38703713Y-3649500D01*
X38655042Y-3657208D01*
X38493760Y-3682753D01*
X38291585Y-3748444D01*
X38102179Y-3844951D01*
X37930213Y-3969890D01*
X37779890Y-4120213D01*
X37654949Y-4292182D01*
X37650484Y-4300946D01*
X37602509Y-4351742D01*
X37534688Y-4368536D01*
X37468553Y-4345998D01*
X37429516Y-4300946D01*
X37425050Y-4292182D01*
X37300109Y-4120213D01*
X37149786Y-3969890D01*
X36977820Y-3844951D01*
X36788414Y-3748444D01*
X36788413Y-3748443D01*
X36788412Y-3748443D01*
X36586243Y-3682754D01*
X36586241Y-3682753D01*
X36586240Y-3682753D01*
X36424957Y-3657208D01*
X36376287Y-3649500D01*
X36163713Y-3649500D01*
X36115042Y-3657208D01*
X35953760Y-3682753D01*
X35751585Y-3748444D01*
X35562179Y-3844951D01*
X35390213Y-3969890D01*
X35239890Y-4120213D01*
X35114949Y-4292182D01*
X35110484Y-4300946D01*
X35062509Y-4351742D01*
X34994688Y-4368536D01*
X34928553Y-4345998D01*
X34889516Y-4300946D01*
X34885050Y-4292182D01*
X34760109Y-4120213D01*
X34609786Y-3969890D01*
X34437820Y-3844951D01*
X34248414Y-3748444D01*
X34248413Y-3748443D01*
X34248412Y-3748443D01*
X34046243Y-3682754D01*
X34046241Y-3682753D01*
X34046240Y-3682753D01*
X33884957Y-3657208D01*
X33836287Y-3649500D01*
X33623713Y-3649500D01*
X33575042Y-3657208D01*
X33413760Y-3682753D01*
X33211585Y-3748444D01*
X33022179Y-3844951D01*
X32850213Y-3969890D01*
X32699890Y-4120213D01*
X32574949Y-4292182D01*
X32570484Y-4300946D01*
X32522509Y-4351742D01*
X32454688Y-4368536D01*
X32388553Y-4345998D01*
X32349516Y-4300946D01*
X32345050Y-4292182D01*
X32220109Y-4120213D01*
X32069786Y-3969890D01*
X31897820Y-3844951D01*
X31708414Y-3748444D01*
X31708413Y-3748443D01*
X31708412Y-3748443D01*
X31506243Y-3682754D01*
X31506241Y-3682753D01*
X31506240Y-3682753D01*
X31344957Y-3657208D01*
X31296287Y-3649500D01*
X31083713Y-3649500D01*
X31035042Y-3657208D01*
X30873760Y-3682753D01*
X30671585Y-3748444D01*
X30482179Y-3844951D01*
X30310213Y-3969890D01*
X30159890Y-4120213D01*
X30034950Y-4292181D01*
X30030201Y-4301501D01*
X29982223Y-4352294D01*
X29914402Y-4369086D01*
X29867548Y-4353116D01*
X29832727Y-4347601D01*
X29180330Y-4999999D01*
X29150000Y-4999999D01*
X29150000Y-4934174D01*
X29115925Y-4807007D01*
X29050099Y-4692993D01*
X28957007Y-4599901D01*
X28842993Y-4534075D01*
X28715826Y-4500000D01*
X28584174Y-4500000D01*
X28457007Y-4534075D01*
X28342993Y-4599901D01*
X28249901Y-4692993D01*
X28184075Y-4807007D01*
X28150000Y-4934174D01*
X28053844Y-4934174D01*
X27467271Y-4347601D01*
X27443685Y-4351337D01*
X27442781Y-4352295D01*
X27374959Y-4369085D01*
X27308826Y-4346542D01*
X27269793Y-4301491D01*
X27265051Y-4292184D01*
X27265049Y-4292181D01*
X27265048Y-4292179D01*
X27140109Y-4120213D01*
X26989790Y-3969894D01*
X26989783Y-3969888D01*
X26977021Y-3960616D01*
X26976992Y-3960596D01*
X26817815Y-3844948D01*
X26763495Y-3817271D01*
X27997601Y-3817271D01*
X28650000Y-4469670D01*
X28650001Y-4469670D01*
X29302397Y-3817272D01*
X29168220Y-3748906D01*
X29168217Y-3748904D01*
X28966128Y-3683242D01*
X28756246Y-3650000D01*
X28543754Y-3650000D01*
X28333872Y-3683242D01*
X28333869Y-3683242D01*
X28131781Y-3748905D01*
X28131780Y-3748905D01*
X27997601Y-3817271D01*
X26763495Y-3817271D01*
X26628414Y-3748444D01*
X26628413Y-3748443D01*
X26628412Y-3748443D01*
X26426243Y-3682754D01*
X26426241Y-3682753D01*
X26426240Y-3682753D01*
X26264957Y-3657208D01*
X26216287Y-3649500D01*
X26003713Y-3649500D01*
X25955042Y-3657208D01*
X25793760Y-3682753D01*
X25591585Y-3748444D01*
X25402179Y-3844951D01*
X25230213Y-3969890D01*
X25079890Y-4120213D01*
X24954949Y-4292182D01*
X24950484Y-4300946D01*
X24902509Y-4351742D01*
X24834688Y-4368536D01*
X24768553Y-4345998D01*
X24729516Y-4300946D01*
X24725050Y-4292182D01*
X24600109Y-4120213D01*
X24449786Y-3969890D01*
X24277820Y-3844951D01*
X24088414Y-3748444D01*
X24088413Y-3748443D01*
X24088412Y-3748443D01*
X23886243Y-3682754D01*
X23886241Y-3682753D01*
X23886240Y-3682753D01*
X23724957Y-3657208D01*
X23676287Y-3649500D01*
X23463713Y-3649500D01*
X23415042Y-3657208D01*
X23253760Y-3682753D01*
X23051585Y-3748444D01*
X22862179Y-3844951D01*
X22690213Y-3969890D01*
X22539890Y-4120213D01*
X22414949Y-4292182D01*
X22410484Y-4300946D01*
X22362509Y-4351742D01*
X22294688Y-4368536D01*
X22228553Y-4345998D01*
X22189516Y-4300946D01*
X22185050Y-4292182D01*
X22060109Y-4120213D01*
X21909786Y-3969890D01*
X21737820Y-3844951D01*
X21548414Y-3748444D01*
X21548413Y-3748443D01*
X21548412Y-3748443D01*
X21346243Y-3682754D01*
X21346241Y-3682753D01*
X21346240Y-3682753D01*
X21184957Y-3657208D01*
X21136287Y-3649500D01*
X20923713Y-3649500D01*
X20875042Y-3657208D01*
X20713760Y-3682753D01*
X20511585Y-3748444D01*
X20322179Y-3844951D01*
X20150213Y-3969890D01*
X19999890Y-4120213D01*
X19874949Y-4292182D01*
X19870484Y-4300946D01*
X19822509Y-4351742D01*
X19754688Y-4368536D01*
X19688553Y-4345998D01*
X19649516Y-4300946D01*
X19645050Y-4292182D01*
X19520109Y-4120213D01*
X19369786Y-3969890D01*
X19197820Y-3844951D01*
X19008414Y-3748444D01*
X19008413Y-3748443D01*
X19008412Y-3748443D01*
X18806243Y-3682754D01*
X18806241Y-3682753D01*
X18806240Y-3682753D01*
X18644957Y-3657208D01*
X18596287Y-3649500D01*
X18383713Y-3649500D01*
X18335042Y-3657208D01*
X18173760Y-3682753D01*
X17971585Y-3748444D01*
X17782179Y-3844951D01*
X17610213Y-3969890D01*
X17459890Y-4120213D01*
X17334950Y-4292181D01*
X17330201Y-4301501D01*
X17282223Y-4352294D01*
X17214402Y-4369086D01*
X17167548Y-4353116D01*
X17132727Y-4347601D01*
X16480330Y-4999999D01*
X16450000Y-4999999D01*
X16450000Y-4934174D01*
X16415925Y-4807007D01*
X16350099Y-4692993D01*
X16257007Y-4599901D01*
X16142993Y-4534075D01*
X16015826Y-4500000D01*
X15884174Y-4500000D01*
X15757007Y-4534075D01*
X15642993Y-4599901D01*
X15549901Y-4692993D01*
X15484075Y-4807007D01*
X15450000Y-4934174D01*
X15353844Y-4934174D01*
X14767271Y-4347601D01*
X14743685Y-4351337D01*
X14742781Y-4352295D01*
X14674959Y-4369085D01*
X14608826Y-4346542D01*
X14569793Y-4301491D01*
X14565051Y-4292184D01*
X14565049Y-4292181D01*
X14565048Y-4292179D01*
X14440109Y-4120213D01*
X14289790Y-3969894D01*
X14289783Y-3969888D01*
X14277021Y-3960616D01*
X14276992Y-3960596D01*
X14117815Y-3844948D01*
X14063495Y-3817271D01*
X15297601Y-3817271D01*
X15950000Y-4469670D01*
X15950001Y-4469670D01*
X16602397Y-3817272D01*
X16468220Y-3748906D01*
X16468217Y-3748904D01*
X16266128Y-3683242D01*
X16056246Y-3650000D01*
X15843754Y-3650000D01*
X15633872Y-3683242D01*
X15633869Y-3683242D01*
X15431781Y-3748905D01*
X15431780Y-3748905D01*
X15297601Y-3817271D01*
X14063495Y-3817271D01*
X13928414Y-3748444D01*
X13928413Y-3748443D01*
X13928412Y-3748443D01*
X13726243Y-3682754D01*
X13726241Y-3682753D01*
X13726240Y-3682753D01*
X13564957Y-3657208D01*
X13516287Y-3649500D01*
X13303713Y-3649500D01*
X13255042Y-3657208D01*
X13093760Y-3682753D01*
X12891585Y-3748444D01*
X12702179Y-3844951D01*
X12530215Y-3969889D01*
X12416673Y-4083431D01*
X12355350Y-4116915D01*
X12285658Y-4111931D01*
X12229725Y-4070059D01*
X12212810Y-4039082D01*
X12163797Y-3907671D01*
X12163793Y-3907664D01*
X12077547Y-3792455D01*
X12077544Y-3792452D01*
X11962335Y-3706206D01*
X11962328Y-3706202D01*
X11827482Y-3655908D01*
X11827483Y-3655908D01*
X11767883Y-3649501D01*
X11767881Y-3649500D01*
X11767873Y-3649500D01*
X11767864Y-3649500D01*
X9972129Y-3649500D01*
X9972123Y-3649501D01*
X9912516Y-3655908D01*
X9777671Y-3706202D01*
X9777664Y-3706206D01*
X9662455Y-3792452D01*
X9662452Y-3792455D01*
X9576206Y-3907664D01*
X9576202Y-3907671D01*
X9525908Y-4042517D01*
X9519501Y-4102116D01*
X9519500Y-4102135D01*
X7793308Y-4102135D01*
X7800000Y-4000000D01*
X7767500Y-3504000D01*
X7670500Y-3016500D01*
X7510700Y-2545800D01*
X7290900Y-2100000D01*
X7014700Y-1686700D01*
X7014693Y-1686691D01*
X6687000Y-1313000D01*
X6686999Y-1312999D01*
X6577788Y-1217231D01*
X6540361Y-1158231D01*
X6540774Y-1088362D01*
X6578896Y-1029809D01*
X6642622Y-1001160D01*
X6659543Y-1000000D01*
X63340457Y-1000000D01*
X63407496Y-1019685D01*
G37*
%TD.AperFunction*%
%TD*%
M02*
