M48
; DRILL file KiCad 10.0.5 date 2026-08-05T12:17:18
; FORMAT={-:-/ absolute / metric / decimal}
; #@! TF.CreationDate,2026-08-05T12:17:18-05:00
; #@! TF.GenerationSoftware,Kicad,Pcbnew,10.0.5
; #@! TF.FileFunction,Plated,1,2,PTH
FMAT,2
METRIC
; #@! TA.AperFunction,Plated,PTH,ViaDrill
T1C0.300
; #@! TA.AperFunction,Plated,PTH,ComponentDrill
T2C1.000
; #@! TA.AperFunction,Plated,PTH,ComponentDrill
T3C1.100
; #@! TA.AperFunction,Plated,PTH,ComponentDrill
T4C1.300
%
G90
G05
T1
X11.75Y-43.7
X12.887Y-59.938
X25.0Y-65.9
X26.7Y-44.3
X27.837Y-59.938
X41.7Y-44.1
X42.05Y-51.9
X43.15Y-59.9
X51.05Y-60.0
X52.5Y-69.5
X56.8Y-44.15
X56.95Y-74.7
T2
X10.87Y-5.0
X10.87Y-22.78
X13.41Y-5.0
X13.41Y-22.78
X15.95Y-5.0
X15.95Y-22.78
X18.49Y-5.0
X18.49Y-22.78
X21.03Y-5.0
X21.03Y-22.78
X23.57Y-5.0
X23.57Y-22.78
X26.11Y-5.0
X26.11Y-22.78
X28.65Y-5.0
X28.65Y-22.78
X31.19Y-5.0
X31.19Y-22.78
X33.73Y-5.0
X33.73Y-22.78
X36.27Y-5.0
X36.27Y-22.78
X38.81Y-5.0
X38.81Y-22.78
X41.35Y-5.0
X41.35Y-22.78
X43.89Y-5.0
X43.89Y-22.78
X46.43Y-5.0
X46.43Y-22.78
X48.97Y-5.0
X48.97Y-22.78
X51.51Y-5.0
X51.51Y-22.78
X54.05Y-5.0
X54.05Y-22.78
X56.59Y-5.0
X56.59Y-22.78
X59.13Y-5.0
X59.13Y-22.78
T3
X45.0Y-84.0
X48.81Y-84.0
X52.62Y-84.0
X56.43Y-84.0
X60.24Y-84.0
X64.05Y-84.0
T4
X10.0Y-84.0
X15.08Y-84.0
M30
