%TF.GenerationSoftware,KiCad,Pcbnew,10.0.5*%
%TF.CreationDate,2026-08-05T12:17:23-05:00*%
%TF.ProjectId,shop-output-board-v2,73686f70-2d6f-4757-9470-75742d626f61,rev?*%
%TF.SameCoordinates,Original*%
%TF.FileFunction,Legend,Top*%
%TF.FilePolarity,Positive*%
%FSLAX46Y46*%
G04 Gerber Fmt 4.6, Leading zero omitted, Abs format (unit mm)*
G04 Created by KiCad (PCBNEW 10.0.5) date 2026-08-05 12:17:23*
%MOMM*%
%LPD*%
G01*
G04 APERTURE LIST*
%ADD10C,0.120000*%
G04 APERTURE END LIST*
D10*
X12104762Y-25363855D02*
X11838095Y-24982902D01*
X11647619Y-25363855D02*
X11647619Y-24563855D01*
X11647619Y-24563855D02*
X11952381Y-24563855D01*
X11952381Y-24563855D02*
X12028571Y-24601950D01*
X12028571Y-24601950D02*
X12066666Y-24640045D01*
X12066666Y-24640045D02*
X12104762Y-24716236D01*
X12104762Y-24716236D02*
X12104762Y-24830521D01*
X12104762Y-24830521D02*
X12066666Y-24906712D01*
X12066666Y-24906712D02*
X12028571Y-24944807D01*
X12028571Y-24944807D02*
X11952381Y-24982902D01*
X11952381Y-24982902D02*
X11647619Y-24982902D01*
X12866666Y-25363855D02*
X12409523Y-25363855D01*
X12638095Y-25363855D02*
X12638095Y-24563855D01*
X12638095Y-24563855D02*
X12561904Y-24678140D01*
X12561904Y-24678140D02*
X12485714Y-24754331D01*
X12485714Y-24754331D02*
X12409523Y-24792426D01*
X13361905Y-24563855D02*
X13438095Y-24563855D01*
X13438095Y-24563855D02*
X13514286Y-24601950D01*
X13514286Y-24601950D02*
X13552381Y-24640045D01*
X13552381Y-24640045D02*
X13590476Y-24716236D01*
X13590476Y-24716236D02*
X13628571Y-24868617D01*
X13628571Y-24868617D02*
X13628571Y-25059093D01*
X13628571Y-25059093D02*
X13590476Y-25211474D01*
X13590476Y-25211474D02*
X13552381Y-25287664D01*
X13552381Y-25287664D02*
X13514286Y-25325760D01*
X13514286Y-25325760D02*
X13438095Y-25363855D01*
X13438095Y-25363855D02*
X13361905Y-25363855D01*
X13361905Y-25363855D02*
X13285714Y-25325760D01*
X13285714Y-25325760D02*
X13247619Y-25287664D01*
X13247619Y-25287664D02*
X13209524Y-25211474D01*
X13209524Y-25211474D02*
X13171428Y-25059093D01*
X13171428Y-25059093D02*
X13171428Y-24868617D01*
X13171428Y-24868617D02*
X13209524Y-24716236D01*
X13209524Y-24716236D02*
X13247619Y-24640045D01*
X13247619Y-24640045D02*
X13285714Y-24601950D01*
X13285714Y-24601950D02*
X13361905Y-24563855D01*
X14352381Y-24563855D02*
X13971429Y-24563855D01*
X13971429Y-24563855D02*
X13933333Y-24944807D01*
X13933333Y-24944807D02*
X13971429Y-24906712D01*
X13971429Y-24906712D02*
X14047619Y-24868617D01*
X14047619Y-24868617D02*
X14238095Y-24868617D01*
X14238095Y-24868617D02*
X14314286Y-24906712D01*
X14314286Y-24906712D02*
X14352381Y-24944807D01*
X14352381Y-24944807D02*
X14390476Y-25020998D01*
X14390476Y-25020998D02*
X14390476Y-25211474D01*
X14390476Y-25211474D02*
X14352381Y-25287664D01*
X14352381Y-25287664D02*
X14314286Y-25325760D01*
X14314286Y-25325760D02*
X14238095Y-25363855D01*
X14238095Y-25363855D02*
X14047619Y-25363855D01*
X14047619Y-25363855D02*
X13971429Y-25325760D01*
X13971429Y-25325760D02*
X13933333Y-25287664D01*
X42104762Y-25363855D02*
X41838095Y-24982902D01*
X41647619Y-25363855D02*
X41647619Y-24563855D01*
X41647619Y-24563855D02*
X41952381Y-24563855D01*
X41952381Y-24563855D02*
X42028571Y-24601950D01*
X42028571Y-24601950D02*
X42066666Y-24640045D01*
X42066666Y-24640045D02*
X42104762Y-24716236D01*
X42104762Y-24716236D02*
X42104762Y-24830521D01*
X42104762Y-24830521D02*
X42066666Y-24906712D01*
X42066666Y-24906712D02*
X42028571Y-24944807D01*
X42028571Y-24944807D02*
X41952381Y-24982902D01*
X41952381Y-24982902D02*
X41647619Y-24982902D01*
X42371428Y-24563855D02*
X42866666Y-24563855D01*
X42866666Y-24563855D02*
X42600000Y-24868617D01*
X42600000Y-24868617D02*
X42714285Y-24868617D01*
X42714285Y-24868617D02*
X42790476Y-24906712D01*
X42790476Y-24906712D02*
X42828571Y-24944807D01*
X42828571Y-24944807D02*
X42866666Y-25020998D01*
X42866666Y-25020998D02*
X42866666Y-25211474D01*
X42866666Y-25211474D02*
X42828571Y-25287664D01*
X42828571Y-25287664D02*
X42790476Y-25325760D01*
X42790476Y-25325760D02*
X42714285Y-25363855D01*
X42714285Y-25363855D02*
X42485714Y-25363855D01*
X42485714Y-25363855D02*
X42409523Y-25325760D01*
X42409523Y-25325760D02*
X42371428Y-25287664D01*
X43361905Y-24563855D02*
X43438095Y-24563855D01*
X43438095Y-24563855D02*
X43514286Y-24601950D01*
X43514286Y-24601950D02*
X43552381Y-24640045D01*
X43552381Y-24640045D02*
X43590476Y-24716236D01*
X43590476Y-24716236D02*
X43628571Y-24868617D01*
X43628571Y-24868617D02*
X43628571Y-25059093D01*
X43628571Y-25059093D02*
X43590476Y-25211474D01*
X43590476Y-25211474D02*
X43552381Y-25287664D01*
X43552381Y-25287664D02*
X43514286Y-25325760D01*
X43514286Y-25325760D02*
X43438095Y-25363855D01*
X43438095Y-25363855D02*
X43361905Y-25363855D01*
X43361905Y-25363855D02*
X43285714Y-25325760D01*
X43285714Y-25325760D02*
X43247619Y-25287664D01*
X43247619Y-25287664D02*
X43209524Y-25211474D01*
X43209524Y-25211474D02*
X43171428Y-25059093D01*
X43171428Y-25059093D02*
X43171428Y-24868617D01*
X43171428Y-24868617D02*
X43209524Y-24716236D01*
X43209524Y-24716236D02*
X43247619Y-24640045D01*
X43247619Y-24640045D02*
X43285714Y-24601950D01*
X43285714Y-24601950D02*
X43361905Y-24563855D01*
X44352381Y-24563855D02*
X43971429Y-24563855D01*
X43971429Y-24563855D02*
X43933333Y-24944807D01*
X43933333Y-24944807D02*
X43971429Y-24906712D01*
X43971429Y-24906712D02*
X44047619Y-24868617D01*
X44047619Y-24868617D02*
X44238095Y-24868617D01*
X44238095Y-24868617D02*
X44314286Y-24906712D01*
X44314286Y-24906712D02*
X44352381Y-24944807D01*
X44352381Y-24944807D02*
X44390476Y-25020998D01*
X44390476Y-25020998D02*
X44390476Y-25211474D01*
X44390476Y-25211474D02*
X44352381Y-25287664D01*
X44352381Y-25287664D02*
X44314286Y-25325760D01*
X44314286Y-25325760D02*
X44238095Y-25363855D01*
X44238095Y-25363855D02*
X44047619Y-25363855D01*
X44047619Y-25363855D02*
X43971429Y-25325760D01*
X43971429Y-25325760D02*
X43933333Y-25287664D01*
X61104762Y-57363855D02*
X60838095Y-56982902D01*
X60647619Y-57363855D02*
X60647619Y-56563855D01*
X60647619Y-56563855D02*
X60952381Y-56563855D01*
X60952381Y-56563855D02*
X61028571Y-56601950D01*
X61028571Y-56601950D02*
X61066666Y-56640045D01*
X61066666Y-56640045D02*
X61104762Y-56716236D01*
X61104762Y-56716236D02*
X61104762Y-56830521D01*
X61104762Y-56830521D02*
X61066666Y-56906712D01*
X61066666Y-56906712D02*
X61028571Y-56944807D01*
X61028571Y-56944807D02*
X60952381Y-56982902D01*
X60952381Y-56982902D02*
X60647619Y-56982902D01*
X61790476Y-56830521D02*
X61790476Y-57363855D01*
X61600000Y-56525760D02*
X61409523Y-57097188D01*
X61409523Y-57097188D02*
X61904762Y-57097188D01*
X62361905Y-56563855D02*
X62438095Y-56563855D01*
X62438095Y-56563855D02*
X62514286Y-56601950D01*
X62514286Y-56601950D02*
X62552381Y-56640045D01*
X62552381Y-56640045D02*
X62590476Y-56716236D01*
X62590476Y-56716236D02*
X62628571Y-56868617D01*
X62628571Y-56868617D02*
X62628571Y-57059093D01*
X62628571Y-57059093D02*
X62590476Y-57211474D01*
X62590476Y-57211474D02*
X62552381Y-57287664D01*
X62552381Y-57287664D02*
X62514286Y-57325760D01*
X62514286Y-57325760D02*
X62438095Y-57363855D01*
X62438095Y-57363855D02*
X62361905Y-57363855D01*
X62361905Y-57363855D02*
X62285714Y-57325760D01*
X62285714Y-57325760D02*
X62247619Y-57287664D01*
X62247619Y-57287664D02*
X62209524Y-57211474D01*
X62209524Y-57211474D02*
X62171428Y-57059093D01*
X62171428Y-57059093D02*
X62171428Y-56868617D01*
X62171428Y-56868617D02*
X62209524Y-56716236D01*
X62209524Y-56716236D02*
X62247619Y-56640045D01*
X62247619Y-56640045D02*
X62285714Y-56601950D01*
X62285714Y-56601950D02*
X62361905Y-56563855D01*
X63390476Y-57363855D02*
X62933333Y-57363855D01*
X63161905Y-57363855D02*
X63161905Y-56563855D01*
X63161905Y-56563855D02*
X63085714Y-56678140D01*
X63085714Y-56678140D02*
X63009524Y-56754331D01*
X63009524Y-56754331D02*
X62933333Y-56792426D01*
X13454762Y-47363855D02*
X13188095Y-46982902D01*
X12997619Y-47363855D02*
X12997619Y-46563855D01*
X12997619Y-46563855D02*
X13302381Y-46563855D01*
X13302381Y-46563855D02*
X13378571Y-46601950D01*
X13378571Y-46601950D02*
X13416666Y-46640045D01*
X13416666Y-46640045D02*
X13454762Y-46716236D01*
X13454762Y-46716236D02*
X13454762Y-46830521D01*
X13454762Y-46830521D02*
X13416666Y-46906712D01*
X13416666Y-46906712D02*
X13378571Y-46944807D01*
X13378571Y-46944807D02*
X13302381Y-46982902D01*
X13302381Y-46982902D02*
X12997619Y-46982902D01*
X14216666Y-47363855D02*
X13759523Y-47363855D01*
X13988095Y-47363855D02*
X13988095Y-46563855D01*
X13988095Y-46563855D02*
X13911904Y-46678140D01*
X13911904Y-46678140D02*
X13835714Y-46754331D01*
X13835714Y-46754331D02*
X13759523Y-46792426D01*
X14711905Y-46563855D02*
X14788095Y-46563855D01*
X14788095Y-46563855D02*
X14864286Y-46601950D01*
X14864286Y-46601950D02*
X14902381Y-46640045D01*
X14902381Y-46640045D02*
X14940476Y-46716236D01*
X14940476Y-46716236D02*
X14978571Y-46868617D01*
X14978571Y-46868617D02*
X14978571Y-47059093D01*
X14978571Y-47059093D02*
X14940476Y-47211474D01*
X14940476Y-47211474D02*
X14902381Y-47287664D01*
X14902381Y-47287664D02*
X14864286Y-47325760D01*
X14864286Y-47325760D02*
X14788095Y-47363855D01*
X14788095Y-47363855D02*
X14711905Y-47363855D01*
X14711905Y-47363855D02*
X14635714Y-47325760D01*
X14635714Y-47325760D02*
X14597619Y-47287664D01*
X14597619Y-47287664D02*
X14559524Y-47211474D01*
X14559524Y-47211474D02*
X14521428Y-47059093D01*
X14521428Y-47059093D02*
X14521428Y-46868617D01*
X14521428Y-46868617D02*
X14559524Y-46716236D01*
X14559524Y-46716236D02*
X14597619Y-46640045D01*
X14597619Y-46640045D02*
X14635714Y-46601950D01*
X14635714Y-46601950D02*
X14711905Y-46563855D01*
X15283333Y-46640045D02*
X15321429Y-46601950D01*
X15321429Y-46601950D02*
X15397619Y-46563855D01*
X15397619Y-46563855D02*
X15588095Y-46563855D01*
X15588095Y-46563855D02*
X15664286Y-46601950D01*
X15664286Y-46601950D02*
X15702381Y-46640045D01*
X15702381Y-46640045D02*
X15740476Y-46716236D01*
X15740476Y-46716236D02*
X15740476Y-46792426D01*
X15740476Y-46792426D02*
X15702381Y-46906712D01*
X15702381Y-46906712D02*
X15245238Y-47363855D01*
X15245238Y-47363855D02*
X15740476Y-47363855D01*
X55854762Y-55363855D02*
X55588095Y-54982902D01*
X55397619Y-55363855D02*
X55397619Y-54563855D01*
X55397619Y-54563855D02*
X55702381Y-54563855D01*
X55702381Y-54563855D02*
X55778571Y-54601950D01*
X55778571Y-54601950D02*
X55816666Y-54640045D01*
X55816666Y-54640045D02*
X55854762Y-54716236D01*
X55854762Y-54716236D02*
X55854762Y-54830521D01*
X55854762Y-54830521D02*
X55816666Y-54906712D01*
X55816666Y-54906712D02*
X55778571Y-54944807D01*
X55778571Y-54944807D02*
X55702381Y-54982902D01*
X55702381Y-54982902D02*
X55397619Y-54982902D01*
X56540476Y-54830521D02*
X56540476Y-55363855D01*
X56350000Y-54525760D02*
X56159523Y-55097188D01*
X56159523Y-55097188D02*
X56654762Y-55097188D01*
X57111905Y-54563855D02*
X57188095Y-54563855D01*
X57188095Y-54563855D02*
X57264286Y-54601950D01*
X57264286Y-54601950D02*
X57302381Y-54640045D01*
X57302381Y-54640045D02*
X57340476Y-54716236D01*
X57340476Y-54716236D02*
X57378571Y-54868617D01*
X57378571Y-54868617D02*
X57378571Y-55059093D01*
X57378571Y-55059093D02*
X57340476Y-55211474D01*
X57340476Y-55211474D02*
X57302381Y-55287664D01*
X57302381Y-55287664D02*
X57264286Y-55325760D01*
X57264286Y-55325760D02*
X57188095Y-55363855D01*
X57188095Y-55363855D02*
X57111905Y-55363855D01*
X57111905Y-55363855D02*
X57035714Y-55325760D01*
X57035714Y-55325760D02*
X56997619Y-55287664D01*
X56997619Y-55287664D02*
X56959524Y-55211474D01*
X56959524Y-55211474D02*
X56921428Y-55059093D01*
X56921428Y-55059093D02*
X56921428Y-54868617D01*
X56921428Y-54868617D02*
X56959524Y-54716236D01*
X56959524Y-54716236D02*
X56997619Y-54640045D01*
X56997619Y-54640045D02*
X57035714Y-54601950D01*
X57035714Y-54601950D02*
X57111905Y-54563855D01*
X58064286Y-54830521D02*
X58064286Y-55363855D01*
X57873810Y-54525760D02*
X57683333Y-55097188D01*
X57683333Y-55097188D02*
X58178572Y-55097188D01*
X9733333Y-77313855D02*
X9733333Y-77885283D01*
X9733333Y-77885283D02*
X9695238Y-77999569D01*
X9695238Y-77999569D02*
X9619047Y-78075760D01*
X9619047Y-78075760D02*
X9504762Y-78113855D01*
X9504762Y-78113855D02*
X9428571Y-78113855D01*
X10533333Y-78113855D02*
X10076190Y-78113855D01*
X10304762Y-78113855D02*
X10304762Y-77313855D01*
X10304762Y-77313855D02*
X10228571Y-77428140D01*
X10228571Y-77428140D02*
X10152381Y-77504331D01*
X10152381Y-77504331D02*
X10076190Y-77542426D01*
X43554762Y-47363855D02*
X43288095Y-46982902D01*
X43097619Y-47363855D02*
X43097619Y-46563855D01*
X43097619Y-46563855D02*
X43402381Y-46563855D01*
X43402381Y-46563855D02*
X43478571Y-46601950D01*
X43478571Y-46601950D02*
X43516666Y-46640045D01*
X43516666Y-46640045D02*
X43554762Y-46716236D01*
X43554762Y-46716236D02*
X43554762Y-46830521D01*
X43554762Y-46830521D02*
X43516666Y-46906712D01*
X43516666Y-46906712D02*
X43478571Y-46944807D01*
X43478571Y-46944807D02*
X43402381Y-46982902D01*
X43402381Y-46982902D02*
X43097619Y-46982902D01*
X43821428Y-46563855D02*
X44316666Y-46563855D01*
X44316666Y-46563855D02*
X44050000Y-46868617D01*
X44050000Y-46868617D02*
X44164285Y-46868617D01*
X44164285Y-46868617D02*
X44240476Y-46906712D01*
X44240476Y-46906712D02*
X44278571Y-46944807D01*
X44278571Y-46944807D02*
X44316666Y-47020998D01*
X44316666Y-47020998D02*
X44316666Y-47211474D01*
X44316666Y-47211474D02*
X44278571Y-47287664D01*
X44278571Y-47287664D02*
X44240476Y-47325760D01*
X44240476Y-47325760D02*
X44164285Y-47363855D01*
X44164285Y-47363855D02*
X43935714Y-47363855D01*
X43935714Y-47363855D02*
X43859523Y-47325760D01*
X43859523Y-47325760D02*
X43821428Y-47287664D01*
X44811905Y-46563855D02*
X44888095Y-46563855D01*
X44888095Y-46563855D02*
X44964286Y-46601950D01*
X44964286Y-46601950D02*
X45002381Y-46640045D01*
X45002381Y-46640045D02*
X45040476Y-46716236D01*
X45040476Y-46716236D02*
X45078571Y-46868617D01*
X45078571Y-46868617D02*
X45078571Y-47059093D01*
X45078571Y-47059093D02*
X45040476Y-47211474D01*
X45040476Y-47211474D02*
X45002381Y-47287664D01*
X45002381Y-47287664D02*
X44964286Y-47325760D01*
X44964286Y-47325760D02*
X44888095Y-47363855D01*
X44888095Y-47363855D02*
X44811905Y-47363855D01*
X44811905Y-47363855D02*
X44735714Y-47325760D01*
X44735714Y-47325760D02*
X44697619Y-47287664D01*
X44697619Y-47287664D02*
X44659524Y-47211474D01*
X44659524Y-47211474D02*
X44621428Y-47059093D01*
X44621428Y-47059093D02*
X44621428Y-46868617D01*
X44621428Y-46868617D02*
X44659524Y-46716236D01*
X44659524Y-46716236D02*
X44697619Y-46640045D01*
X44697619Y-46640045D02*
X44735714Y-46601950D01*
X44735714Y-46601950D02*
X44811905Y-46563855D01*
X45383333Y-46640045D02*
X45421429Y-46601950D01*
X45421429Y-46601950D02*
X45497619Y-46563855D01*
X45497619Y-46563855D02*
X45688095Y-46563855D01*
X45688095Y-46563855D02*
X45764286Y-46601950D01*
X45764286Y-46601950D02*
X45802381Y-46640045D01*
X45802381Y-46640045D02*
X45840476Y-46716236D01*
X45840476Y-46716236D02*
X45840476Y-46792426D01*
X45840476Y-46792426D02*
X45802381Y-46906712D01*
X45802381Y-46906712D02*
X45345238Y-47363855D01*
X45345238Y-47363855D02*
X45840476Y-47363855D01*
X10904762Y-51363855D02*
X10638095Y-50982902D01*
X10447619Y-51363855D02*
X10447619Y-50563855D01*
X10447619Y-50563855D02*
X10752381Y-50563855D01*
X10752381Y-50563855D02*
X10828571Y-50601950D01*
X10828571Y-50601950D02*
X10866666Y-50640045D01*
X10866666Y-50640045D02*
X10904762Y-50716236D01*
X10904762Y-50716236D02*
X10904762Y-50830521D01*
X10904762Y-50830521D02*
X10866666Y-50906712D01*
X10866666Y-50906712D02*
X10828571Y-50944807D01*
X10828571Y-50944807D02*
X10752381Y-50982902D01*
X10752381Y-50982902D02*
X10447619Y-50982902D01*
X11666666Y-51363855D02*
X11209523Y-51363855D01*
X11438095Y-51363855D02*
X11438095Y-50563855D01*
X11438095Y-50563855D02*
X11361904Y-50678140D01*
X11361904Y-50678140D02*
X11285714Y-50754331D01*
X11285714Y-50754331D02*
X11209523Y-50792426D01*
X12161905Y-50563855D02*
X12238095Y-50563855D01*
X12238095Y-50563855D02*
X12314286Y-50601950D01*
X12314286Y-50601950D02*
X12352381Y-50640045D01*
X12352381Y-50640045D02*
X12390476Y-50716236D01*
X12390476Y-50716236D02*
X12428571Y-50868617D01*
X12428571Y-50868617D02*
X12428571Y-51059093D01*
X12428571Y-51059093D02*
X12390476Y-51211474D01*
X12390476Y-51211474D02*
X12352381Y-51287664D01*
X12352381Y-51287664D02*
X12314286Y-51325760D01*
X12314286Y-51325760D02*
X12238095Y-51363855D01*
X12238095Y-51363855D02*
X12161905Y-51363855D01*
X12161905Y-51363855D02*
X12085714Y-51325760D01*
X12085714Y-51325760D02*
X12047619Y-51287664D01*
X12047619Y-51287664D02*
X12009524Y-51211474D01*
X12009524Y-51211474D02*
X11971428Y-51059093D01*
X11971428Y-51059093D02*
X11971428Y-50868617D01*
X11971428Y-50868617D02*
X12009524Y-50716236D01*
X12009524Y-50716236D02*
X12047619Y-50640045D01*
X12047619Y-50640045D02*
X12085714Y-50601950D01*
X12085714Y-50601950D02*
X12161905Y-50563855D01*
X12695238Y-50563855D02*
X13190476Y-50563855D01*
X13190476Y-50563855D02*
X12923810Y-50868617D01*
X12923810Y-50868617D02*
X13038095Y-50868617D01*
X13038095Y-50868617D02*
X13114286Y-50906712D01*
X13114286Y-50906712D02*
X13152381Y-50944807D01*
X13152381Y-50944807D02*
X13190476Y-51020998D01*
X13190476Y-51020998D02*
X13190476Y-51211474D01*
X13190476Y-51211474D02*
X13152381Y-51287664D01*
X13152381Y-51287664D02*
X13114286Y-51325760D01*
X13114286Y-51325760D02*
X13038095Y-51363855D01*
X13038095Y-51363855D02*
X12809524Y-51363855D01*
X12809524Y-51363855D02*
X12733333Y-51325760D01*
X12733333Y-51325760D02*
X12695238Y-51287664D01*
X16104762Y-57363855D02*
X15838095Y-56982902D01*
X15647619Y-57363855D02*
X15647619Y-56563855D01*
X15647619Y-56563855D02*
X15952381Y-56563855D01*
X15952381Y-56563855D02*
X16028571Y-56601950D01*
X16028571Y-56601950D02*
X16066666Y-56640045D01*
X16066666Y-56640045D02*
X16104762Y-56716236D01*
X16104762Y-56716236D02*
X16104762Y-56830521D01*
X16104762Y-56830521D02*
X16066666Y-56906712D01*
X16066666Y-56906712D02*
X16028571Y-56944807D01*
X16028571Y-56944807D02*
X15952381Y-56982902D01*
X15952381Y-56982902D02*
X15647619Y-56982902D01*
X16866666Y-57363855D02*
X16409523Y-57363855D01*
X16638095Y-57363855D02*
X16638095Y-56563855D01*
X16638095Y-56563855D02*
X16561904Y-56678140D01*
X16561904Y-56678140D02*
X16485714Y-56754331D01*
X16485714Y-56754331D02*
X16409523Y-56792426D01*
X17361905Y-56563855D02*
X17438095Y-56563855D01*
X17438095Y-56563855D02*
X17514286Y-56601950D01*
X17514286Y-56601950D02*
X17552381Y-56640045D01*
X17552381Y-56640045D02*
X17590476Y-56716236D01*
X17590476Y-56716236D02*
X17628571Y-56868617D01*
X17628571Y-56868617D02*
X17628571Y-57059093D01*
X17628571Y-57059093D02*
X17590476Y-57211474D01*
X17590476Y-57211474D02*
X17552381Y-57287664D01*
X17552381Y-57287664D02*
X17514286Y-57325760D01*
X17514286Y-57325760D02*
X17438095Y-57363855D01*
X17438095Y-57363855D02*
X17361905Y-57363855D01*
X17361905Y-57363855D02*
X17285714Y-57325760D01*
X17285714Y-57325760D02*
X17247619Y-57287664D01*
X17247619Y-57287664D02*
X17209524Y-57211474D01*
X17209524Y-57211474D02*
X17171428Y-57059093D01*
X17171428Y-57059093D02*
X17171428Y-56868617D01*
X17171428Y-56868617D02*
X17209524Y-56716236D01*
X17209524Y-56716236D02*
X17247619Y-56640045D01*
X17247619Y-56640045D02*
X17285714Y-56601950D01*
X17285714Y-56601950D02*
X17361905Y-56563855D01*
X18390476Y-57363855D02*
X17933333Y-57363855D01*
X18161905Y-57363855D02*
X18161905Y-56563855D01*
X18161905Y-56563855D02*
X18085714Y-56678140D01*
X18085714Y-56678140D02*
X18009524Y-56754331D01*
X18009524Y-56754331D02*
X17933333Y-56792426D01*
X30540476Y-36063855D02*
X30540476Y-36711474D01*
X30540476Y-36711474D02*
X30578571Y-36787664D01*
X30578571Y-36787664D02*
X30616666Y-36825760D01*
X30616666Y-36825760D02*
X30692857Y-36863855D01*
X30692857Y-36863855D02*
X30845238Y-36863855D01*
X30845238Y-36863855D02*
X30921428Y-36825760D01*
X30921428Y-36825760D02*
X30959523Y-36787664D01*
X30959523Y-36787664D02*
X30997619Y-36711474D01*
X30997619Y-36711474D02*
X30997619Y-36063855D01*
X31340475Y-36140045D02*
X31378571Y-36101950D01*
X31378571Y-36101950D02*
X31454761Y-36063855D01*
X31454761Y-36063855D02*
X31645237Y-36063855D01*
X31645237Y-36063855D02*
X31721428Y-36101950D01*
X31721428Y-36101950D02*
X31759523Y-36140045D01*
X31759523Y-36140045D02*
X31797618Y-36216236D01*
X31797618Y-36216236D02*
X31797618Y-36292426D01*
X31797618Y-36292426D02*
X31759523Y-36406712D01*
X31759523Y-36406712D02*
X31302380Y-36863855D01*
X31302380Y-36863855D02*
X31797618Y-36863855D01*
X35254761Y-59363855D02*
X34873809Y-59363855D01*
X34873809Y-59363855D02*
X34873809Y-58563855D01*
X35521428Y-58944807D02*
X35788094Y-58944807D01*
X35902380Y-59363855D02*
X35521428Y-59363855D01*
X35521428Y-59363855D02*
X35521428Y-58563855D01*
X35521428Y-58563855D02*
X35902380Y-58563855D01*
X36245238Y-59363855D02*
X36245238Y-58563855D01*
X36245238Y-58563855D02*
X36435714Y-58563855D01*
X36435714Y-58563855D02*
X36550000Y-58601950D01*
X36550000Y-58601950D02*
X36626190Y-58678140D01*
X36626190Y-58678140D02*
X36664285Y-58754331D01*
X36664285Y-58754331D02*
X36702381Y-58906712D01*
X36702381Y-58906712D02*
X36702381Y-59020998D01*
X36702381Y-59020998D02*
X36664285Y-59173379D01*
X36664285Y-59173379D02*
X36626190Y-59249569D01*
X36626190Y-59249569D02*
X36550000Y-59325760D01*
X36550000Y-59325760D02*
X36435714Y-59363855D01*
X36435714Y-59363855D02*
X36245238Y-59363855D01*
X36969047Y-58563855D02*
X37464285Y-58563855D01*
X37464285Y-58563855D02*
X37197619Y-58868617D01*
X37197619Y-58868617D02*
X37311904Y-58868617D01*
X37311904Y-58868617D02*
X37388095Y-58906712D01*
X37388095Y-58906712D02*
X37426190Y-58944807D01*
X37426190Y-58944807D02*
X37464285Y-59020998D01*
X37464285Y-59020998D02*
X37464285Y-59211474D01*
X37464285Y-59211474D02*
X37426190Y-59287664D01*
X37426190Y-59287664D02*
X37388095Y-59325760D01*
X37388095Y-59325760D02*
X37311904Y-59363855D01*
X37311904Y-59363855D02*
X37083333Y-59363855D01*
X37083333Y-59363855D02*
X37007142Y-59325760D01*
X37007142Y-59325760D02*
X36969047Y-59287664D01*
X15490476Y-36063855D02*
X15490476Y-36711474D01*
X15490476Y-36711474D02*
X15528571Y-36787664D01*
X15528571Y-36787664D02*
X15566666Y-36825760D01*
X15566666Y-36825760D02*
X15642857Y-36863855D01*
X15642857Y-36863855D02*
X15795238Y-36863855D01*
X15795238Y-36863855D02*
X15871428Y-36825760D01*
X15871428Y-36825760D02*
X15909523Y-36787664D01*
X15909523Y-36787664D02*
X15947619Y-36711474D01*
X15947619Y-36711474D02*
X15947619Y-36063855D01*
X16747618Y-36863855D02*
X16290475Y-36863855D01*
X16519047Y-36863855D02*
X16519047Y-36063855D01*
X16519047Y-36063855D02*
X16442856Y-36178140D01*
X16442856Y-36178140D02*
X16366666Y-36254331D01*
X16366666Y-36254331D02*
X16290475Y-36292426D01*
X5654761Y-59363855D02*
X5273809Y-59363855D01*
X5273809Y-59363855D02*
X5273809Y-58563855D01*
X5921428Y-58944807D02*
X6188094Y-58944807D01*
X6302380Y-59363855D02*
X5921428Y-59363855D01*
X5921428Y-59363855D02*
X5921428Y-58563855D01*
X5921428Y-58563855D02*
X6302380Y-58563855D01*
X6645238Y-59363855D02*
X6645238Y-58563855D01*
X6645238Y-58563855D02*
X6835714Y-58563855D01*
X6835714Y-58563855D02*
X6950000Y-58601950D01*
X6950000Y-58601950D02*
X7026190Y-58678140D01*
X7026190Y-58678140D02*
X7064285Y-58754331D01*
X7064285Y-58754331D02*
X7102381Y-58906712D01*
X7102381Y-58906712D02*
X7102381Y-59020998D01*
X7102381Y-59020998D02*
X7064285Y-59173379D01*
X7064285Y-59173379D02*
X7026190Y-59249569D01*
X7026190Y-59249569D02*
X6950000Y-59325760D01*
X6950000Y-59325760D02*
X6835714Y-59363855D01*
X6835714Y-59363855D02*
X6645238Y-59363855D01*
X7864285Y-59363855D02*
X7407142Y-59363855D01*
X7635714Y-59363855D02*
X7635714Y-58563855D01*
X7635714Y-58563855D02*
X7559523Y-58678140D01*
X7559523Y-58678140D02*
X7483333Y-58754331D01*
X7483333Y-58754331D02*
X7407142Y-58792426D01*
X57104762Y-25363855D02*
X56838095Y-24982902D01*
X56647619Y-25363855D02*
X56647619Y-24563855D01*
X56647619Y-24563855D02*
X56952381Y-24563855D01*
X56952381Y-24563855D02*
X57028571Y-24601950D01*
X57028571Y-24601950D02*
X57066666Y-24640045D01*
X57066666Y-24640045D02*
X57104762Y-24716236D01*
X57104762Y-24716236D02*
X57104762Y-24830521D01*
X57104762Y-24830521D02*
X57066666Y-24906712D01*
X57066666Y-24906712D02*
X57028571Y-24944807D01*
X57028571Y-24944807D02*
X56952381Y-24982902D01*
X56952381Y-24982902D02*
X56647619Y-24982902D01*
X57790476Y-24830521D02*
X57790476Y-25363855D01*
X57600000Y-24525760D02*
X57409523Y-25097188D01*
X57409523Y-25097188D02*
X57904762Y-25097188D01*
X58361905Y-24563855D02*
X58438095Y-24563855D01*
X58438095Y-24563855D02*
X58514286Y-24601950D01*
X58514286Y-24601950D02*
X58552381Y-24640045D01*
X58552381Y-24640045D02*
X58590476Y-24716236D01*
X58590476Y-24716236D02*
X58628571Y-24868617D01*
X58628571Y-24868617D02*
X58628571Y-25059093D01*
X58628571Y-25059093D02*
X58590476Y-25211474D01*
X58590476Y-25211474D02*
X58552381Y-25287664D01*
X58552381Y-25287664D02*
X58514286Y-25325760D01*
X58514286Y-25325760D02*
X58438095Y-25363855D01*
X58438095Y-25363855D02*
X58361905Y-25363855D01*
X58361905Y-25363855D02*
X58285714Y-25325760D01*
X58285714Y-25325760D02*
X58247619Y-25287664D01*
X58247619Y-25287664D02*
X58209524Y-25211474D01*
X58209524Y-25211474D02*
X58171428Y-25059093D01*
X58171428Y-25059093D02*
X58171428Y-24868617D01*
X58171428Y-24868617D02*
X58209524Y-24716236D01*
X58209524Y-24716236D02*
X58247619Y-24640045D01*
X58247619Y-24640045D02*
X58285714Y-24601950D01*
X58285714Y-24601950D02*
X58361905Y-24563855D01*
X59352381Y-24563855D02*
X58971429Y-24563855D01*
X58971429Y-24563855D02*
X58933333Y-24944807D01*
X58933333Y-24944807D02*
X58971429Y-24906712D01*
X58971429Y-24906712D02*
X59047619Y-24868617D01*
X59047619Y-24868617D02*
X59238095Y-24868617D01*
X59238095Y-24868617D02*
X59314286Y-24906712D01*
X59314286Y-24906712D02*
X59352381Y-24944807D01*
X59352381Y-24944807D02*
X59390476Y-25020998D01*
X59390476Y-25020998D02*
X59390476Y-25211474D01*
X59390476Y-25211474D02*
X59352381Y-25287664D01*
X59352381Y-25287664D02*
X59314286Y-25325760D01*
X59314286Y-25325760D02*
X59238095Y-25363855D01*
X59238095Y-25363855D02*
X59047619Y-25363855D01*
X59047619Y-25363855D02*
X58971429Y-25325760D01*
X58971429Y-25325760D02*
X58933333Y-25287664D01*
X40804762Y-51363855D02*
X40538095Y-50982902D01*
X40347619Y-51363855D02*
X40347619Y-50563855D01*
X40347619Y-50563855D02*
X40652381Y-50563855D01*
X40652381Y-50563855D02*
X40728571Y-50601950D01*
X40728571Y-50601950D02*
X40766666Y-50640045D01*
X40766666Y-50640045D02*
X40804762Y-50716236D01*
X40804762Y-50716236D02*
X40804762Y-50830521D01*
X40804762Y-50830521D02*
X40766666Y-50906712D01*
X40766666Y-50906712D02*
X40728571Y-50944807D01*
X40728571Y-50944807D02*
X40652381Y-50982902D01*
X40652381Y-50982902D02*
X40347619Y-50982902D01*
X41071428Y-50563855D02*
X41566666Y-50563855D01*
X41566666Y-50563855D02*
X41300000Y-50868617D01*
X41300000Y-50868617D02*
X41414285Y-50868617D01*
X41414285Y-50868617D02*
X41490476Y-50906712D01*
X41490476Y-50906712D02*
X41528571Y-50944807D01*
X41528571Y-50944807D02*
X41566666Y-51020998D01*
X41566666Y-51020998D02*
X41566666Y-51211474D01*
X41566666Y-51211474D02*
X41528571Y-51287664D01*
X41528571Y-51287664D02*
X41490476Y-51325760D01*
X41490476Y-51325760D02*
X41414285Y-51363855D01*
X41414285Y-51363855D02*
X41185714Y-51363855D01*
X41185714Y-51363855D02*
X41109523Y-51325760D01*
X41109523Y-51325760D02*
X41071428Y-51287664D01*
X42061905Y-50563855D02*
X42138095Y-50563855D01*
X42138095Y-50563855D02*
X42214286Y-50601950D01*
X42214286Y-50601950D02*
X42252381Y-50640045D01*
X42252381Y-50640045D02*
X42290476Y-50716236D01*
X42290476Y-50716236D02*
X42328571Y-50868617D01*
X42328571Y-50868617D02*
X42328571Y-51059093D01*
X42328571Y-51059093D02*
X42290476Y-51211474D01*
X42290476Y-51211474D02*
X42252381Y-51287664D01*
X42252381Y-51287664D02*
X42214286Y-51325760D01*
X42214286Y-51325760D02*
X42138095Y-51363855D01*
X42138095Y-51363855D02*
X42061905Y-51363855D01*
X42061905Y-51363855D02*
X41985714Y-51325760D01*
X41985714Y-51325760D02*
X41947619Y-51287664D01*
X41947619Y-51287664D02*
X41909524Y-51211474D01*
X41909524Y-51211474D02*
X41871428Y-51059093D01*
X41871428Y-51059093D02*
X41871428Y-50868617D01*
X41871428Y-50868617D02*
X41909524Y-50716236D01*
X41909524Y-50716236D02*
X41947619Y-50640045D01*
X41947619Y-50640045D02*
X41985714Y-50601950D01*
X41985714Y-50601950D02*
X42061905Y-50563855D01*
X42595238Y-50563855D02*
X43090476Y-50563855D01*
X43090476Y-50563855D02*
X42823810Y-50868617D01*
X42823810Y-50868617D02*
X42938095Y-50868617D01*
X42938095Y-50868617D02*
X43014286Y-50906712D01*
X43014286Y-50906712D02*
X43052381Y-50944807D01*
X43052381Y-50944807D02*
X43090476Y-51020998D01*
X43090476Y-51020998D02*
X43090476Y-51211474D01*
X43090476Y-51211474D02*
X43052381Y-51287664D01*
X43052381Y-51287664D02*
X43014286Y-51325760D01*
X43014286Y-51325760D02*
X42938095Y-51363855D01*
X42938095Y-51363855D02*
X42709524Y-51363855D01*
X42709524Y-51363855D02*
X42633333Y-51325760D01*
X42633333Y-51325760D02*
X42595238Y-51287664D01*
X29409524Y-64363855D02*
X29409524Y-63563855D01*
X29409524Y-63563855D02*
X29600000Y-63563855D01*
X29600000Y-63563855D02*
X29714286Y-63601950D01*
X29714286Y-63601950D02*
X29790476Y-63678140D01*
X29790476Y-63678140D02*
X29828571Y-63754331D01*
X29828571Y-63754331D02*
X29866667Y-63906712D01*
X29866667Y-63906712D02*
X29866667Y-64020998D01*
X29866667Y-64020998D02*
X29828571Y-64173379D01*
X29828571Y-64173379D02*
X29790476Y-64249569D01*
X29790476Y-64249569D02*
X29714286Y-64325760D01*
X29714286Y-64325760D02*
X29600000Y-64363855D01*
X29600000Y-64363855D02*
X29409524Y-64363855D01*
X30247619Y-64363855D02*
X30400000Y-64363855D01*
X30400000Y-64363855D02*
X30476190Y-64325760D01*
X30476190Y-64325760D02*
X30514286Y-64287664D01*
X30514286Y-64287664D02*
X30590476Y-64173379D01*
X30590476Y-64173379D02*
X30628571Y-64020998D01*
X30628571Y-64020998D02*
X30628571Y-63716236D01*
X30628571Y-63716236D02*
X30590476Y-63640045D01*
X30590476Y-63640045D02*
X30552381Y-63601950D01*
X30552381Y-63601950D02*
X30476190Y-63563855D01*
X30476190Y-63563855D02*
X30323809Y-63563855D01*
X30323809Y-63563855D02*
X30247619Y-63601950D01*
X30247619Y-63601950D02*
X30209524Y-63640045D01*
X30209524Y-63640045D02*
X30171428Y-63716236D01*
X30171428Y-63716236D02*
X30171428Y-63906712D01*
X30171428Y-63906712D02*
X30209524Y-63982902D01*
X30209524Y-63982902D02*
X30247619Y-64020998D01*
X30247619Y-64020998D02*
X30323809Y-64059093D01*
X30323809Y-64059093D02*
X30476190Y-64059093D01*
X30476190Y-64059093D02*
X30552381Y-64020998D01*
X30552381Y-64020998D02*
X30590476Y-63982902D01*
X30590476Y-63982902D02*
X30628571Y-63906712D01*
X13733333Y-69544807D02*
X13466667Y-69544807D01*
X13466667Y-69963855D02*
X13466667Y-69163855D01*
X13466667Y-69163855D02*
X13847619Y-69163855D01*
X14571428Y-69963855D02*
X14114285Y-69963855D01*
X14342857Y-69963855D02*
X14342857Y-69163855D01*
X14342857Y-69163855D02*
X14266666Y-69278140D01*
X14266666Y-69278140D02*
X14190476Y-69354331D01*
X14190476Y-69354331D02*
X14114285Y-69392426D01*
X10954762Y-55363855D02*
X10688095Y-54982902D01*
X10497619Y-55363855D02*
X10497619Y-54563855D01*
X10497619Y-54563855D02*
X10802381Y-54563855D01*
X10802381Y-54563855D02*
X10878571Y-54601950D01*
X10878571Y-54601950D02*
X10916666Y-54640045D01*
X10916666Y-54640045D02*
X10954762Y-54716236D01*
X10954762Y-54716236D02*
X10954762Y-54830521D01*
X10954762Y-54830521D02*
X10916666Y-54906712D01*
X10916666Y-54906712D02*
X10878571Y-54944807D01*
X10878571Y-54944807D02*
X10802381Y-54982902D01*
X10802381Y-54982902D02*
X10497619Y-54982902D01*
X11716666Y-55363855D02*
X11259523Y-55363855D01*
X11488095Y-55363855D02*
X11488095Y-54563855D01*
X11488095Y-54563855D02*
X11411904Y-54678140D01*
X11411904Y-54678140D02*
X11335714Y-54754331D01*
X11335714Y-54754331D02*
X11259523Y-54792426D01*
X12211905Y-54563855D02*
X12288095Y-54563855D01*
X12288095Y-54563855D02*
X12364286Y-54601950D01*
X12364286Y-54601950D02*
X12402381Y-54640045D01*
X12402381Y-54640045D02*
X12440476Y-54716236D01*
X12440476Y-54716236D02*
X12478571Y-54868617D01*
X12478571Y-54868617D02*
X12478571Y-55059093D01*
X12478571Y-55059093D02*
X12440476Y-55211474D01*
X12440476Y-55211474D02*
X12402381Y-55287664D01*
X12402381Y-55287664D02*
X12364286Y-55325760D01*
X12364286Y-55325760D02*
X12288095Y-55363855D01*
X12288095Y-55363855D02*
X12211905Y-55363855D01*
X12211905Y-55363855D02*
X12135714Y-55325760D01*
X12135714Y-55325760D02*
X12097619Y-55287664D01*
X12097619Y-55287664D02*
X12059524Y-55211474D01*
X12059524Y-55211474D02*
X12021428Y-55059093D01*
X12021428Y-55059093D02*
X12021428Y-54868617D01*
X12021428Y-54868617D02*
X12059524Y-54716236D01*
X12059524Y-54716236D02*
X12097619Y-54640045D01*
X12097619Y-54640045D02*
X12135714Y-54601950D01*
X12135714Y-54601950D02*
X12211905Y-54563855D01*
X13164286Y-54830521D02*
X13164286Y-55363855D01*
X12973810Y-54525760D02*
X12783333Y-55097188D01*
X12783333Y-55097188D02*
X13278572Y-55097188D01*
X45866667Y-67987664D02*
X45828571Y-68025760D01*
X45828571Y-68025760D02*
X45714286Y-68063855D01*
X45714286Y-68063855D02*
X45638095Y-68063855D01*
X45638095Y-68063855D02*
X45523809Y-68025760D01*
X45523809Y-68025760D02*
X45447619Y-67949569D01*
X45447619Y-67949569D02*
X45409524Y-67873379D01*
X45409524Y-67873379D02*
X45371428Y-67720998D01*
X45371428Y-67720998D02*
X45371428Y-67606712D01*
X45371428Y-67606712D02*
X45409524Y-67454331D01*
X45409524Y-67454331D02*
X45447619Y-67378140D01*
X45447619Y-67378140D02*
X45523809Y-67301950D01*
X45523809Y-67301950D02*
X45638095Y-67263855D01*
X45638095Y-67263855D02*
X45714286Y-67263855D01*
X45714286Y-67263855D02*
X45828571Y-67301950D01*
X45828571Y-67301950D02*
X45866667Y-67340045D01*
X46628571Y-68063855D02*
X46171428Y-68063855D01*
X46400000Y-68063855D02*
X46400000Y-67263855D01*
X46400000Y-67263855D02*
X46323809Y-67378140D01*
X46323809Y-67378140D02*
X46247619Y-67454331D01*
X46247619Y-67454331D02*
X46171428Y-67492426D01*
X26004762Y-55363855D02*
X25738095Y-54982902D01*
X25547619Y-55363855D02*
X25547619Y-54563855D01*
X25547619Y-54563855D02*
X25852381Y-54563855D01*
X25852381Y-54563855D02*
X25928571Y-54601950D01*
X25928571Y-54601950D02*
X25966666Y-54640045D01*
X25966666Y-54640045D02*
X26004762Y-54716236D01*
X26004762Y-54716236D02*
X26004762Y-54830521D01*
X26004762Y-54830521D02*
X25966666Y-54906712D01*
X25966666Y-54906712D02*
X25928571Y-54944807D01*
X25928571Y-54944807D02*
X25852381Y-54982902D01*
X25852381Y-54982902D02*
X25547619Y-54982902D01*
X26309523Y-54640045D02*
X26347619Y-54601950D01*
X26347619Y-54601950D02*
X26423809Y-54563855D01*
X26423809Y-54563855D02*
X26614285Y-54563855D01*
X26614285Y-54563855D02*
X26690476Y-54601950D01*
X26690476Y-54601950D02*
X26728571Y-54640045D01*
X26728571Y-54640045D02*
X26766666Y-54716236D01*
X26766666Y-54716236D02*
X26766666Y-54792426D01*
X26766666Y-54792426D02*
X26728571Y-54906712D01*
X26728571Y-54906712D02*
X26271428Y-55363855D01*
X26271428Y-55363855D02*
X26766666Y-55363855D01*
X27261905Y-54563855D02*
X27338095Y-54563855D01*
X27338095Y-54563855D02*
X27414286Y-54601950D01*
X27414286Y-54601950D02*
X27452381Y-54640045D01*
X27452381Y-54640045D02*
X27490476Y-54716236D01*
X27490476Y-54716236D02*
X27528571Y-54868617D01*
X27528571Y-54868617D02*
X27528571Y-55059093D01*
X27528571Y-55059093D02*
X27490476Y-55211474D01*
X27490476Y-55211474D02*
X27452381Y-55287664D01*
X27452381Y-55287664D02*
X27414286Y-55325760D01*
X27414286Y-55325760D02*
X27338095Y-55363855D01*
X27338095Y-55363855D02*
X27261905Y-55363855D01*
X27261905Y-55363855D02*
X27185714Y-55325760D01*
X27185714Y-55325760D02*
X27147619Y-55287664D01*
X27147619Y-55287664D02*
X27109524Y-55211474D01*
X27109524Y-55211474D02*
X27071428Y-55059093D01*
X27071428Y-55059093D02*
X27071428Y-54868617D01*
X27071428Y-54868617D02*
X27109524Y-54716236D01*
X27109524Y-54716236D02*
X27147619Y-54640045D01*
X27147619Y-54640045D02*
X27185714Y-54601950D01*
X27185714Y-54601950D02*
X27261905Y-54563855D01*
X28214286Y-54830521D02*
X28214286Y-55363855D01*
X28023810Y-54525760D02*
X27833333Y-55097188D01*
X27833333Y-55097188D02*
X28328572Y-55097188D01*
X61409524Y-53363855D02*
X61409524Y-52563855D01*
X61409524Y-52563855D02*
X61600000Y-52563855D01*
X61600000Y-52563855D02*
X61714286Y-52601950D01*
X61714286Y-52601950D02*
X61790476Y-52678140D01*
X61790476Y-52678140D02*
X61828571Y-52754331D01*
X61828571Y-52754331D02*
X61866667Y-52906712D01*
X61866667Y-52906712D02*
X61866667Y-53020998D01*
X61866667Y-53020998D02*
X61828571Y-53173379D01*
X61828571Y-53173379D02*
X61790476Y-53249569D01*
X61790476Y-53249569D02*
X61714286Y-53325760D01*
X61714286Y-53325760D02*
X61600000Y-53363855D01*
X61600000Y-53363855D02*
X61409524Y-53363855D01*
X62552381Y-52830521D02*
X62552381Y-53363855D01*
X62361905Y-52525760D02*
X62171428Y-53097188D01*
X62171428Y-53097188D02*
X62666667Y-53097188D01*
X8603333Y-4563855D02*
X8603333Y-5135283D01*
X8603333Y-5135283D02*
X8565238Y-5249569D01*
X8565238Y-5249569D02*
X8489047Y-5325760D01*
X8489047Y-5325760D02*
X8374762Y-5363855D01*
X8374762Y-5363855D02*
X8298571Y-5363855D01*
X9365238Y-4563855D02*
X8984286Y-4563855D01*
X8984286Y-4563855D02*
X8946190Y-4944807D01*
X8946190Y-4944807D02*
X8984286Y-4906712D01*
X8984286Y-4906712D02*
X9060476Y-4868617D01*
X9060476Y-4868617D02*
X9250952Y-4868617D01*
X9250952Y-4868617D02*
X9327143Y-4906712D01*
X9327143Y-4906712D02*
X9365238Y-4944807D01*
X9365238Y-4944807D02*
X9403333Y-5020998D01*
X9403333Y-5020998D02*
X9403333Y-5211474D01*
X9403333Y-5211474D02*
X9365238Y-5287664D01*
X9365238Y-5287664D02*
X9327143Y-5325760D01*
X9327143Y-5325760D02*
X9250952Y-5363855D01*
X9250952Y-5363855D02*
X9060476Y-5363855D01*
X9060476Y-5363855D02*
X8984286Y-5325760D01*
X8984286Y-5325760D02*
X8946190Y-5287664D01*
X7273809Y-49440045D02*
X7197619Y-49401950D01*
X7197619Y-49401950D02*
X7121428Y-49325760D01*
X7121428Y-49325760D02*
X7007142Y-49211474D01*
X7007142Y-49211474D02*
X6930952Y-49173379D01*
X6930952Y-49173379D02*
X6854761Y-49173379D01*
X6892857Y-49363855D02*
X6816666Y-49325760D01*
X6816666Y-49325760D02*
X6740476Y-49249569D01*
X6740476Y-49249569D02*
X6702380Y-49097188D01*
X6702380Y-49097188D02*
X6702380Y-48830521D01*
X6702380Y-48830521D02*
X6740476Y-48678140D01*
X6740476Y-48678140D02*
X6816666Y-48601950D01*
X6816666Y-48601950D02*
X6892857Y-48563855D01*
X6892857Y-48563855D02*
X7045238Y-48563855D01*
X7045238Y-48563855D02*
X7121428Y-48601950D01*
X7121428Y-48601950D02*
X7197619Y-48678140D01*
X7197619Y-48678140D02*
X7235714Y-48830521D01*
X7235714Y-48830521D02*
X7235714Y-49097188D01*
X7235714Y-49097188D02*
X7197619Y-49249569D01*
X7197619Y-49249569D02*
X7121428Y-49325760D01*
X7121428Y-49325760D02*
X7045238Y-49363855D01*
X7045238Y-49363855D02*
X6892857Y-49363855D01*
X7997618Y-49363855D02*
X7540475Y-49363855D01*
X7769047Y-49363855D02*
X7769047Y-48563855D01*
X7769047Y-48563855D02*
X7692856Y-48678140D01*
X7692856Y-48678140D02*
X7616666Y-48754331D01*
X7616666Y-48754331D02*
X7540475Y-48792426D01*
X20454761Y-59363855D02*
X20073809Y-59363855D01*
X20073809Y-59363855D02*
X20073809Y-58563855D01*
X20721428Y-58944807D02*
X20988094Y-58944807D01*
X21102380Y-59363855D02*
X20721428Y-59363855D01*
X20721428Y-59363855D02*
X20721428Y-58563855D01*
X20721428Y-58563855D02*
X21102380Y-58563855D01*
X21445238Y-59363855D02*
X21445238Y-58563855D01*
X21445238Y-58563855D02*
X21635714Y-58563855D01*
X21635714Y-58563855D02*
X21750000Y-58601950D01*
X21750000Y-58601950D02*
X21826190Y-58678140D01*
X21826190Y-58678140D02*
X21864285Y-58754331D01*
X21864285Y-58754331D02*
X21902381Y-58906712D01*
X21902381Y-58906712D02*
X21902381Y-59020998D01*
X21902381Y-59020998D02*
X21864285Y-59173379D01*
X21864285Y-59173379D02*
X21826190Y-59249569D01*
X21826190Y-59249569D02*
X21750000Y-59325760D01*
X21750000Y-59325760D02*
X21635714Y-59363855D01*
X21635714Y-59363855D02*
X21445238Y-59363855D01*
X22207142Y-58640045D02*
X22245238Y-58601950D01*
X22245238Y-58601950D02*
X22321428Y-58563855D01*
X22321428Y-58563855D02*
X22511904Y-58563855D01*
X22511904Y-58563855D02*
X22588095Y-58601950D01*
X22588095Y-58601950D02*
X22626190Y-58640045D01*
X22626190Y-58640045D02*
X22664285Y-58716236D01*
X22664285Y-58716236D02*
X22664285Y-58792426D01*
X22664285Y-58792426D02*
X22626190Y-58906712D01*
X22626190Y-58906712D02*
X22169047Y-59363855D01*
X22169047Y-59363855D02*
X22664285Y-59363855D01*
X16409524Y-53363855D02*
X16409524Y-52563855D01*
X16409524Y-52563855D02*
X16600000Y-52563855D01*
X16600000Y-52563855D02*
X16714286Y-52601950D01*
X16714286Y-52601950D02*
X16790476Y-52678140D01*
X16790476Y-52678140D02*
X16828571Y-52754331D01*
X16828571Y-52754331D02*
X16866667Y-52906712D01*
X16866667Y-52906712D02*
X16866667Y-53020998D01*
X16866667Y-53020998D02*
X16828571Y-53173379D01*
X16828571Y-53173379D02*
X16790476Y-53249569D01*
X16790476Y-53249569D02*
X16714286Y-53325760D01*
X16714286Y-53325760D02*
X16600000Y-53363855D01*
X16600000Y-53363855D02*
X16409524Y-53363855D01*
X17628571Y-53363855D02*
X17171428Y-53363855D01*
X17400000Y-53363855D02*
X17400000Y-52563855D01*
X17400000Y-52563855D02*
X17323809Y-52678140D01*
X17323809Y-52678140D02*
X17247619Y-52754331D01*
X17247619Y-52754331D02*
X17171428Y-52792426D01*
X60440476Y-36063855D02*
X60440476Y-36711474D01*
X60440476Y-36711474D02*
X60478571Y-36787664D01*
X60478571Y-36787664D02*
X60516666Y-36825760D01*
X60516666Y-36825760D02*
X60592857Y-36863855D01*
X60592857Y-36863855D02*
X60745238Y-36863855D01*
X60745238Y-36863855D02*
X60821428Y-36825760D01*
X60821428Y-36825760D02*
X60859523Y-36787664D01*
X60859523Y-36787664D02*
X60897619Y-36711474D01*
X60897619Y-36711474D02*
X60897619Y-36063855D01*
X61621428Y-36330521D02*
X61621428Y-36863855D01*
X61430952Y-36025760D02*
X61240475Y-36597188D01*
X61240475Y-36597188D02*
X61735714Y-36597188D01*
X46104762Y-57363855D02*
X45838095Y-56982902D01*
X45647619Y-57363855D02*
X45647619Y-56563855D01*
X45647619Y-56563855D02*
X45952381Y-56563855D01*
X45952381Y-56563855D02*
X46028571Y-56601950D01*
X46028571Y-56601950D02*
X46066666Y-56640045D01*
X46066666Y-56640045D02*
X46104762Y-56716236D01*
X46104762Y-56716236D02*
X46104762Y-56830521D01*
X46104762Y-56830521D02*
X46066666Y-56906712D01*
X46066666Y-56906712D02*
X46028571Y-56944807D01*
X46028571Y-56944807D02*
X45952381Y-56982902D01*
X45952381Y-56982902D02*
X45647619Y-56982902D01*
X46371428Y-56563855D02*
X46866666Y-56563855D01*
X46866666Y-56563855D02*
X46600000Y-56868617D01*
X46600000Y-56868617D02*
X46714285Y-56868617D01*
X46714285Y-56868617D02*
X46790476Y-56906712D01*
X46790476Y-56906712D02*
X46828571Y-56944807D01*
X46828571Y-56944807D02*
X46866666Y-57020998D01*
X46866666Y-57020998D02*
X46866666Y-57211474D01*
X46866666Y-57211474D02*
X46828571Y-57287664D01*
X46828571Y-57287664D02*
X46790476Y-57325760D01*
X46790476Y-57325760D02*
X46714285Y-57363855D01*
X46714285Y-57363855D02*
X46485714Y-57363855D01*
X46485714Y-57363855D02*
X46409523Y-57325760D01*
X46409523Y-57325760D02*
X46371428Y-57287664D01*
X47361905Y-56563855D02*
X47438095Y-56563855D01*
X47438095Y-56563855D02*
X47514286Y-56601950D01*
X47514286Y-56601950D02*
X47552381Y-56640045D01*
X47552381Y-56640045D02*
X47590476Y-56716236D01*
X47590476Y-56716236D02*
X47628571Y-56868617D01*
X47628571Y-56868617D02*
X47628571Y-57059093D01*
X47628571Y-57059093D02*
X47590476Y-57211474D01*
X47590476Y-57211474D02*
X47552381Y-57287664D01*
X47552381Y-57287664D02*
X47514286Y-57325760D01*
X47514286Y-57325760D02*
X47438095Y-57363855D01*
X47438095Y-57363855D02*
X47361905Y-57363855D01*
X47361905Y-57363855D02*
X47285714Y-57325760D01*
X47285714Y-57325760D02*
X47247619Y-57287664D01*
X47247619Y-57287664D02*
X47209524Y-57211474D01*
X47209524Y-57211474D02*
X47171428Y-57059093D01*
X47171428Y-57059093D02*
X47171428Y-56868617D01*
X47171428Y-56868617D02*
X47209524Y-56716236D01*
X47209524Y-56716236D02*
X47247619Y-56640045D01*
X47247619Y-56640045D02*
X47285714Y-56601950D01*
X47285714Y-56601950D02*
X47361905Y-56563855D01*
X48390476Y-57363855D02*
X47933333Y-57363855D01*
X48161905Y-57363855D02*
X48161905Y-56563855D01*
X48161905Y-56563855D02*
X48085714Y-56678140D01*
X48085714Y-56678140D02*
X48009524Y-56754331D01*
X48009524Y-56754331D02*
X47933333Y-56792426D01*
X58254762Y-47363855D02*
X57988095Y-46982902D01*
X57797619Y-47363855D02*
X57797619Y-46563855D01*
X57797619Y-46563855D02*
X58102381Y-46563855D01*
X58102381Y-46563855D02*
X58178571Y-46601950D01*
X58178571Y-46601950D02*
X58216666Y-46640045D01*
X58216666Y-46640045D02*
X58254762Y-46716236D01*
X58254762Y-46716236D02*
X58254762Y-46830521D01*
X58254762Y-46830521D02*
X58216666Y-46906712D01*
X58216666Y-46906712D02*
X58178571Y-46944807D01*
X58178571Y-46944807D02*
X58102381Y-46982902D01*
X58102381Y-46982902D02*
X57797619Y-46982902D01*
X58940476Y-46830521D02*
X58940476Y-47363855D01*
X58750000Y-46525760D02*
X58559523Y-47097188D01*
X58559523Y-47097188D02*
X59054762Y-47097188D01*
X59511905Y-46563855D02*
X59588095Y-46563855D01*
X59588095Y-46563855D02*
X59664286Y-46601950D01*
X59664286Y-46601950D02*
X59702381Y-46640045D01*
X59702381Y-46640045D02*
X59740476Y-46716236D01*
X59740476Y-46716236D02*
X59778571Y-46868617D01*
X59778571Y-46868617D02*
X59778571Y-47059093D01*
X59778571Y-47059093D02*
X59740476Y-47211474D01*
X59740476Y-47211474D02*
X59702381Y-47287664D01*
X59702381Y-47287664D02*
X59664286Y-47325760D01*
X59664286Y-47325760D02*
X59588095Y-47363855D01*
X59588095Y-47363855D02*
X59511905Y-47363855D01*
X59511905Y-47363855D02*
X59435714Y-47325760D01*
X59435714Y-47325760D02*
X59397619Y-47287664D01*
X59397619Y-47287664D02*
X59359524Y-47211474D01*
X59359524Y-47211474D02*
X59321428Y-47059093D01*
X59321428Y-47059093D02*
X59321428Y-46868617D01*
X59321428Y-46868617D02*
X59359524Y-46716236D01*
X59359524Y-46716236D02*
X59397619Y-46640045D01*
X59397619Y-46640045D02*
X59435714Y-46601950D01*
X59435714Y-46601950D02*
X59511905Y-46563855D01*
X60083333Y-46640045D02*
X60121429Y-46601950D01*
X60121429Y-46601950D02*
X60197619Y-46563855D01*
X60197619Y-46563855D02*
X60388095Y-46563855D01*
X60388095Y-46563855D02*
X60464286Y-46601950D01*
X60464286Y-46601950D02*
X60502381Y-46640045D01*
X60502381Y-46640045D02*
X60540476Y-46716236D01*
X60540476Y-46716236D02*
X60540476Y-46792426D01*
X60540476Y-46792426D02*
X60502381Y-46906712D01*
X60502381Y-46906712D02*
X60045238Y-47363855D01*
X60045238Y-47363855D02*
X60540476Y-47363855D01*
X19866667Y-64363855D02*
X19600000Y-63982902D01*
X19409524Y-64363855D02*
X19409524Y-63563855D01*
X19409524Y-63563855D02*
X19714286Y-63563855D01*
X19714286Y-63563855D02*
X19790476Y-63601950D01*
X19790476Y-63601950D02*
X19828571Y-63640045D01*
X19828571Y-63640045D02*
X19866667Y-63716236D01*
X19866667Y-63716236D02*
X19866667Y-63830521D01*
X19866667Y-63830521D02*
X19828571Y-63906712D01*
X19828571Y-63906712D02*
X19790476Y-63944807D01*
X19790476Y-63944807D02*
X19714286Y-63982902D01*
X19714286Y-63982902D02*
X19409524Y-63982902D01*
X20552381Y-63563855D02*
X20400000Y-63563855D01*
X20400000Y-63563855D02*
X20323809Y-63601950D01*
X20323809Y-63601950D02*
X20285714Y-63640045D01*
X20285714Y-63640045D02*
X20209524Y-63754331D01*
X20209524Y-63754331D02*
X20171428Y-63906712D01*
X20171428Y-63906712D02*
X20171428Y-64211474D01*
X20171428Y-64211474D02*
X20209524Y-64287664D01*
X20209524Y-64287664D02*
X20247619Y-64325760D01*
X20247619Y-64325760D02*
X20323809Y-64363855D01*
X20323809Y-64363855D02*
X20476190Y-64363855D01*
X20476190Y-64363855D02*
X20552381Y-64325760D01*
X20552381Y-64325760D02*
X20590476Y-64287664D01*
X20590476Y-64287664D02*
X20628571Y-64211474D01*
X20628571Y-64211474D02*
X20628571Y-64020998D01*
X20628571Y-64020998D02*
X20590476Y-63944807D01*
X20590476Y-63944807D02*
X20552381Y-63906712D01*
X20552381Y-63906712D02*
X20476190Y-63868617D01*
X20476190Y-63868617D02*
X20323809Y-63868617D01*
X20323809Y-63868617D02*
X20247619Y-63906712D01*
X20247619Y-63906712D02*
X20209524Y-63944807D01*
X20209524Y-63944807D02*
X20171428Y-64020998D01*
X8603333Y-22343855D02*
X8603333Y-22915283D01*
X8603333Y-22915283D02*
X8565238Y-23029569D01*
X8565238Y-23029569D02*
X8489047Y-23105760D01*
X8489047Y-23105760D02*
X8374762Y-23143855D01*
X8374762Y-23143855D02*
X8298571Y-23143855D01*
X9327143Y-22610521D02*
X9327143Y-23143855D01*
X9136667Y-22305760D02*
X8946190Y-22877188D01*
X8946190Y-22877188D02*
X9441429Y-22877188D01*
X44733333Y-78613855D02*
X44733333Y-79185283D01*
X44733333Y-79185283D02*
X44695238Y-79299569D01*
X44695238Y-79299569D02*
X44619047Y-79375760D01*
X44619047Y-79375760D02*
X44504762Y-79413855D01*
X44504762Y-79413855D02*
X44428571Y-79413855D01*
X45076190Y-78690045D02*
X45114286Y-78651950D01*
X45114286Y-78651950D02*
X45190476Y-78613855D01*
X45190476Y-78613855D02*
X45380952Y-78613855D01*
X45380952Y-78613855D02*
X45457143Y-78651950D01*
X45457143Y-78651950D02*
X45495238Y-78690045D01*
X45495238Y-78690045D02*
X45533333Y-78766236D01*
X45533333Y-78766236D02*
X45533333Y-78842426D01*
X45533333Y-78842426D02*
X45495238Y-78956712D01*
X45495238Y-78956712D02*
X45038095Y-79413855D01*
X45038095Y-79413855D02*
X45533333Y-79413855D01*
X55866667Y-70287664D02*
X55828571Y-70325760D01*
X55828571Y-70325760D02*
X55714286Y-70363855D01*
X55714286Y-70363855D02*
X55638095Y-70363855D01*
X55638095Y-70363855D02*
X55523809Y-70325760D01*
X55523809Y-70325760D02*
X55447619Y-70249569D01*
X55447619Y-70249569D02*
X55409524Y-70173379D01*
X55409524Y-70173379D02*
X55371428Y-70020998D01*
X55371428Y-70020998D02*
X55371428Y-69906712D01*
X55371428Y-69906712D02*
X55409524Y-69754331D01*
X55409524Y-69754331D02*
X55447619Y-69678140D01*
X55447619Y-69678140D02*
X55523809Y-69601950D01*
X55523809Y-69601950D02*
X55638095Y-69563855D01*
X55638095Y-69563855D02*
X55714286Y-69563855D01*
X55714286Y-69563855D02*
X55828571Y-69601950D01*
X55828571Y-69601950D02*
X55866667Y-69640045D01*
X56171428Y-69640045D02*
X56209524Y-69601950D01*
X56209524Y-69601950D02*
X56285714Y-69563855D01*
X56285714Y-69563855D02*
X56476190Y-69563855D01*
X56476190Y-69563855D02*
X56552381Y-69601950D01*
X56552381Y-69601950D02*
X56590476Y-69640045D01*
X56590476Y-69640045D02*
X56628571Y-69716236D01*
X56628571Y-69716236D02*
X56628571Y-69792426D01*
X56628571Y-69792426D02*
X56590476Y-69906712D01*
X56590476Y-69906712D02*
X56133333Y-70363855D01*
X56133333Y-70363855D02*
X56628571Y-70363855D01*
X45590476Y-36063855D02*
X45590476Y-36711474D01*
X45590476Y-36711474D02*
X45628571Y-36787664D01*
X45628571Y-36787664D02*
X45666666Y-36825760D01*
X45666666Y-36825760D02*
X45742857Y-36863855D01*
X45742857Y-36863855D02*
X45895238Y-36863855D01*
X45895238Y-36863855D02*
X45971428Y-36825760D01*
X45971428Y-36825760D02*
X46009523Y-36787664D01*
X46009523Y-36787664D02*
X46047619Y-36711474D01*
X46047619Y-36711474D02*
X46047619Y-36063855D01*
X46352380Y-36063855D02*
X46847618Y-36063855D01*
X46847618Y-36063855D02*
X46580952Y-36368617D01*
X46580952Y-36368617D02*
X46695237Y-36368617D01*
X46695237Y-36368617D02*
X46771428Y-36406712D01*
X46771428Y-36406712D02*
X46809523Y-36444807D01*
X46809523Y-36444807D02*
X46847618Y-36520998D01*
X46847618Y-36520998D02*
X46847618Y-36711474D01*
X46847618Y-36711474D02*
X46809523Y-36787664D01*
X46809523Y-36787664D02*
X46771428Y-36825760D01*
X46771428Y-36825760D02*
X46695237Y-36863855D01*
X46695237Y-36863855D02*
X46466666Y-36863855D01*
X46466666Y-36863855D02*
X46390475Y-36825760D01*
X46390475Y-36825760D02*
X46352380Y-36787664D01*
X46409524Y-53363855D02*
X46409524Y-52563855D01*
X46409524Y-52563855D02*
X46600000Y-52563855D01*
X46600000Y-52563855D02*
X46714286Y-52601950D01*
X46714286Y-52601950D02*
X46790476Y-52678140D01*
X46790476Y-52678140D02*
X46828571Y-52754331D01*
X46828571Y-52754331D02*
X46866667Y-52906712D01*
X46866667Y-52906712D02*
X46866667Y-53020998D01*
X46866667Y-53020998D02*
X46828571Y-53173379D01*
X46828571Y-53173379D02*
X46790476Y-53249569D01*
X46790476Y-53249569D02*
X46714286Y-53325760D01*
X46714286Y-53325760D02*
X46600000Y-53363855D01*
X46600000Y-53363855D02*
X46409524Y-53363855D01*
X47133333Y-52563855D02*
X47628571Y-52563855D01*
X47628571Y-52563855D02*
X47361905Y-52868617D01*
X47361905Y-52868617D02*
X47476190Y-52868617D01*
X47476190Y-52868617D02*
X47552381Y-52906712D01*
X47552381Y-52906712D02*
X47590476Y-52944807D01*
X47590476Y-52944807D02*
X47628571Y-53020998D01*
X47628571Y-53020998D02*
X47628571Y-53211474D01*
X47628571Y-53211474D02*
X47590476Y-53287664D01*
X47590476Y-53287664D02*
X47552381Y-53325760D01*
X47552381Y-53325760D02*
X47476190Y-53363855D01*
X47476190Y-53363855D02*
X47247619Y-53363855D01*
X47247619Y-53363855D02*
X47171428Y-53325760D01*
X47171428Y-53325760D02*
X47133333Y-53287664D01*
X25954762Y-51363855D02*
X25688095Y-50982902D01*
X25497619Y-51363855D02*
X25497619Y-50563855D01*
X25497619Y-50563855D02*
X25802381Y-50563855D01*
X25802381Y-50563855D02*
X25878571Y-50601950D01*
X25878571Y-50601950D02*
X25916666Y-50640045D01*
X25916666Y-50640045D02*
X25954762Y-50716236D01*
X25954762Y-50716236D02*
X25954762Y-50830521D01*
X25954762Y-50830521D02*
X25916666Y-50906712D01*
X25916666Y-50906712D02*
X25878571Y-50944807D01*
X25878571Y-50944807D02*
X25802381Y-50982902D01*
X25802381Y-50982902D02*
X25497619Y-50982902D01*
X26259523Y-50640045D02*
X26297619Y-50601950D01*
X26297619Y-50601950D02*
X26373809Y-50563855D01*
X26373809Y-50563855D02*
X26564285Y-50563855D01*
X26564285Y-50563855D02*
X26640476Y-50601950D01*
X26640476Y-50601950D02*
X26678571Y-50640045D01*
X26678571Y-50640045D02*
X26716666Y-50716236D01*
X26716666Y-50716236D02*
X26716666Y-50792426D01*
X26716666Y-50792426D02*
X26678571Y-50906712D01*
X26678571Y-50906712D02*
X26221428Y-51363855D01*
X26221428Y-51363855D02*
X26716666Y-51363855D01*
X27211905Y-50563855D02*
X27288095Y-50563855D01*
X27288095Y-50563855D02*
X27364286Y-50601950D01*
X27364286Y-50601950D02*
X27402381Y-50640045D01*
X27402381Y-50640045D02*
X27440476Y-50716236D01*
X27440476Y-50716236D02*
X27478571Y-50868617D01*
X27478571Y-50868617D02*
X27478571Y-51059093D01*
X27478571Y-51059093D02*
X27440476Y-51211474D01*
X27440476Y-51211474D02*
X27402381Y-51287664D01*
X27402381Y-51287664D02*
X27364286Y-51325760D01*
X27364286Y-51325760D02*
X27288095Y-51363855D01*
X27288095Y-51363855D02*
X27211905Y-51363855D01*
X27211905Y-51363855D02*
X27135714Y-51325760D01*
X27135714Y-51325760D02*
X27097619Y-51287664D01*
X27097619Y-51287664D02*
X27059524Y-51211474D01*
X27059524Y-51211474D02*
X27021428Y-51059093D01*
X27021428Y-51059093D02*
X27021428Y-50868617D01*
X27021428Y-50868617D02*
X27059524Y-50716236D01*
X27059524Y-50716236D02*
X27097619Y-50640045D01*
X27097619Y-50640045D02*
X27135714Y-50601950D01*
X27135714Y-50601950D02*
X27211905Y-50563855D01*
X27745238Y-50563855D02*
X28240476Y-50563855D01*
X28240476Y-50563855D02*
X27973810Y-50868617D01*
X27973810Y-50868617D02*
X28088095Y-50868617D01*
X28088095Y-50868617D02*
X28164286Y-50906712D01*
X28164286Y-50906712D02*
X28202381Y-50944807D01*
X28202381Y-50944807D02*
X28240476Y-51020998D01*
X28240476Y-51020998D02*
X28240476Y-51211474D01*
X28240476Y-51211474D02*
X28202381Y-51287664D01*
X28202381Y-51287664D02*
X28164286Y-51325760D01*
X28164286Y-51325760D02*
X28088095Y-51363855D01*
X28088095Y-51363855D02*
X27859524Y-51363855D01*
X27859524Y-51363855D02*
X27783333Y-51325760D01*
X27783333Y-51325760D02*
X27745238Y-51287664D01*
X40704762Y-55363855D02*
X40438095Y-54982902D01*
X40247619Y-55363855D02*
X40247619Y-54563855D01*
X40247619Y-54563855D02*
X40552381Y-54563855D01*
X40552381Y-54563855D02*
X40628571Y-54601950D01*
X40628571Y-54601950D02*
X40666666Y-54640045D01*
X40666666Y-54640045D02*
X40704762Y-54716236D01*
X40704762Y-54716236D02*
X40704762Y-54830521D01*
X40704762Y-54830521D02*
X40666666Y-54906712D01*
X40666666Y-54906712D02*
X40628571Y-54944807D01*
X40628571Y-54944807D02*
X40552381Y-54982902D01*
X40552381Y-54982902D02*
X40247619Y-54982902D01*
X40971428Y-54563855D02*
X41466666Y-54563855D01*
X41466666Y-54563855D02*
X41200000Y-54868617D01*
X41200000Y-54868617D02*
X41314285Y-54868617D01*
X41314285Y-54868617D02*
X41390476Y-54906712D01*
X41390476Y-54906712D02*
X41428571Y-54944807D01*
X41428571Y-54944807D02*
X41466666Y-55020998D01*
X41466666Y-55020998D02*
X41466666Y-55211474D01*
X41466666Y-55211474D02*
X41428571Y-55287664D01*
X41428571Y-55287664D02*
X41390476Y-55325760D01*
X41390476Y-55325760D02*
X41314285Y-55363855D01*
X41314285Y-55363855D02*
X41085714Y-55363855D01*
X41085714Y-55363855D02*
X41009523Y-55325760D01*
X41009523Y-55325760D02*
X40971428Y-55287664D01*
X41961905Y-54563855D02*
X42038095Y-54563855D01*
X42038095Y-54563855D02*
X42114286Y-54601950D01*
X42114286Y-54601950D02*
X42152381Y-54640045D01*
X42152381Y-54640045D02*
X42190476Y-54716236D01*
X42190476Y-54716236D02*
X42228571Y-54868617D01*
X42228571Y-54868617D02*
X42228571Y-55059093D01*
X42228571Y-55059093D02*
X42190476Y-55211474D01*
X42190476Y-55211474D02*
X42152381Y-55287664D01*
X42152381Y-55287664D02*
X42114286Y-55325760D01*
X42114286Y-55325760D02*
X42038095Y-55363855D01*
X42038095Y-55363855D02*
X41961905Y-55363855D01*
X41961905Y-55363855D02*
X41885714Y-55325760D01*
X41885714Y-55325760D02*
X41847619Y-55287664D01*
X41847619Y-55287664D02*
X41809524Y-55211474D01*
X41809524Y-55211474D02*
X41771428Y-55059093D01*
X41771428Y-55059093D02*
X41771428Y-54868617D01*
X41771428Y-54868617D02*
X41809524Y-54716236D01*
X41809524Y-54716236D02*
X41847619Y-54640045D01*
X41847619Y-54640045D02*
X41885714Y-54601950D01*
X41885714Y-54601950D02*
X41961905Y-54563855D01*
X42914286Y-54830521D02*
X42914286Y-55363855D01*
X42723810Y-54525760D02*
X42533333Y-55097188D01*
X42533333Y-55097188D02*
X43028572Y-55097188D01*
X31409524Y-53363855D02*
X31409524Y-52563855D01*
X31409524Y-52563855D02*
X31600000Y-52563855D01*
X31600000Y-52563855D02*
X31714286Y-52601950D01*
X31714286Y-52601950D02*
X31790476Y-52678140D01*
X31790476Y-52678140D02*
X31828571Y-52754331D01*
X31828571Y-52754331D02*
X31866667Y-52906712D01*
X31866667Y-52906712D02*
X31866667Y-53020998D01*
X31866667Y-53020998D02*
X31828571Y-53173379D01*
X31828571Y-53173379D02*
X31790476Y-53249569D01*
X31790476Y-53249569D02*
X31714286Y-53325760D01*
X31714286Y-53325760D02*
X31600000Y-53363855D01*
X31600000Y-53363855D02*
X31409524Y-53363855D01*
X32171428Y-52640045D02*
X32209524Y-52601950D01*
X32209524Y-52601950D02*
X32285714Y-52563855D01*
X32285714Y-52563855D02*
X32476190Y-52563855D01*
X32476190Y-52563855D02*
X32552381Y-52601950D01*
X32552381Y-52601950D02*
X32590476Y-52640045D01*
X32590476Y-52640045D02*
X32628571Y-52716236D01*
X32628571Y-52716236D02*
X32628571Y-52792426D01*
X32628571Y-52792426D02*
X32590476Y-52906712D01*
X32590476Y-52906712D02*
X32133333Y-53363855D01*
X32133333Y-53363855D02*
X32628571Y-53363855D01*
X55904762Y-51363855D02*
X55638095Y-50982902D01*
X55447619Y-51363855D02*
X55447619Y-50563855D01*
X55447619Y-50563855D02*
X55752381Y-50563855D01*
X55752381Y-50563855D02*
X55828571Y-50601950D01*
X55828571Y-50601950D02*
X55866666Y-50640045D01*
X55866666Y-50640045D02*
X55904762Y-50716236D01*
X55904762Y-50716236D02*
X55904762Y-50830521D01*
X55904762Y-50830521D02*
X55866666Y-50906712D01*
X55866666Y-50906712D02*
X55828571Y-50944807D01*
X55828571Y-50944807D02*
X55752381Y-50982902D01*
X55752381Y-50982902D02*
X55447619Y-50982902D01*
X56590476Y-50830521D02*
X56590476Y-51363855D01*
X56400000Y-50525760D02*
X56209523Y-51097188D01*
X56209523Y-51097188D02*
X56704762Y-51097188D01*
X57161905Y-50563855D02*
X57238095Y-50563855D01*
X57238095Y-50563855D02*
X57314286Y-50601950D01*
X57314286Y-50601950D02*
X57352381Y-50640045D01*
X57352381Y-50640045D02*
X57390476Y-50716236D01*
X57390476Y-50716236D02*
X57428571Y-50868617D01*
X57428571Y-50868617D02*
X57428571Y-51059093D01*
X57428571Y-51059093D02*
X57390476Y-51211474D01*
X57390476Y-51211474D02*
X57352381Y-51287664D01*
X57352381Y-51287664D02*
X57314286Y-51325760D01*
X57314286Y-51325760D02*
X57238095Y-51363855D01*
X57238095Y-51363855D02*
X57161905Y-51363855D01*
X57161905Y-51363855D02*
X57085714Y-51325760D01*
X57085714Y-51325760D02*
X57047619Y-51287664D01*
X57047619Y-51287664D02*
X57009524Y-51211474D01*
X57009524Y-51211474D02*
X56971428Y-51059093D01*
X56971428Y-51059093D02*
X56971428Y-50868617D01*
X56971428Y-50868617D02*
X57009524Y-50716236D01*
X57009524Y-50716236D02*
X57047619Y-50640045D01*
X57047619Y-50640045D02*
X57085714Y-50601950D01*
X57085714Y-50601950D02*
X57161905Y-50563855D01*
X57695238Y-50563855D02*
X58190476Y-50563855D01*
X58190476Y-50563855D02*
X57923810Y-50868617D01*
X57923810Y-50868617D02*
X58038095Y-50868617D01*
X58038095Y-50868617D02*
X58114286Y-50906712D01*
X58114286Y-50906712D02*
X58152381Y-50944807D01*
X58152381Y-50944807D02*
X58190476Y-51020998D01*
X58190476Y-51020998D02*
X58190476Y-51211474D01*
X58190476Y-51211474D02*
X58152381Y-51287664D01*
X58152381Y-51287664D02*
X58114286Y-51325760D01*
X58114286Y-51325760D02*
X58038095Y-51363855D01*
X58038095Y-51363855D02*
X57809524Y-51363855D01*
X57809524Y-51363855D02*
X57733333Y-51325760D01*
X57733333Y-51325760D02*
X57695238Y-51287664D01*
X27104762Y-25363855D02*
X26838095Y-24982902D01*
X26647619Y-25363855D02*
X26647619Y-24563855D01*
X26647619Y-24563855D02*
X26952381Y-24563855D01*
X26952381Y-24563855D02*
X27028571Y-24601950D01*
X27028571Y-24601950D02*
X27066666Y-24640045D01*
X27066666Y-24640045D02*
X27104762Y-24716236D01*
X27104762Y-24716236D02*
X27104762Y-24830521D01*
X27104762Y-24830521D02*
X27066666Y-24906712D01*
X27066666Y-24906712D02*
X27028571Y-24944807D01*
X27028571Y-24944807D02*
X26952381Y-24982902D01*
X26952381Y-24982902D02*
X26647619Y-24982902D01*
X27409523Y-24640045D02*
X27447619Y-24601950D01*
X27447619Y-24601950D02*
X27523809Y-24563855D01*
X27523809Y-24563855D02*
X27714285Y-24563855D01*
X27714285Y-24563855D02*
X27790476Y-24601950D01*
X27790476Y-24601950D02*
X27828571Y-24640045D01*
X27828571Y-24640045D02*
X27866666Y-24716236D01*
X27866666Y-24716236D02*
X27866666Y-24792426D01*
X27866666Y-24792426D02*
X27828571Y-24906712D01*
X27828571Y-24906712D02*
X27371428Y-25363855D01*
X27371428Y-25363855D02*
X27866666Y-25363855D01*
X28361905Y-24563855D02*
X28438095Y-24563855D01*
X28438095Y-24563855D02*
X28514286Y-24601950D01*
X28514286Y-24601950D02*
X28552381Y-24640045D01*
X28552381Y-24640045D02*
X28590476Y-24716236D01*
X28590476Y-24716236D02*
X28628571Y-24868617D01*
X28628571Y-24868617D02*
X28628571Y-25059093D01*
X28628571Y-25059093D02*
X28590476Y-25211474D01*
X28590476Y-25211474D02*
X28552381Y-25287664D01*
X28552381Y-25287664D02*
X28514286Y-25325760D01*
X28514286Y-25325760D02*
X28438095Y-25363855D01*
X28438095Y-25363855D02*
X28361905Y-25363855D01*
X28361905Y-25363855D02*
X28285714Y-25325760D01*
X28285714Y-25325760D02*
X28247619Y-25287664D01*
X28247619Y-25287664D02*
X28209524Y-25211474D01*
X28209524Y-25211474D02*
X28171428Y-25059093D01*
X28171428Y-25059093D02*
X28171428Y-24868617D01*
X28171428Y-24868617D02*
X28209524Y-24716236D01*
X28209524Y-24716236D02*
X28247619Y-24640045D01*
X28247619Y-24640045D02*
X28285714Y-24601950D01*
X28285714Y-24601950D02*
X28361905Y-24563855D01*
X29352381Y-24563855D02*
X28971429Y-24563855D01*
X28971429Y-24563855D02*
X28933333Y-24944807D01*
X28933333Y-24944807D02*
X28971429Y-24906712D01*
X28971429Y-24906712D02*
X29047619Y-24868617D01*
X29047619Y-24868617D02*
X29238095Y-24868617D01*
X29238095Y-24868617D02*
X29314286Y-24906712D01*
X29314286Y-24906712D02*
X29352381Y-24944807D01*
X29352381Y-24944807D02*
X29390476Y-25020998D01*
X29390476Y-25020998D02*
X29390476Y-25211474D01*
X29390476Y-25211474D02*
X29352381Y-25287664D01*
X29352381Y-25287664D02*
X29314286Y-25325760D01*
X29314286Y-25325760D02*
X29238095Y-25363855D01*
X29238095Y-25363855D02*
X29047619Y-25363855D01*
X29047619Y-25363855D02*
X28971429Y-25325760D01*
X28971429Y-25325760D02*
X28933333Y-25287664D01*
X28204762Y-47363855D02*
X27938095Y-46982902D01*
X27747619Y-47363855D02*
X27747619Y-46563855D01*
X27747619Y-46563855D02*
X28052381Y-46563855D01*
X28052381Y-46563855D02*
X28128571Y-46601950D01*
X28128571Y-46601950D02*
X28166666Y-46640045D01*
X28166666Y-46640045D02*
X28204762Y-46716236D01*
X28204762Y-46716236D02*
X28204762Y-46830521D01*
X28204762Y-46830521D02*
X28166666Y-46906712D01*
X28166666Y-46906712D02*
X28128571Y-46944807D01*
X28128571Y-46944807D02*
X28052381Y-46982902D01*
X28052381Y-46982902D02*
X27747619Y-46982902D01*
X28509523Y-46640045D02*
X28547619Y-46601950D01*
X28547619Y-46601950D02*
X28623809Y-46563855D01*
X28623809Y-46563855D02*
X28814285Y-46563855D01*
X28814285Y-46563855D02*
X28890476Y-46601950D01*
X28890476Y-46601950D02*
X28928571Y-46640045D01*
X28928571Y-46640045D02*
X28966666Y-46716236D01*
X28966666Y-46716236D02*
X28966666Y-46792426D01*
X28966666Y-46792426D02*
X28928571Y-46906712D01*
X28928571Y-46906712D02*
X28471428Y-47363855D01*
X28471428Y-47363855D02*
X28966666Y-47363855D01*
X29461905Y-46563855D02*
X29538095Y-46563855D01*
X29538095Y-46563855D02*
X29614286Y-46601950D01*
X29614286Y-46601950D02*
X29652381Y-46640045D01*
X29652381Y-46640045D02*
X29690476Y-46716236D01*
X29690476Y-46716236D02*
X29728571Y-46868617D01*
X29728571Y-46868617D02*
X29728571Y-47059093D01*
X29728571Y-47059093D02*
X29690476Y-47211474D01*
X29690476Y-47211474D02*
X29652381Y-47287664D01*
X29652381Y-47287664D02*
X29614286Y-47325760D01*
X29614286Y-47325760D02*
X29538095Y-47363855D01*
X29538095Y-47363855D02*
X29461905Y-47363855D01*
X29461905Y-47363855D02*
X29385714Y-47325760D01*
X29385714Y-47325760D02*
X29347619Y-47287664D01*
X29347619Y-47287664D02*
X29309524Y-47211474D01*
X29309524Y-47211474D02*
X29271428Y-47059093D01*
X29271428Y-47059093D02*
X29271428Y-46868617D01*
X29271428Y-46868617D02*
X29309524Y-46716236D01*
X29309524Y-46716236D02*
X29347619Y-46640045D01*
X29347619Y-46640045D02*
X29385714Y-46601950D01*
X29385714Y-46601950D02*
X29461905Y-46563855D01*
X30033333Y-46640045D02*
X30071429Y-46601950D01*
X30071429Y-46601950D02*
X30147619Y-46563855D01*
X30147619Y-46563855D02*
X30338095Y-46563855D01*
X30338095Y-46563855D02*
X30414286Y-46601950D01*
X30414286Y-46601950D02*
X30452381Y-46640045D01*
X30452381Y-46640045D02*
X30490476Y-46716236D01*
X30490476Y-46716236D02*
X30490476Y-46792426D01*
X30490476Y-46792426D02*
X30452381Y-46906712D01*
X30452381Y-46906712D02*
X29995238Y-47363855D01*
X29995238Y-47363855D02*
X30490476Y-47363855D01*
X23923809Y-70040045D02*
X23847619Y-70001950D01*
X23847619Y-70001950D02*
X23771428Y-69925760D01*
X23771428Y-69925760D02*
X23657142Y-69811474D01*
X23657142Y-69811474D02*
X23580952Y-69773379D01*
X23580952Y-69773379D02*
X23504761Y-69773379D01*
X23542857Y-69963855D02*
X23466666Y-69925760D01*
X23466666Y-69925760D02*
X23390476Y-69849569D01*
X23390476Y-69849569D02*
X23352380Y-69697188D01*
X23352380Y-69697188D02*
X23352380Y-69430521D01*
X23352380Y-69430521D02*
X23390476Y-69278140D01*
X23390476Y-69278140D02*
X23466666Y-69201950D01*
X23466666Y-69201950D02*
X23542857Y-69163855D01*
X23542857Y-69163855D02*
X23695238Y-69163855D01*
X23695238Y-69163855D02*
X23771428Y-69201950D01*
X23771428Y-69201950D02*
X23847619Y-69278140D01*
X23847619Y-69278140D02*
X23885714Y-69430521D01*
X23885714Y-69430521D02*
X23885714Y-69697188D01*
X23885714Y-69697188D02*
X23847619Y-69849569D01*
X23847619Y-69849569D02*
X23771428Y-69925760D01*
X23771428Y-69925760D02*
X23695238Y-69963855D01*
X23695238Y-69963855D02*
X23542857Y-69963855D01*
X24266666Y-69963855D02*
X24419047Y-69963855D01*
X24419047Y-69963855D02*
X24495237Y-69925760D01*
X24495237Y-69925760D02*
X24533333Y-69887664D01*
X24533333Y-69887664D02*
X24609523Y-69773379D01*
X24609523Y-69773379D02*
X24647618Y-69620998D01*
X24647618Y-69620998D02*
X24647618Y-69316236D01*
X24647618Y-69316236D02*
X24609523Y-69240045D01*
X24609523Y-69240045D02*
X24571428Y-69201950D01*
X24571428Y-69201950D02*
X24495237Y-69163855D01*
X24495237Y-69163855D02*
X24342856Y-69163855D01*
X24342856Y-69163855D02*
X24266666Y-69201950D01*
X24266666Y-69201950D02*
X24228571Y-69240045D01*
X24228571Y-69240045D02*
X24190475Y-69316236D01*
X24190475Y-69316236D02*
X24190475Y-69506712D01*
X24190475Y-69506712D02*
X24228571Y-69582902D01*
X24228571Y-69582902D02*
X24266666Y-69620998D01*
X24266666Y-69620998D02*
X24342856Y-69659093D01*
X24342856Y-69659093D02*
X24495237Y-69659093D01*
X24495237Y-69659093D02*
X24571428Y-69620998D01*
X24571428Y-69620998D02*
X24609523Y-69582902D01*
X24609523Y-69582902D02*
X24647618Y-69506712D01*
X31104762Y-57363855D02*
X30838095Y-56982902D01*
X30647619Y-57363855D02*
X30647619Y-56563855D01*
X30647619Y-56563855D02*
X30952381Y-56563855D01*
X30952381Y-56563855D02*
X31028571Y-56601950D01*
X31028571Y-56601950D02*
X31066666Y-56640045D01*
X31066666Y-56640045D02*
X31104762Y-56716236D01*
X31104762Y-56716236D02*
X31104762Y-56830521D01*
X31104762Y-56830521D02*
X31066666Y-56906712D01*
X31066666Y-56906712D02*
X31028571Y-56944807D01*
X31028571Y-56944807D02*
X30952381Y-56982902D01*
X30952381Y-56982902D02*
X30647619Y-56982902D01*
X31409523Y-56640045D02*
X31447619Y-56601950D01*
X31447619Y-56601950D02*
X31523809Y-56563855D01*
X31523809Y-56563855D02*
X31714285Y-56563855D01*
X31714285Y-56563855D02*
X31790476Y-56601950D01*
X31790476Y-56601950D02*
X31828571Y-56640045D01*
X31828571Y-56640045D02*
X31866666Y-56716236D01*
X31866666Y-56716236D02*
X31866666Y-56792426D01*
X31866666Y-56792426D02*
X31828571Y-56906712D01*
X31828571Y-56906712D02*
X31371428Y-57363855D01*
X31371428Y-57363855D02*
X31866666Y-57363855D01*
X32361905Y-56563855D02*
X32438095Y-56563855D01*
X32438095Y-56563855D02*
X32514286Y-56601950D01*
X32514286Y-56601950D02*
X32552381Y-56640045D01*
X32552381Y-56640045D02*
X32590476Y-56716236D01*
X32590476Y-56716236D02*
X32628571Y-56868617D01*
X32628571Y-56868617D02*
X32628571Y-57059093D01*
X32628571Y-57059093D02*
X32590476Y-57211474D01*
X32590476Y-57211474D02*
X32552381Y-57287664D01*
X32552381Y-57287664D02*
X32514286Y-57325760D01*
X32514286Y-57325760D02*
X32438095Y-57363855D01*
X32438095Y-57363855D02*
X32361905Y-57363855D01*
X32361905Y-57363855D02*
X32285714Y-57325760D01*
X32285714Y-57325760D02*
X32247619Y-57287664D01*
X32247619Y-57287664D02*
X32209524Y-57211474D01*
X32209524Y-57211474D02*
X32171428Y-57059093D01*
X32171428Y-57059093D02*
X32171428Y-56868617D01*
X32171428Y-56868617D02*
X32209524Y-56716236D01*
X32209524Y-56716236D02*
X32247619Y-56640045D01*
X32247619Y-56640045D02*
X32285714Y-56601950D01*
X32285714Y-56601950D02*
X32361905Y-56563855D01*
X33390476Y-57363855D02*
X32933333Y-57363855D01*
X33161905Y-57363855D02*
X33161905Y-56563855D01*
X33161905Y-56563855D02*
X33085714Y-56678140D01*
X33085714Y-56678140D02*
X33009524Y-56754331D01*
X33009524Y-56754331D02*
X32933333Y-56792426D01*
X50304761Y-59363855D02*
X49923809Y-59363855D01*
X49923809Y-59363855D02*
X49923809Y-58563855D01*
X50571428Y-58944807D02*
X50838094Y-58944807D01*
X50952380Y-59363855D02*
X50571428Y-59363855D01*
X50571428Y-59363855D02*
X50571428Y-58563855D01*
X50571428Y-58563855D02*
X50952380Y-58563855D01*
X51295238Y-59363855D02*
X51295238Y-58563855D01*
X51295238Y-58563855D02*
X51485714Y-58563855D01*
X51485714Y-58563855D02*
X51600000Y-58601950D01*
X51600000Y-58601950D02*
X51676190Y-58678140D01*
X51676190Y-58678140D02*
X51714285Y-58754331D01*
X51714285Y-58754331D02*
X51752381Y-58906712D01*
X51752381Y-58906712D02*
X51752381Y-59020998D01*
X51752381Y-59020998D02*
X51714285Y-59173379D01*
X51714285Y-59173379D02*
X51676190Y-59249569D01*
X51676190Y-59249569D02*
X51600000Y-59325760D01*
X51600000Y-59325760D02*
X51485714Y-59363855D01*
X51485714Y-59363855D02*
X51295238Y-59363855D01*
X52438095Y-58830521D02*
X52438095Y-59363855D01*
X52247619Y-58525760D02*
X52057142Y-59097188D01*
X52057142Y-59097188D02*
X52552381Y-59097188D01*
X37123809Y-49440045D02*
X37047619Y-49401950D01*
X37047619Y-49401950D02*
X36971428Y-49325760D01*
X36971428Y-49325760D02*
X36857142Y-49211474D01*
X36857142Y-49211474D02*
X36780952Y-49173379D01*
X36780952Y-49173379D02*
X36704761Y-49173379D01*
X36742857Y-49363855D02*
X36666666Y-49325760D01*
X36666666Y-49325760D02*
X36590476Y-49249569D01*
X36590476Y-49249569D02*
X36552380Y-49097188D01*
X36552380Y-49097188D02*
X36552380Y-48830521D01*
X36552380Y-48830521D02*
X36590476Y-48678140D01*
X36590476Y-48678140D02*
X36666666Y-48601950D01*
X36666666Y-48601950D02*
X36742857Y-48563855D01*
X36742857Y-48563855D02*
X36895238Y-48563855D01*
X36895238Y-48563855D02*
X36971428Y-48601950D01*
X36971428Y-48601950D02*
X37047619Y-48678140D01*
X37047619Y-48678140D02*
X37085714Y-48830521D01*
X37085714Y-48830521D02*
X37085714Y-49097188D01*
X37085714Y-49097188D02*
X37047619Y-49249569D01*
X37047619Y-49249569D02*
X36971428Y-49325760D01*
X36971428Y-49325760D02*
X36895238Y-49363855D01*
X36895238Y-49363855D02*
X36742857Y-49363855D01*
X37352380Y-48563855D02*
X37847618Y-48563855D01*
X37847618Y-48563855D02*
X37580952Y-48868617D01*
X37580952Y-48868617D02*
X37695237Y-48868617D01*
X37695237Y-48868617D02*
X37771428Y-48906712D01*
X37771428Y-48906712D02*
X37809523Y-48944807D01*
X37809523Y-48944807D02*
X37847618Y-49020998D01*
X37847618Y-49020998D02*
X37847618Y-49211474D01*
X37847618Y-49211474D02*
X37809523Y-49287664D01*
X37809523Y-49287664D02*
X37771428Y-49325760D01*
X37771428Y-49325760D02*
X37695237Y-49363855D01*
X37695237Y-49363855D02*
X37466666Y-49363855D01*
X37466666Y-49363855D02*
X37390475Y-49325760D01*
X37390475Y-49325760D02*
X37352380Y-49287664D01*
X52073809Y-49440045D02*
X51997619Y-49401950D01*
X51997619Y-49401950D02*
X51921428Y-49325760D01*
X51921428Y-49325760D02*
X51807142Y-49211474D01*
X51807142Y-49211474D02*
X51730952Y-49173379D01*
X51730952Y-49173379D02*
X51654761Y-49173379D01*
X51692857Y-49363855D02*
X51616666Y-49325760D01*
X51616666Y-49325760D02*
X51540476Y-49249569D01*
X51540476Y-49249569D02*
X51502380Y-49097188D01*
X51502380Y-49097188D02*
X51502380Y-48830521D01*
X51502380Y-48830521D02*
X51540476Y-48678140D01*
X51540476Y-48678140D02*
X51616666Y-48601950D01*
X51616666Y-48601950D02*
X51692857Y-48563855D01*
X51692857Y-48563855D02*
X51845238Y-48563855D01*
X51845238Y-48563855D02*
X51921428Y-48601950D01*
X51921428Y-48601950D02*
X51997619Y-48678140D01*
X51997619Y-48678140D02*
X52035714Y-48830521D01*
X52035714Y-48830521D02*
X52035714Y-49097188D01*
X52035714Y-49097188D02*
X51997619Y-49249569D01*
X51997619Y-49249569D02*
X51921428Y-49325760D01*
X51921428Y-49325760D02*
X51845238Y-49363855D01*
X51845238Y-49363855D02*
X51692857Y-49363855D01*
X52721428Y-48830521D02*
X52721428Y-49363855D01*
X52530952Y-48525760D02*
X52340475Y-49097188D01*
X52340475Y-49097188D02*
X52835714Y-49097188D01*
X32666666Y-69163855D02*
X33123809Y-69163855D01*
X32895237Y-69963855D02*
X32895237Y-69163855D01*
X33276190Y-69163855D02*
X33542857Y-69963855D01*
X33542857Y-69963855D02*
X33809523Y-69163855D01*
X34038094Y-69925760D02*
X34152380Y-69963855D01*
X34152380Y-69963855D02*
X34342856Y-69963855D01*
X34342856Y-69963855D02*
X34419047Y-69925760D01*
X34419047Y-69925760D02*
X34457142Y-69887664D01*
X34457142Y-69887664D02*
X34495237Y-69811474D01*
X34495237Y-69811474D02*
X34495237Y-69735283D01*
X34495237Y-69735283D02*
X34457142Y-69659093D01*
X34457142Y-69659093D02*
X34419047Y-69620998D01*
X34419047Y-69620998D02*
X34342856Y-69582902D01*
X34342856Y-69582902D02*
X34190475Y-69544807D01*
X34190475Y-69544807D02*
X34114285Y-69506712D01*
X34114285Y-69506712D02*
X34076190Y-69468617D01*
X34076190Y-69468617D02*
X34038094Y-69392426D01*
X34038094Y-69392426D02*
X34038094Y-69316236D01*
X34038094Y-69316236D02*
X34076190Y-69240045D01*
X34076190Y-69240045D02*
X34114285Y-69201950D01*
X34114285Y-69201950D02*
X34190475Y-69163855D01*
X34190475Y-69163855D02*
X34380952Y-69163855D01*
X34380952Y-69163855D02*
X34495237Y-69201950D01*
X35257142Y-69963855D02*
X34799999Y-69963855D01*
X35028571Y-69963855D02*
X35028571Y-69163855D01*
X35028571Y-69163855D02*
X34952380Y-69278140D01*
X34952380Y-69278140D02*
X34876190Y-69354331D01*
X34876190Y-69354331D02*
X34799999Y-69392426D01*
X21823809Y-49440045D02*
X21747619Y-49401950D01*
X21747619Y-49401950D02*
X21671428Y-49325760D01*
X21671428Y-49325760D02*
X21557142Y-49211474D01*
X21557142Y-49211474D02*
X21480952Y-49173379D01*
X21480952Y-49173379D02*
X21404761Y-49173379D01*
X21442857Y-49363855D02*
X21366666Y-49325760D01*
X21366666Y-49325760D02*
X21290476Y-49249569D01*
X21290476Y-49249569D02*
X21252380Y-49097188D01*
X21252380Y-49097188D02*
X21252380Y-48830521D01*
X21252380Y-48830521D02*
X21290476Y-48678140D01*
X21290476Y-48678140D02*
X21366666Y-48601950D01*
X21366666Y-48601950D02*
X21442857Y-48563855D01*
X21442857Y-48563855D02*
X21595238Y-48563855D01*
X21595238Y-48563855D02*
X21671428Y-48601950D01*
X21671428Y-48601950D02*
X21747619Y-48678140D01*
X21747619Y-48678140D02*
X21785714Y-48830521D01*
X21785714Y-48830521D02*
X21785714Y-49097188D01*
X21785714Y-49097188D02*
X21747619Y-49249569D01*
X21747619Y-49249569D02*
X21671428Y-49325760D01*
X21671428Y-49325760D02*
X21595238Y-49363855D01*
X21595238Y-49363855D02*
X21442857Y-49363855D01*
X22090475Y-48640045D02*
X22128571Y-48601950D01*
X22128571Y-48601950D02*
X22204761Y-48563855D01*
X22204761Y-48563855D02*
X22395237Y-48563855D01*
X22395237Y-48563855D02*
X22471428Y-48601950D01*
X22471428Y-48601950D02*
X22509523Y-48640045D01*
X22509523Y-48640045D02*
X22547618Y-48716236D01*
X22547618Y-48716236D02*
X22547618Y-48792426D01*
X22547618Y-48792426D02*
X22509523Y-48906712D01*
X22509523Y-48906712D02*
X22052380Y-49363855D01*
X22052380Y-49363855D02*
X22547618Y-49363855D01*
%TO.C,R105*%
X12772936Y-26265000D02*
X13227064Y-26265000D01*
X12772936Y-27735000D02*
X13227064Y-27735000D01*
%TO.C,R305*%
X42772936Y-26265000D02*
X43227064Y-26265000D01*
X42772936Y-27735000D02*
X43227064Y-27735000D01*
%TO.C,R401*%
X62227064Y-54265000D02*
X61772936Y-54265000D01*
X62227064Y-55735000D02*
X61772936Y-55735000D01*
%TO.C,R102*%
X16265000Y-47227064D02*
X16265000Y-46772936D01*
X17735000Y-47227064D02*
X17735000Y-46772936D01*
%TO.C,R404*%
X53265000Y-54772936D02*
X53265000Y-55227064D01*
X54735000Y-54772936D02*
X54735000Y-55227064D01*
%TO.C,J1*%
X7340000Y-78680000D02*
X17740000Y-78680000D01*
X7340000Y-81700000D02*
X17740000Y-81700000D01*
X7340000Y-86600000D02*
X17740000Y-86600000D01*
X7340000Y-88100000D02*
X17740000Y-88100000D01*
X7340000Y-88720000D02*
X7340000Y-78680000D01*
X9700000Y-88720000D02*
X7340000Y-88720000D01*
X17740000Y-78680000D02*
X17740000Y-88720000D01*
X17740000Y-88720000D02*
X10300000Y-88720000D01*
X10000000Y-88720000D02*
X10440000Y-89330000D01*
X9560000Y-89330000D01*
X10000000Y-88720000D01*
G36*
X10440000Y-89330000D02*
G01*
X9560000Y-89330000D01*
X10000000Y-88720000D01*
X10440000Y-89330000D01*
G37*
%TO.C,R302*%
X46265000Y-47227064D02*
X46265000Y-46772936D01*
X47735000Y-47227064D02*
X47735000Y-46772936D01*
%TO.C,R103*%
X8265000Y-50772936D02*
X8265000Y-51227064D01*
X9735000Y-50772936D02*
X9735000Y-51227064D01*
%TO.C,R101*%
X17227064Y-54265000D02*
X16772936Y-54265000D01*
X17227064Y-55735000D02*
X16772936Y-55735000D01*
%TO.C,U2*%
X25840000Y-32640000D02*
X26145000Y-32640000D01*
X25840000Y-40360000D02*
X25840000Y-32640000D01*
X26145000Y-40360000D02*
X25840000Y-40360000D01*
X29855000Y-32640000D02*
X30160000Y-32640000D01*
X30160000Y-32640000D02*
X30160000Y-40360000D01*
X30160000Y-40360000D02*
X29855000Y-40360000D01*
X28680000Y-31810000D02*
X28210000Y-32150000D01*
X28210000Y-31470000D01*
X28680000Y-31810000D01*
G36*
X28680000Y-31810000D02*
G01*
X28210000Y-32150000D01*
X28210000Y-31470000D01*
X28680000Y-31810000D01*
G37*
%TO.C,LED3*%
X38040000Y-58000000D02*
X38040000Y-60685000D01*
X38040000Y-60685000D02*
X39960000Y-60685000D01*
X39960000Y-60685000D02*
X39960000Y-58000000D01*
%TO.C,U1*%
X10840000Y-32640000D02*
X11145000Y-32640000D01*
X10840000Y-40360000D02*
X10840000Y-32640000D01*
X11145000Y-40360000D02*
X10840000Y-40360000D01*
X14855000Y-32640000D02*
X15160000Y-32640000D01*
X15160000Y-32640000D02*
X15160000Y-40360000D01*
X15160000Y-40360000D02*
X14855000Y-40360000D01*
X13680000Y-31810000D02*
X13210000Y-32150000D01*
X13210000Y-31470000D01*
X13680000Y-31810000D01*
G36*
X13680000Y-31810000D02*
G01*
X13210000Y-32150000D01*
X13210000Y-31470000D01*
X13680000Y-31810000D01*
G37*
%TO.C,LED1*%
X8040000Y-58000000D02*
X8040000Y-60685000D01*
X8040000Y-60685000D02*
X9960000Y-60685000D01*
X9960000Y-60685000D02*
X9960000Y-58000000D01*
%TO.C,R405*%
X57772936Y-26265000D02*
X58227064Y-26265000D01*
X57772936Y-27735000D02*
X58227064Y-27735000D01*
%TO.C,R303*%
X38265000Y-50772936D02*
X38265000Y-51227064D01*
X39735000Y-50772936D02*
X39735000Y-51227064D01*
%TO.C,D9*%
X27640000Y-65000000D02*
X27640000Y-67000000D01*
X27640000Y-65000000D02*
X31650000Y-65000000D01*
X27640000Y-67000000D02*
X31650000Y-67000000D01*
%TO.C,F1*%
X12613748Y-70290000D02*
X15386252Y-70290000D01*
X12613748Y-73710000D02*
X15386252Y-73710000D01*
%TO.C,R104*%
X8265000Y-54772936D02*
X8265000Y-55227064D01*
X9735000Y-54772936D02*
X9735000Y-55227064D01*
%TO.C,C1*%
X41562500Y-70152500D02*
X42350000Y-70152500D01*
X41956250Y-69758750D02*
X41956250Y-70546250D01*
X42590000Y-69654437D02*
X42590000Y-70940000D01*
X42590000Y-69654437D02*
X43654437Y-68590000D01*
X42590000Y-74345563D02*
X42590000Y-73060000D01*
X42590000Y-74345563D02*
X43654437Y-75410000D01*
X43654437Y-68590000D02*
X49410000Y-68590000D01*
X43654437Y-75410000D02*
X49410000Y-75410000D01*
X49410000Y-68590000D02*
X49410000Y-70940000D01*
X49410000Y-75410000D02*
X49410000Y-73060000D01*
%TO.C,R204*%
X23265000Y-54772936D02*
X23265000Y-55227064D01*
X24735000Y-54772936D02*
X24735000Y-55227064D01*
%TO.C,D4*%
X64360000Y-50000000D02*
X60350000Y-50000000D01*
X64360000Y-52000000D02*
X60350000Y-52000000D01*
X64360000Y-52000000D02*
X64360000Y-50000000D01*
%TO.C,J5*%
X9540000Y-3670000D02*
X10870000Y-3670000D01*
X9540000Y-5000000D02*
X9540000Y-3670000D01*
X12140000Y-3670000D02*
X60460000Y-3670000D01*
X12140000Y-6330000D02*
X12140000Y-3670000D01*
X12140000Y-6330000D02*
X60460000Y-6330000D01*
X60460000Y-6330000D02*
X60460000Y-3670000D01*
%TO.C,Q1*%
X8240000Y-45440000D02*
X9760000Y-45440000D01*
X8240000Y-46440000D02*
X8240000Y-45440000D01*
X8240000Y-48560000D02*
X8240000Y-47560000D01*
X9760000Y-45440000D02*
X9760000Y-45490000D01*
X9760000Y-46610000D02*
X9760000Y-47390000D01*
X9760000Y-48510000D02*
X9760000Y-48560000D01*
X9760000Y-48560000D02*
X8240000Y-48560000D01*
X10300000Y-47380000D02*
X10060000Y-47050000D01*
X10540000Y-47050000D01*
X10300000Y-47380000D01*
G36*
X10300000Y-47380000D02*
G01*
X10060000Y-47050000D01*
X10540000Y-47050000D01*
X10300000Y-47380000D01*
G37*
%TO.C,LED2*%
X23040000Y-58000000D02*
X23040000Y-60685000D01*
X23040000Y-60685000D02*
X24960000Y-60685000D01*
X24960000Y-60685000D02*
X24960000Y-58000000D01*
%TO.C,D1*%
X19360000Y-50000000D02*
X15350000Y-50000000D01*
X19360000Y-52000000D02*
X15350000Y-52000000D01*
X19360000Y-52000000D02*
X19360000Y-50000000D01*
%TO.C,U4*%
X55840000Y-32640000D02*
X56145000Y-32640000D01*
X55840000Y-40360000D02*
X55840000Y-32640000D01*
X56145000Y-40360000D02*
X55840000Y-40360000D01*
X59855000Y-32640000D02*
X60160000Y-32640000D01*
X60160000Y-32640000D02*
X60160000Y-40360000D01*
X60160000Y-40360000D02*
X59855000Y-40360000D01*
X58680000Y-31810000D02*
X58210000Y-32150000D01*
X58210000Y-31470000D01*
X58680000Y-31810000D01*
G36*
X58680000Y-31810000D02*
G01*
X58210000Y-32150000D01*
X58210000Y-31470000D01*
X58680000Y-31810000D01*
G37*
%TO.C,R301*%
X47227064Y-54265000D02*
X46772936Y-54265000D01*
X47227064Y-55735000D02*
X46772936Y-55735000D01*
%TO.C,R402*%
X61265000Y-47227064D02*
X61265000Y-46772936D01*
X62735000Y-47227064D02*
X62735000Y-46772936D01*
%TO.C,R6*%
X19772936Y-65265000D02*
X20227064Y-65265000D01*
X19772936Y-66735000D02*
X20227064Y-66735000D01*
%TO.C,J4*%
X9540000Y-21450000D02*
X10870000Y-21450000D01*
X9540000Y-22780000D02*
X9540000Y-21450000D01*
X12140000Y-21450000D02*
X60460000Y-21450000D01*
X12140000Y-24110000D02*
X12140000Y-21450000D01*
X12140000Y-24110000D02*
X60460000Y-24110000D01*
X60460000Y-24110000D02*
X60460000Y-21450000D01*
%TO.C,J2*%
X42980000Y-80180000D02*
X66070000Y-80180000D01*
X42980000Y-87720000D02*
X42980000Y-80180000D01*
X44700000Y-87720000D02*
X42980000Y-87720000D01*
X66070000Y-80180000D02*
X66070000Y-87720000D01*
X66070000Y-87720000D02*
X45300000Y-87720000D01*
X45000000Y-87720000D02*
X45440000Y-88330000D01*
X44560000Y-88330000D01*
X45000000Y-87720000D01*
G36*
X45440000Y-88330000D02*
G01*
X44560000Y-88330000D01*
X45000000Y-87720000D01*
X45440000Y-88330000D01*
G37*
%TO.C,C2*%
X55738748Y-71265000D02*
X56261252Y-71265000D01*
X55738748Y-72735000D02*
X56261252Y-72735000D01*
%TO.C,U3*%
X40840000Y-32640000D02*
X41145000Y-32640000D01*
X40840000Y-40360000D02*
X40840000Y-32640000D01*
X41145000Y-40360000D02*
X40840000Y-40360000D01*
X44855000Y-32640000D02*
X45160000Y-32640000D01*
X45160000Y-32640000D02*
X45160000Y-40360000D01*
X45160000Y-40360000D02*
X44855000Y-40360000D01*
X43680000Y-31810000D02*
X43210000Y-32150000D01*
X43210000Y-31470000D01*
X43680000Y-31810000D01*
G36*
X43680000Y-31810000D02*
G01*
X43210000Y-32150000D01*
X43210000Y-31470000D01*
X43680000Y-31810000D01*
G37*
%TO.C,D3*%
X49360000Y-50000000D02*
X45350000Y-50000000D01*
X49360000Y-52000000D02*
X45350000Y-52000000D01*
X49360000Y-52000000D02*
X49360000Y-50000000D01*
%TO.C,R203*%
X23265000Y-50772936D02*
X23265000Y-51227064D01*
X24735000Y-50772936D02*
X24735000Y-51227064D01*
%TO.C,R304*%
X38265000Y-54772936D02*
X38265000Y-55227064D01*
X39735000Y-54772936D02*
X39735000Y-55227064D01*
%TO.C,D2*%
X34360000Y-50000000D02*
X30350000Y-50000000D01*
X34360000Y-52000000D02*
X30350000Y-52000000D01*
X34360000Y-52000000D02*
X34360000Y-50000000D01*
%TO.C,R403*%
X53265000Y-50772936D02*
X53265000Y-51227064D01*
X54735000Y-50772936D02*
X54735000Y-51227064D01*
%TO.C,R205*%
X27772936Y-26265000D02*
X28227064Y-26265000D01*
X27772936Y-27735000D02*
X28227064Y-27735000D01*
%TO.C,R202*%
X31265000Y-47227064D02*
X31265000Y-46772936D01*
X32735000Y-47227064D02*
X32735000Y-46772936D01*
%TO.C,Q9*%
X23240000Y-70440000D02*
X24760000Y-70440000D01*
X23240000Y-70490000D02*
X23240000Y-70440000D01*
X23240000Y-72390000D02*
X23240000Y-71610000D01*
X23240000Y-73560000D02*
X23240000Y-73510000D01*
X24760000Y-70440000D02*
X24760000Y-71440000D01*
X24760000Y-72560000D02*
X24760000Y-73560000D01*
X24760000Y-73560000D02*
X23240000Y-73560000D01*
X22700000Y-71620000D02*
X22940000Y-71950000D01*
X22460000Y-71950000D01*
X22700000Y-71620000D01*
G36*
X22940000Y-71950000D02*
G01*
X22460000Y-71950000D01*
X22700000Y-71620000D01*
X22940000Y-71950000D01*
G37*
%TO.C,R201*%
X32227064Y-54265000D02*
X31772936Y-54265000D01*
X32227064Y-55735000D02*
X31772936Y-55735000D01*
%TO.C,LED4*%
X53040000Y-58000000D02*
X53040000Y-60685000D01*
X53040000Y-60685000D02*
X54960000Y-60685000D01*
X54960000Y-60685000D02*
X54960000Y-58000000D01*
%TO.C,Q3*%
X38240000Y-45440000D02*
X39760000Y-45440000D01*
X38240000Y-46440000D02*
X38240000Y-45440000D01*
X38240000Y-48560000D02*
X38240000Y-47560000D01*
X39760000Y-45440000D02*
X39760000Y-45490000D01*
X39760000Y-46610000D02*
X39760000Y-47390000D01*
X39760000Y-48510000D02*
X39760000Y-48560000D01*
X39760000Y-48560000D02*
X38240000Y-48560000D01*
X40300000Y-47380000D02*
X40060000Y-47050000D01*
X40540000Y-47050000D01*
X40300000Y-47380000D01*
G36*
X40300000Y-47380000D02*
G01*
X40060000Y-47050000D01*
X40540000Y-47050000D01*
X40300000Y-47380000D01*
G37*
%TO.C,Q4*%
X53240000Y-45440000D02*
X54760000Y-45440000D01*
X53240000Y-46440000D02*
X53240000Y-45440000D01*
X53240000Y-48560000D02*
X53240000Y-47560000D01*
X54760000Y-45440000D02*
X54760000Y-45490000D01*
X54760000Y-46610000D02*
X54760000Y-47390000D01*
X54760000Y-48510000D02*
X54760000Y-48560000D01*
X54760000Y-48560000D02*
X53240000Y-48560000D01*
X55300000Y-47380000D02*
X55060000Y-47050000D01*
X55540000Y-47050000D01*
X55300000Y-47380000D01*
G36*
X55300000Y-47380000D02*
G01*
X55060000Y-47050000D01*
X55540000Y-47050000D01*
X55300000Y-47380000D01*
G37*
%TO.C,TVS1*%
X30490000Y-70350000D02*
X30490000Y-73650000D01*
X30490000Y-70350000D02*
X36000000Y-70350000D01*
X30490000Y-73650000D02*
X36000000Y-73650000D01*
%TO.C,Q2*%
X23240000Y-45440000D02*
X24760000Y-45440000D01*
X23240000Y-46440000D02*
X23240000Y-45440000D01*
X23240000Y-48560000D02*
X23240000Y-47560000D01*
X24760000Y-45440000D02*
X24760000Y-45490000D01*
X24760000Y-46610000D02*
X24760000Y-47390000D01*
X24760000Y-48510000D02*
X24760000Y-48560000D01*
X24760000Y-48560000D02*
X23240000Y-48560000D01*
X25300000Y-47380000D02*
X25060000Y-47050000D01*
X25540000Y-47050000D01*
X25300000Y-47380000D01*
G36*
X25300000Y-47380000D02*
G01*
X25060000Y-47050000D01*
X25540000Y-47050000D01*
X25300000Y-47380000D01*
G37*
%TD*%
M02*
